<?xml version="1.0" encoding="us-ascii" standalone="no"?><svg xmlns="http://www.w3.org/2000/svg" xmlns:xlink="http://www.w3.org/1999/xlink" contentStyleType="text/css" height="992px" preserveAspectRatio="none" style="width:535px;height:992px;background:#FFFFFF;" version="1.1" viewBox="0 0 535 992" width="535px" zoomAndPan="magnify"><defs/><g><rect fill="#FFFFFF" height="180.6951" style="stroke:#181818;stroke-width:1.0;" width="10" x="215" y="126.9809"/><rect fill="#FFFFFF" height="180.6951" style="stroke:#181818;stroke-width:1.0;" width="10" x="215" y="343.815"/><rect fill="#FFFFFF" height="180.6951" style="stroke:#181818;stroke-width:1.0;" width="10" x="215" y="560.6491"/><rect fill="#FFFFFF" height="108.4171" style="stroke:#181818;stroke-width:1.0;" width="10" x="215" y="777.4833"/><rect fill="#FFFFFF" height="108.4171" style="stroke:#181818;stroke-width:1.0;" width="10" x="351" y="163.1199"/><rect fill="#FFFFFF" height="108.4171" style="stroke:#181818;stroke-width:1.0;" width="10" x="351" y="379.954"/><rect fill="#FFFFFF" height="108.4171" style="stroke:#181818;stroke-width:1.0;" width="10" x="351" y="596.7882"/><rect fill="#FFFFFF" height="36.139" style="stroke:#181818;stroke-width:1.0;" width="10" x="351" y="813.6223"/><rect fill="#FFFFFF" height="36.139" style="stroke:#181818;stroke-width:1.0;" width="10" x="495" y="199.259"/><rect fill="#FFFFFF" height="36.139" style="stroke:#181818;stroke-width:1.0;" width="10" x="495" y="416.0931"/><rect fill="#FFFFFF" height="36.139" style="stroke:#181818;stroke-width:1.0;" width="10" x="495" y="632.9272"/><line style="stroke:#181818;stroke-width:0.5;stroke-dasharray:5.0,5.0;" x1="23" x2="23" y1="88.8419" y2="903.9003"/><line style="stroke:#181818;stroke-width:0.5;stroke-dasharray:5.0,5.0;" x1="219.5" x2="219.5" y1="88.8419" y2="903.9003"/><line style="stroke:#181818;stroke-width:0.5;stroke-dasharray:5.0,5.0;" x1="355.5" x2="355.5" y1="88.8419" y2="903.9003"/><line style="stroke:#181818;stroke-width:0.5;stroke-dasharray:5.0,5.0;" x1="499.5" x2="499.5" y1="88.8419" y2="903.9003"/><text fill="#000000" font-family="sans-serif" font-size="14" lengthAdjust="spacing" textLength="30" x="5" y="79.9659">User</text><ellipse cx="23" cy="13.5" fill="#E2E2F0" rx="8" ry="8" style="stroke:#181818;stroke-width:0.5;"/><path d="M23,21.5 L23,48.5 M10,29.5 L36,29.5 M23,48.5 L10,63.5 M23,48.5 L36,63.5 " fill="none" style="stroke:#181818;stroke-width:0.5;"/><text fill="#000000" font-family="sans-serif" font-size="14" lengthAdjust="spacing" textLength="30" x="5" y="917.8662">User</text><ellipse cx="23" cy="935.2422" fill="#E2E2F0" rx="8" ry="8" style="stroke:#181818;stroke-width:0.5;"/><path d="M23,943.2422 L23,970.2422 M10,951.2422 L36,951.2422 M23,970.2422 L10,985.2422 M23,970.2422 L36,985.2422 " fill="none" style="stroke:#181818;stroke-width:0.5;"/><rect fill="#E2E2F0" height="37.8419" rx="2.5" ry="2.5" style="stroke:#181818;stroke-width:0.5;" width="107" x="166.5" y="50"/><text fill="#000000" font-family="sans-serif" font-size="14" lengthAdjust="spacing" textLength="93" x="173.5" y="71.9659">User Interface</text><rect fill="#E2E2F0" height="37.8419" rx="2.5" ry="2.5" style="stroke:#181818;stroke-width:0.5;" width="107" x="166.5" y="902.9003"/><text fill="#000000" font-family="sans-serif" font-size="14" lengthAdjust="spacing" textLength="93" x="173.5" y="924.8662">User Interface</text><rect fill="#E2E2F0" height="37.8419" rx="2.5" ry="2.5" style="stroke:#181818;stroke-width:0.5;" width="109" x="301.5" y="50"/><text fill="#000000" font-family="sans-serif" font-size="14" lengthAdjust="spacing" textLength="95" x="308.5" y="71.9659">Business Logic</text><rect fill="#E2E2F0" height="37.8419" rx="2.5" ry="2.5" style="stroke:#181818;stroke-width:0.5;" width="109" x="301.5" y="902.9003"/><text fill="#000000" font-family="sans-serif" font-size="14" lengthAdjust="spacing" textLength="95" x="308.5" y="924.8662">Business Logic</text><text fill="#000000" font-family="sans-serif" font-size="14" lengthAdjust="spacing" textLength="61" x="466.5" y="79.9659">Database</text><path d="M482,29 C482,19 500,19 500,19 C500,19 518,19 518,29 L518,55 C518,65 500,65 500,65 C500,65 482,65 482,55 L482,29 " fill="#E2E2F0" style="stroke:#181818;stroke-width:1.5;"/><path d="M482,29 C482,39 500,39 500,39 C500,39 518,39 518,29 " fill="none" style="stroke:#181818;stroke-width:1.5;"/><text fill="#000000" font-family="sans-serif" font-size="14" lengthAdjust="spacing" textLength="61" x="466.5" y="917.8662">Database</text><path d="M482,936.7422 C482,926.7422 500,926.7422 500,926.7422 C500,926.7422 518,926.7422 518,936.7422 L518,962.7422 C518,972.7422 500,972.7422 500,972.7422 C500,972.7422 482,972.7422 482,962.7422 L482,936.7422 " fill="#E2E2F0" style="stroke:#181818;stroke-width:1.5;"/><path d="M482,936.7422 C482,946.7422 500,946.7422 500,946.7422 C500,946.7422 518,946.7422 518,936.7422 " fill="none" style="stroke:#181818;stroke-width:1.5;"/><rect fill="#FFFFFF" height="180.6951" style="stroke:#181818;stroke-width:1.0;" width="10" x="215" y="126.9809"/><rect fill="#FFFFFF" height="180.6951" style="stroke:#181818;stroke-width:1.0;" width="10" x="215" y="343.815"/><rect fill="#FFFFFF" height="180.6951" style="stroke:#181818;stroke-width:1.0;" width="10" x="215" y="560.6491"/><rect fill="#FFFFFF" height="108.4171" style="stroke:#181818;stroke-width:1.0;" width="10" x="215" y="777.4833"/><rect fill="#FFFFFF" height="108.4171" style="stroke:#181818;stroke-width:1.0;" width="10" x="351" y="163.1199"/><rect fill="#FFFFFF" height="108.4171" style="stroke:#181818;stroke-width:1.0;" width="10" x="351" y="379.954"/><rect fill="#FFFFFF" height="108.4171" style="stroke:#181818;stroke-width:1.0;" width="10" x="351" y="596.7882"/><rect fill="#FFFFFF" height="36.139" style="stroke:#181818;stroke-width:1.0;" width="10" x="351" y="813.6223"/><rect fill="#FFFFFF" height="36.139" style="stroke:#181818;stroke-width:1.0;" width="10" x="495" y="199.259"/><rect fill="#FFFFFF" height="36.139" style="stroke:#181818;stroke-width:1.0;" width="10" x="495" y="416.0931"/><rect fill="#FFFFFF" height="36.139" style="stroke:#181818;stroke-width:1.0;" width="10" x="495" y="632.9272"/><polygon fill="#181818" points="203,122.9809,213,126.9809,203,130.9809,207,126.9809" style="stroke:#181818;stroke-width:1.0;"/><line style="stroke:#181818;stroke-width:1.0;" x1="23" x2="209" y1="126.9809" y2="126.9809"/><text fill="#000000" font-family="sans-serif" font-size="13" lengthAdjust="spacing" textLength="35" x="30" y="116.7389">Login</text><polygon fill="#181818" points="339,159.1199,349,163.1199,339,167.1199,343,163.1199" style="stroke:#181818;stroke-width:1.0;"/><line style="stroke:#181818;stroke-width:1.0;" x1="225" x2="345" y1="163.1199" y2="163.1199"/><text fill="#000000" font-family="sans-serif" font-size="13" lengthAdjust="spacing" textLength="82" x="232" y="152.8779">Validate User</text><polygon fill="#181818" points="483,195.259,493,199.259,483,203.259,487,199.259" style="stroke:#181818;stroke-width:1.0;"/><line style="stroke:#181818;stroke-width:1.0;" x1="361" x2="489" y1="199.259" y2="199.259"/><text fill="#000000" font-family="sans-serif" font-size="13" lengthAdjust="spacing" textLength="115" x="368" y="189.0169">Retrieve User Data</text><polygon fill="#181818" points="372,231.398,362,235.398,372,239.398,368,235.398" style="stroke:#181818;stroke-width:1.0;"/><line style="stroke:#181818;stroke-width:1.0;stroke-dasharray:2.0,2.0;" x1="366" x2="499" y1="235.398" y2="235.398"/><text fill="#000000" font-family="sans-serif" font-size="13" lengthAdjust="spacing" textLength="59" x="378" y="225.156">User Data</text><polygon fill="#181818" points="236,267.537,226,271.537,236,275.537,232,271.537" style="stroke:#181818;stroke-width:1.0;"/><line style="stroke:#181818;stroke-width:1.0;stroke-dasharray:2.0,2.0;" x1="230" x2="355" y1="271.537" y2="271.537"/><text fill="#000000" font-family="sans-serif" font-size="13" lengthAdjust="spacing" textLength="90" x="242" y="261.295">User Validated</text><polygon fill="#181818" points="34,303.676,24,307.676,34,311.676,30,307.676" style="stroke:#181818;stroke-width:1.0;"/><line style="stroke:#181818;stroke-width:1.0;stroke-dasharray:2.0,2.0;" x1="28" x2="219" y1="307.676" y2="307.676"/><text fill="#000000" font-family="sans-serif" font-size="13" lengthAdjust="spacing" textLength="93" x="40" y="297.434">Access Granted</text><polygon fill="#181818" points="203,339.815,213,343.815,203,347.815,207,343.815" style="stroke:#181818;stroke-width:1.0;"/><line style="stroke:#181818;stroke-width:1.0;" x1="23" x2="209" y1="343.815" y2="343.815"/><text fill="#000000" font-family="sans-serif" font-size="13" lengthAdjust="spacing" textLength="85" x="30" y="333.573">Send Message</text><polygon fill="#181818" points="339,375.954,349,379.954,339,383.954,343,379.954" style="stroke:#181818;stroke-width:1.0;"/><line style="stroke:#181818;stroke-width:1.0;" x1="225" x2="345" y1="379.954" y2="379.954"/><text fill="#000000" font-family="sans-serif" font-size="13" lengthAdjust="spacing" textLength="102" x="232" y="369.712">Process Message</text><polygon fill="#181818" points="483,412.0931,493,416.0931,483,420.0931,487,416.0931" style="stroke:#181818;stroke-width:1.0;"/><line style="stroke:#181818;stroke-width:1.0;" x1="361" x2="489" y1="416.0931" y2="416.0931"/><text fill="#000000" font-family="sans-serif" font-size="13" lengthAdjust="spacing" textLength="88" x="368" y="405.8511">Store Message</text><polygon fill="#181818" points="372,448.2321,362,452.2321,372,456.2321,368,452.2321" style="stroke:#181818;stroke-width:1.0;"/><line style="stroke:#181818;stroke-width:1.0;stroke-dasharray:2.0,2.0;" x1="366" x2="499" y1="452.2321" y2="452.2321"/><text fill="#000000" font-family="sans-serif" font-size="13" lengthAdjust="spacing" textLength="96" x="378" y="441.9901">Message Stored</text><polygon fill="#181818" points="236,484.3711,226,488.3711,236,492.3711,232,488.3711" style="stroke:#181818;stroke-width:1.0;"/><line style="stroke:#181818;stroke-width:1.0;stroke-dasharray:2.0,2.0;" x1="230" x2="355" y1="488.3711" y2="488.3711"/><text fill="#000000" font-family="sans-serif" font-size="13" lengthAdjust="spacing" textLength="82" x="242" y="478.1291">Message Sent</text><polygon fill="#181818" points="34,520.5101,24,524.5101,34,528.5101,30,524.5101" style="stroke:#181818;stroke-width:1.0;"/><line style="stroke:#181818;stroke-width:1.0;stroke-dasharray:2.0,2.0;" x1="28" x2="219" y1="524.5101" y2="524.5101"/><text fill="#000000" font-family="sans-serif" font-size="13" lengthAdjust="spacing" textLength="168" x="40" y="514.2681">Message Sent Confirmation</text><polygon fill="#181818" points="203,556.6491,213,560.6491,203,564.6491,207,560.6491" style="stroke:#181818;stroke-width:1.0;"/><line style="stroke:#181818;stroke-width:1.0;" x1="23" x2="209" y1="560.6491" y2="560.6491"/><text fill="#000000" font-family="sans-serif" font-size="13" lengthAdjust="spacing" textLength="86" x="30" y="550.4071">Read Message</text><polygon fill="#181818" points="339,592.7882,349,596.7882,339,600.7882,343,596.7882" style="stroke:#181818;stroke-width:1.0;"/><line style="stroke:#181818;stroke-width:1.0;" x1="225" x2="345" y1="596.7882" y2="596.7882"/><text fill="#000000" font-family="sans-serif" font-size="13" lengthAdjust="spacing" textLength="89" x="232" y="586.5462">Fetch Message</text><polygon fill="#181818" points="483,628.9272,493,632.9272,483,636.9272,487,632.9272" style="stroke:#181818;stroke-width:1.0;"/><line style="stroke:#181818;stroke-width:1.0;" x1="361" x2="489" y1="632.9272" y2="632.9272"/><text fill="#000000" font-family="sans-serif" font-size="13" lengthAdjust="spacing" textLength="108" x="368" y="622.6852">Retrieve Message</text><polygon fill="#181818" points="372,665.0662,362,669.0662,372,673.0662,368,669.0662" style="stroke:#181818;stroke-width:1.0;"/><line style="stroke:#181818;stroke-width:1.0;stroke-dasharray:2.0,2.0;" x1="366" x2="499" y1="669.0662" y2="669.0662"/><text fill="#000000" font-family="sans-serif" font-size="13" lengthAdjust="spacing" textLength="83" x="378" y="658.8242">Message Data</text><polygon fill="#181818" points="236,701.2052,226,705.2052,236,709.2052,232,705.2052" style="stroke:#181818;stroke-width:1.0;"/><line style="stroke:#181818;stroke-width:1.0;stroke-dasharray:2.0,2.0;" x1="230" x2="355" y1="705.2052" y2="705.2052"/><text fill="#000000" font-family="sans-serif" font-size="13" lengthAdjust="spacing" textLength="100" x="242" y="694.9632">Display Message</text><polygon fill="#181818" points="34,737.3442,24,741.3442,34,745.3442,30,741.3442" style="stroke:#181818;stroke-width:1.0;"/><line style="stroke:#181818;stroke-width:1.0;stroke-dasharray:2.0,2.0;" x1="28" x2="219" y1="741.3442" y2="741.3442"/><text fill="#000000" font-family="sans-serif" font-size="13" lengthAdjust="spacing" textLength="52" x="40" y="731.1022">Message</text><polygon fill="#181818" points="203,773.4833,213,777.4833,203,781.4833,207,777.4833" style="stroke:#181818;stroke-width:1.0;"/><line style="stroke:#181818;stroke-width:1.0;" x1="23" x2="209" y1="777.4833" y2="777.4833"/><text fill="#000000" font-family="sans-serif" font-size="13" lengthAdjust="spacing" textLength="44" x="30" y="767.2413">Logout</text><polygon fill="#181818" points="339,809.6223,349,813.6223,339,817.6223,343,813.6223" style="stroke:#181818;stroke-width:1.0;"/><line style="stroke:#181818;stroke-width:1.0;" x1="225" x2="345" y1="813.6223" y2="813.6223"/><text fill="#000000" font-family="sans-serif" font-size="13" lengthAdjust="spacing" textLength="75" x="232" y="803.3803">Logout User</text><polygon fill="#181818" points="236,845.7613,226,849.7613,236,853.7613,232,849.7613" style="stroke:#181818;stroke-width:1.0;"/><line style="stroke:#181818;stroke-width:1.0;stroke-dasharray:2.0,2.0;" x1="230" x2="355" y1="849.7613" y2="849.7613"/><text fill="#000000" font-family="sans-serif" font-size="13" lengthAdjust="spacing" textLength="102" x="242" y="839.5193">User Logged Out</text><polygon fill="#181818" points="34,881.9003,24,885.9003,34,889.9003,30,885.9003" style="stroke:#181818;stroke-width:1.0;"/><line style="stroke:#181818;stroke-width:1.0;stroke-dasharray:2.0,2.0;" x1="28" x2="219" y1="885.9003" y2="885.9003"/><text fill="#000000" font-family="sans-serif" font-size="13" lengthAdjust="spacing" textLength="130" x="40" y="875.6583">Logout Confirmation</text><!--SRC=[ZPBFReCm38VlF8N5lI_GmwGnjAaIqwPMtTrBN1Qf2oWnbVRsSyAVmZgWDnH__Eml3Ygk71mzkQH6nqQP6Yr36avWPvdS2HMbW1wEkocIDTvOyXwAgZGg8bcHQ6JyH4-GvjrNhEHPaiJCpOC4mJR-P1DKR2x85CBbM8fP8SKFF1iTZyDW0oJnKXOepmJQ4pj3bnQ2qErAIZjXDdtUbT0qPa9QFr1a-iPw34hRC5i00xE5HwM2zukJUvYYeZ7LF93Ly2eqbZHd- -wgc7U3JNqFiYcwXVweTlMMrWk-0qYM5st783nLzcJSDxAfxABudd1L_9bOVQrf3sk-rtnbpxdnzHb_XhWxr1T5vI5N3SyfjjN_t_7avGbOaeQtPdaPNTxy6du1]--></g></svg>