<?xml version="1.0" encoding="us-ascii" standalone="no"?><svg xmlns="http://www.w3.org/2000/svg" xmlns:xlink="http://www.w3.org/1999/xlink" contentStyleType="text/css" height="451px" preserveAspectRatio="none" style="width:401px;height:451px;background:#FFFFFF;" version="1.1" viewBox="0 0 401 451" width="401px" zoomAndPan="magnify"><defs/><g><ellipse cx="206.75" cy="20" fill="#222222" rx="10" ry="10" style="stroke:#222222;stroke-width:1.0;"/><rect fill="#F1F1F1" height="40.4361" rx="12.5" ry="12.5" style="stroke:#181818;stroke-width:0.5;" width="98" x="157.75" y="50"/><text fill="#000000" font-family="sans-serif" font-size="12" lengthAdjust="spacing" textLength="78" x="167.75" y="72.8281">Admin logs in</text><polygon fill="#F1F1F1" points="158.75,112.643,254.75,112.643,266.75,124.643,254.75,136.643,158.75,136.643,146.75,124.643,158.75,112.643" style="stroke:#181818;stroke-width:0.5;"/><text fill="#000000" font-family="sans-serif" font-size="11" lengthAdjust="spacing" textLength="96" x="158.75" y="127.0354">Is login successful?</text><text fill="#000000" font-family="sans-serif" font-size="11" lengthAdjust="spacing" textLength="17" x="129.75" y="117.669">yes</text><text fill="#000000" font-family="sans-serif" font-size="11" lengthAdjust="spacing" textLength="13" x="266.75" y="117.669">no</text><rect fill="#F1F1F1" height="40.4361" rx="12.5" ry="12.5" style="stroke:#181818;stroke-width:0.5;" width="192" x="11" y="146.643"/><text fill="#000000" font-family="sans-serif" font-size="12" lengthAdjust="spacing" textLength="172" x="21" y="169.471">Admin is on admin dashboard</text><rect fill="#F1F1F1" height="40.4361" rx="12.5" ry="12.5" style="stroke:#181818;stroke-width:0.5;" width="168" x="23" y="207.0791"/><text fill="#000000" font-family="sans-serif" font-size="12" lengthAdjust="spacing" textLength="148" x="33" y="229.9072">Admin searches for a user</text><rect fill="#F1F1F1" height="40.4361" rx="12.5" ry="12.5" style="stroke:#181818;stroke-width:0.5;" width="148" x="33" y="267.5152"/><text fill="#000000" font-family="sans-serif" font-size="12" lengthAdjust="spacing" textLength="128" x="43" y="290.3433">Admin deletes the user</text><rect fill="#F1F1F1" height="40.4361" rx="12.5" ry="12.5" style="stroke:#181818;stroke-width:0.5;" width="167" x="223" y="146.643"/><text fill="#000000" font-family="sans-serif" font-size="12" lengthAdjust="spacing" textLength="147" x="233" y="169.471">Admin tries to login again</text><polygon fill="#F1F1F1" points="206.75,313.9514,218.75,325.9514,206.75,337.9514,194.75,325.9514,206.75,313.9514" style="stroke:#181818;stroke-width:0.5;"/><rect fill="#F1F1F1" height="40.4361" rx="12.5" ry="12.5" style="stroke:#181818;stroke-width:0.5;" width="105" x="154.25" y="357.9514"/><text fill="#000000" font-family="sans-serif" font-size="12" lengthAdjust="spacing" textLength="85" x="164.25" y="380.7795">Admin logs out</text><ellipse cx="206.75" cy="429.3875" fill="none" rx="11" ry="11" style="stroke:#222222;stroke-width:1.0;"/><ellipse cx="206.75" cy="429.3875" fill="#222222" rx="6" ry="6" style="stroke:#222222;stroke-width:1.0;"/><line style="stroke:#181818;stroke-width:1.0;" x1="206.75" x2="206.75" y1="30" y2="50"/><polygon fill="#181818" points="202.75,40,206.75,50,210.75,40,206.75,44" style="stroke:#181818;stroke-width:1.0;"/><line style="stroke:#181818;stroke-width:1.0;" x1="107" x2="107" y1="187.0791" y2="207.0791"/><polygon fill="#181818" points="103,197.0791,107,207.0791,111,197.0791,107,201.0791" style="stroke:#181818;stroke-width:1.0;"/><line style="stroke:#181818;stroke-width:1.0;" x1="107" x2="107" y1="247.5152" y2="267.5152"/><polygon fill="#181818" points="103,257.5152,107,267.5152,111,257.5152,107,261.5152" style="stroke:#181818;stroke-width:1.0;"/><line style="stroke:#181818;stroke-width:1.0;" x1="146.75" x2="107" y1="124.643" y2="124.643"/><line style="stroke:#181818;stroke-width:1.0;" x1="107" x2="107" y1="124.643" y2="146.643"/><polygon fill="#181818" points="103,136.643,107,146.643,111,136.643,107,140.643" style="stroke:#181818;stroke-width:1.0;"/><line style="stroke:#181818;stroke-width:1.0;" x1="266.75" x2="306.5" y1="124.643" y2="124.643"/><line style="stroke:#181818;stroke-width:1.0;" x1="306.5" x2="306.5" y1="124.643" y2="146.643"/><polygon fill="#181818" points="302.5,136.643,306.5,146.643,310.5,136.643,306.5,140.643" style="stroke:#181818;stroke-width:1.0;"/><line style="stroke:#181818;stroke-width:1.0;" x1="107" x2="107" y1="307.9514" y2="325.9514"/><line style="stroke:#181818;stroke-width:1.0;" x1="107" x2="194.75" y1="325.9514" y2="325.9514"/><polygon fill="#181818" points="184.75,321.9514,194.75,325.9514,184.75,329.9514,188.75,325.9514" style="stroke:#181818;stroke-width:1.0;"/><line style="stroke:#181818;stroke-width:1.0;" x1="306.5" x2="306.5" y1="187.0791" y2="325.9514"/><line style="stroke:#181818;stroke-width:1.0;" x1="306.5" x2="218.75" y1="325.9514" y2="325.9514"/><polygon fill="#181818" points="228.75,321.9514,218.75,325.9514,228.75,329.9514,224.75,325.9514" style="stroke:#181818;stroke-width:1.0;"/><line style="stroke:#181818;stroke-width:1.0;" x1="206.75" x2="206.75" y1="90.4361" y2="112.643"/><polygon fill="#181818" points="202.75,102.643,206.75,112.643,210.75,102.643,206.75,106.643" style="stroke:#181818;stroke-width:1.0;"/><line style="stroke:#181818;stroke-width:1.0;" x1="206.75" x2="206.75" y1="337.9514" y2="357.9514"/><polygon fill="#181818" points="202.75,347.9514,206.75,357.9514,210.75,347.9514,206.75,351.9514" style="stroke:#181818;stroke-width:1.0;"/><line style="stroke:#181818;stroke-width:1.0;" x1="206.75" x2="206.75" y1="398.3875" y2="418.3875"/><polygon fill="#181818" points="202.75,408.3875,206.75,418.3875,210.75,408.3875,206.75,412.3875" style="stroke:#181818;stroke-width:1.0;"/><!--SRC=[LOyn3iCm24Ltdu8nkK8pL1rx36hZs99hAdyyzFPr8WyD4_0-y85nCtTxX7UkL7G7vRgv76bvugX75zrx0M8lzvKiIQNbArWTZPY36QIL-Cm38xsKMzZ-5H1kFWaeQYEc3caN7gI83JpsJoW5GalLoo5h-H3fjCOx7tQbXXmlJsYtpS7qymC0]--></g></svg>