<?xml version="1.0" encoding="us-ascii" standalone="no"?><svg xmlns="http://www.w3.org/2000/svg" xmlns:xlink="http://www.w3.org/1999/xlink" contentStyleType="text/css" height="1295px" preserveAspectRatio="none" style="width:436px;height:1295px;background:#FFFFFF;" version="1.1" viewBox="0 0 436 1295" width="436px" zoomAndPan="magnify"><defs/><g><!--cluster Messaging Website--><g id="cluster_Messaging Website"><rect fill="none" height="1278" rx="2.5" ry="2.5" style="stroke:#181818;stroke-width:1.0;" width="335" x="95" y="11.376"/><text fill="#000000" font-family="sans-serif" font-size="14" font-weight="bold" lengthAdjust="spacing" textLength="134" x="195.5" y="28.3419">Messaging Website</text></g><g id="elem_Sign Up"><ellipse cx="262.6339" cy="662.3488" fill="#F1F1F1" rx="53.1339" ry="21.9728" style="stroke:#181818;stroke-width:0.5;"/><text fill="#000000" font-family="sans-serif" font-size="14" lengthAdjust="spacing" textLength="51" x="234.1339" y="667.0818">Sign Up</text></g><g id="elem_Login"><ellipse cx="262.4402" cy="741.1826" fill="#F1F1F1" rx="42.4402" ry="21.8066" style="stroke:#181818;stroke-width:0.5;"/><text fill="#000000" font-family="sans-serif" font-size="14" lengthAdjust="spacing" textLength="38" x="240.4402" y="745.9155">Login</text></g><g id="elem_Send Text Message"><ellipse cx="262.7483" cy="503.6256" fill="#F1F1F1" rx="104.2483" ry="23.2497" style="stroke:#181818;stroke-width:0.5;"/><text fill="#000000" font-family="sans-serif" font-size="14" lengthAdjust="spacing" textLength="123" x="198.2483" y="508.3586">Send Text Message</text></g><g id="elem_Send Images"><ellipse cx="262.4753" cy="583.5688" fill="#F1F1F1" rx="79.4753" ry="22.1928" style="stroke:#181818;stroke-width:0.5;"/><text fill="#000000" font-family="sans-serif" font-size="14" lengthAdjust="spacing" textLength="83" x="217.9753" y="588.3017">Send Images</text></g><g id="elem_Search For Messages"><ellipse cx="262.5081" cy="77.4776" fill="#F1F1F1" rx="108.5081" ry="24.1016" style="stroke:#181818;stroke-width:0.5;"/><text fill="#000000" font-family="sans-serif" font-size="14" lengthAdjust="spacing" textLength="136" x="191.5081" y="82.2106">Search For Messages</text></g><g id="elem_Delete Messages"><ellipse cx="262.2678" cy="900.1484" fill="#F1F1F1" rx="96.7678" ry="22.2724" style="stroke:#181818;stroke-width:0.5;"/><text fill="#000000" font-family="sans-serif" font-size="14" lengthAdjust="spacing" textLength="104" x="207.2678" y="904.8814">Delete Messages</text></g><g id="elem_Read Message in Group Chat"><ellipse cx="262.6097" cy="164.1979" fill="#F1F1F1" rx="127.1097" ry="27.8219" style="stroke:#181818;stroke-width:0.5;"/><text fill="#000000" font-family="sans-serif" font-size="14" lengthAdjust="spacing" textLength="187" x="166.1097" y="168.9309">Read Message in Group Chat</text></g><g id="elem_Change Profile Picture"><ellipse cx="262.4356" cy="252.1631" fill="#F1F1F1" rx="111.9356" ry="24.7871" style="stroke:#181818;stroke-width:0.5;"/><text fill="#000000" font-family="sans-serif" font-size="14" lengthAdjust="spacing" textLength="146" x="186.4356" y="256.896">Change Profile Picture</text></g><g id="elem_Update Profile Information"><ellipse cx="262.644" cy="339.5048" fill="#F1F1F1" rx="123.644" ry="27.1288" style="stroke:#181818;stroke-width:0.5;"/><text fill="#000000" font-family="sans-serif" font-size="14" lengthAdjust="spacing" textLength="178" x="170.644" y="344.2377">Update Profile Information</text></g><g id="elem_Edit Messages"><ellipse cx="262.5626" cy="423.6029" fill="#F1F1F1" rx="86.0626" ry="22.2269" style="stroke:#181818;stroke-width:0.5;"/><text fill="#000000" font-family="sans-serif" font-size="14" lengthAdjust="spacing" textLength="91" x="214.0626" y="428.3358">Edit Messages</text></g><g id="elem_Logout"><ellipse cx="262.3428" cy="820.3051" fill="#F1F1F1" rx="49.8428" ry="21.9292" style="stroke:#181818;stroke-width:0.5;"/><text fill="#000000" font-family="sans-serif" font-size="14" lengthAdjust="spacing" textLength="47" x="235.8428" y="825.0381">Logout</text></g><g id="elem_Ban/Unban Users"><ellipse cx="262.4427" cy="1250.5645" fill="#F1F1F1" rx="101.4427" ry="22.6885" style="stroke:#181818;stroke-width:0.5;"/><text fill="#000000" font-family="sans-serif" font-size="14" lengthAdjust="spacing" textLength="114" x="202.4427" y="1255.2975">Ban/Unban Users</text></g><g id="elem_Delete Users"><ellipse cx="262.6819" cy="980.5495" fill="#F1F1F1" rx="76.1819" ry="22.1736" style="stroke:#181818;stroke-width:0.5;"/><text fill="#000000" font-family="sans-serif" font-size="14" lengthAdjust="spacing" textLength="79" x="220.1819" y="985.2825">Delete Users</text></g><g id="elem_Update Application Content"><ellipse cx="262.5611" cy="1065.3882" fill="#F1F1F1" rx="125.5611" ry="27.5122" style="stroke:#181818;stroke-width:0.5;"/><text fill="#000000" font-family="sans-serif" font-size="14" lengthAdjust="spacing" textLength="183" x="168.0611" y="1070.1211">Update Application Content</text></g><g id="elem_View System Statistics in a Dashboard"><ellipse cx="262.6379" cy="1160.6035" fill="#F1F1F1" rx="151.6379" ry="32.7276" style="stroke:#181818;stroke-width:0.5;"/><text fill="#000000" font-family="sans-serif" font-size="14" lengthAdjust="spacing" textLength="247" x="136.1379" y="1165.3365">View System Statistics in a Dashboard</text></g><!--entity User--><g id="elem_User"><ellipse cx="28.5" cy="469.876" fill="#F1F1F1" rx="8" ry="8" style="stroke:#181818;stroke-width:0.5;"/><path d="M28.5,477.876 L28.5,504.876 M15.5,485.876 L41.5,485.876 M28.5,504.876 L15.5,519.876 M28.5,504.876 L41.5,519.876 " fill="none" style="stroke:#181818;stroke-width:0.5;"/><text fill="#000000" font-family="sans-serif" font-size="14" lengthAdjust="spacing" textLength="30" x="13.5" y="536.3419">User</text></g><!--entity Admin--><g id="elem_Admin"><ellipse cx="28.5" cy="906.876" fill="#F1F1F1" rx="8" ry="8" style="stroke:#181818;stroke-width:0.5;"/><path d="M28.5,914.876 L28.5,941.876 M15.5,922.876 L41.5,922.876 M28.5,941.876 L15.5,956.876 M28.5,941.876 L41.5,956.876 " fill="none" style="stroke:#181818;stroke-width:0.5;"/><text fill="#000000" font-family="sans-serif" font-size="14" lengthAdjust="spacing" textLength="45" x="6" y="973.3419">Admin</text></g><!--link User to Sign Up--><g id="link_User_Sign Up"><path d="M39.85,545.636 C48.33,571.506 62.96,603.206 87,622.376 C121.63,649.986 165.7964,658.8027 203.4564,661.5927 " fill="none" id="User-to-Sign Up" style="stroke:#181818;stroke-width:1.0;"/><polygon fill="#181818" points="209.44,662.036,200.7601,657.382,204.4537,661.6666,200.1691,665.3601,209.44,662.036" style="stroke:#181818;stroke-width:1.0;"/></g><!--link User to Login--><g id="link_User_Login"><path d="M29.88,545.686 C32.65,590.726 44.19,660.946 87,701.376 C122.7,735.096 174.8109,742.322 214.0609,743.002 " fill="none" id="User-to-Login" style="stroke:#181818;stroke-width:1.0;"/><polygon fill="#181818" points="220.06,743.106,211.1306,738.9507,215.0608,743.0194,210.9921,746.9495,220.06,743.106" style="stroke:#181818;stroke-width:1.0;"/></g><!--link User to Send Text Message--><g id="link_User_Send Text Message"><path d="M43.66,503.376 C66.59,503.376 107.76,503.376 152.36,503.376 " fill="none" id="User-to-Send Text Message" style="stroke:#181818;stroke-width:1.0;"/><polygon fill="#181818" points="158.36,503.376,149.36,499.376,153.36,503.376,149.36,507.376,158.36,503.376" style="stroke:#181818;stroke-width:1.0;"/></g><!--link User to Send Images--><g id="link_User_Send Images"><path d="M43.69,515.576 C54.79,524.516 70.99,536.286 87,543.376 C119.83,557.906 152.6529,566.3596 185.2729,572.4796 " fill="none" id="User-to-Send Images" style="stroke:#181818;stroke-width:1.0;"/><polygon fill="#181818" points="191.17,573.586,183.0619,567.995,186.2557,572.664,181.5867,575.8578,191.17,573.586" style="stroke:#181818;stroke-width:1.0;"/></g><!--link User to Search For Messages--><g id="link_User_Search For Messages"><path d="M30.02,461.296 C32.02,372.016 41.57,167.716 87,118.376 C104.81,99.026 124.044,89.3794 149.634,83.2694 " fill="none" id="User-to-Search For Messages" style="stroke:#181818;stroke-width:1.0;"/><polygon fill="#181818" points="155.47,81.876,145.7871,80.0755,150.6067,83.0371,147.645,87.8567,155.47,81.876" style="stroke:#181818;stroke-width:1.0;"/></g><!--link User to Delete Messages--><g id="link_User_Delete Messages"><path d="M30.6,545.476 C33.69,629.656 45.17,814.486 87,859.376 C107.26,881.116 130.7967,891.2195 159.7267,896.7495 " fill="none" id="User-to-Delete Messages" style="stroke:#181818;stroke-width:1.0;"/><polygon fill="#181818" points="165.62,897.876,157.5311,892.2573,160.7089,896.9372,156.029,900.1151,165.62,897.876" style="stroke:#181818;stroke-width:1.0;"/></g><!--link User to Read Message in Group Chat--><g id="link_User_Read Message in Group Chat"><path d="M32.3,461.136 C37.97,388.726 53.25,245.186 87,209.376 C102.56,192.866 117.5857,183.9354 139.3257,176.9754 " fill="none" id="User-to-Read Message in Group Chat" style="stroke:#181818;stroke-width:1.0;"/><polygon fill="#181818" points="145.04,175.146,135.2489,174.0806,140.2781,176.6705,137.6882,181.6996,145.04,175.146" style="stroke:#181818;stroke-width:1.0;"/></g><!--link User to Change Profile Picture--><g id="link_User_Change Profile Picture"><path d="M29.15,461.006 C31.14,413.716 41.85,338.096 87,294.376 C105.36,276.606 124.0461,267.3887 148.8661,261.0587 " fill="none" id="User-to-Change Profile Picture" style="stroke:#181818;stroke-width:1.0;"/><polygon fill="#181818" points="154.68,259.576,144.9706,257.9242,149.8351,260.8116,146.9477,265.676,154.68,259.576" style="stroke:#181818;stroke-width:1.0;"/></g><!--link User to Update Profile Information--><g id="link_User_Update Profile Information"><path d="M39.81,461.236 C48.3,435.176 62.95,403.046 87,383.376 C105.5,368.246 122.7598,359.8707 145.9498,353.2607 " fill="none" id="User-to-Update Profile Information" style="stroke:#181818;stroke-width:1.0;"/><polygon fill="#181818" points="151.72,351.616,141.9683,350.2362,146.9115,352.9866,144.1612,357.9298,151.72,351.616" style="stroke:#181818;stroke-width:1.0;"/></g><!--link User to Edit Messages--><g id="link_User_Edit Messages"><path d="M43.63,490.826 C54.7,481.646 70.88,469.566 87,462.376 C118.04,448.526 148.5532,440.4938 180.0632,434.5738 " fill="none" id="User-to-Edit Messages" style="stroke:#181818;stroke-width:1.0;"/><polygon fill="#181818" points="185.96,433.466,176.3762,431.1966,181.046,434.3892,177.8533,439.059,185.96,433.466" style="stroke:#181818;stroke-width:1.0;"/></g><!--link User to Logout--><g id="link_User_Logout"><path d="M32.75,545.476 C38.95,614.536 54.82,747.526 87,780.376 C119.41,813.456 167.202,821.4319 206.512,822.4419 " fill="none" id="User-to-Logout" style="stroke:#181818;stroke-width:1.0;"/><polygon fill="#181818" points="212.51,822.596,203.6157,818.3661,207.5116,822.4675,203.4102,826.3635,212.51,822.596" style="stroke:#181818;stroke-width:1.0;"/></g><!--link Admin to Sign Up--><g id="link_Admin_Sign Up"><path d="M34.26,898.336 C42.03,837.326 59.39,728.536 87,701.376 C119.09,669.806 164.8133,661.6837 203.6333,660.4037 " fill="none" id="Admin-to-Sign Up" style="stroke:#181818;stroke-width:1.0;"/><polygon fill="#181818" points="209.63,660.206,200.5031,656.5047,204.6327,660.3707,200.7667,664.5004,209.63,660.206" style="stroke:#181818;stroke-width:1.0;"/></g><!--link Admin to Login--><g id="link_Admin_Login"><path d="M33.49,898.026 C39.21,861.566 53.13,810.246 87,780.376 C123.55,748.136 174.9015,740.9117 213.7915,740.0317 " fill="none" id="Admin-to-Login" style="stroke:#181818;stroke-width:1.0;"/><polygon fill="#181818" points="219.79,739.896,210.7018,736.1006,214.7913,740.0091,210.8828,744.0985,219.79,739.896" style="stroke:#181818;stroke-width:1.0;"/></g><!--link Admin to Ban/Unban Users--><g id="link_Admin_Ban/Unban Users"><path d="M33.01,982.506 C39.5,1050.136 55.69,1178.576 87,1210.376 C106.73,1230.416 128.4446,1240.0693 155.8746,1245.7493 " fill="none" id="Admin-to-Ban/Unban Users" style="stroke:#181818;stroke-width:1.0;"/><polygon fill="#181818" points="161.75,1246.966,153.748,1241.2241,156.8539,1245.9521,152.1259,1249.0579,161.75,1246.966" style="stroke:#181818;stroke-width:1.0;"/></g><!--link Admin to Delete Users--><g id="link_Admin_Delete Users"><path d="M51.33,944.136 C84.26,949.816 142.0771,959.7871 190.7671,968.1771 " fill="none" id="Admin-to-Delete Users" style="stroke:#181818;stroke-width:1.0;"/><polygon fill="#181818" points="196.68,969.196,188.49,963.7257,191.7526,968.3469,187.1315,971.6096,196.68,969.196" style="stroke:#181818;stroke-width:1.0;"/></g><!--link Admin to Delete Messages--><g id="link_Admin_Delete Messages"><path d="M51.33,936.616 C81.5,931.406 131.5973,922.7757 178.2173,914.7357 " fill="none" id="Admin-to-Delete Messages" style="stroke:#181818;stroke-width:1.0;"/><polygon fill="#181818" points="184.13,913.716,174.5811,911.3037,179.2027,914.5657,175.9407,919.1873,184.13,913.716" style="stroke:#181818;stroke-width:1.0;"/></g><!--link Admin to Update Application Content--><g id="link_Admin_Update Application Content"><path d="M51.11,980.736 C60.45,994.796 72.58,1009.516 87,1019.376 C107.82,1033.606 127.0185,1041.8317 151.4885,1048.6217 " fill="none" id="Admin-to-Update Application Content" style="stroke:#181818;stroke-width:1.0;"/><polygon fill="#181818" points="157.27,1050.226,149.6672,1043.9652,152.452,1048.8891,147.5282,1051.6739,157.27,1050.226" style="stroke:#181818;stroke-width:1.0;"/></g><!--link Admin to View System Statistics in a Dashboard--><g id="link_Admin_View System Statistics in a Dashboard"><path d="M32.87,982.576 C38.17,1021.036 51.83,1076.826 87,1110.376 C101.48,1124.186 113.9099,1132.0723 132.8399,1139.3523 " fill="none" id="Admin-to-View System Statistics in a Dashboard" style="stroke:#181818;stroke-width:1.0;"/><polygon fill="#181818" points="138.44,1141.506,131.4756,1134.542,133.7732,1139.7112,128.604,1142.0089,138.44,1141.506" style="stroke:#181818;stroke-width:1.0;"/></g><!--link Admin to Logout--><g id="link_Admin_Logout"><path d="M51.11,898.836 C60.39,884.696 72.47,870.036 87,860.376 C124.54,835.436 169.5575,826.4896 206.7275,822.9196 " fill="none" id="Admin-to-Logout" style="stroke:#181818;stroke-width:1.0;"/><polygon fill="#181818" points="212.7,822.346,203.3588,819.2247,207.7229,822.824,204.1236,827.1881,212.7,822.346" style="stroke:#181818;stroke-width:1.0;"/></g><!--SRC=[VP51IyGm48Nl_HN3dlIm-0-4TLTbOON5MZrFasaxq4vACaL5_E-cjM9jTyqflEzDUFDIKw6W3ZoNbO9bJqRPIO96dOSia1-l6zkm94dFKSgQOFL08M39Ki8BvO6LLl2HG3pz5ApNrt2HSYcGjPSp-U3Ys5nCIImyqPl2zyDqqh1l8WbBXDvKS1TpZiCBouvgKZgB7mdj3mGMkFUkQs5ReSwTKPFeENfNSApXo4OxlmYRjHRrrxMNmla6-shdpblBUZPMRCfrCS8W3rzmejY9FcbsejwWN6MIemmlXmKVk_aN_aquuUEccxQjsGmRmjQ9akZ2-ipq2kbxK6eWrUWDoYRqTIFiC5IvGszFxJHqyFa5]--></g></svg>