<?xml version="1.0" encoding="us-ascii" standalone="no"?><svg xmlns="http://www.w3.org/2000/svg" xmlns:xlink="http://www.w3.org/1999/xlink" contentStyleType="text/css" height="511px" preserveAspectRatio="none" style="width:363px;height:511px;background:#FFFFFF;" version="1.1" viewBox="0 0 363 511" width="363px" zoomAndPan="magnify"><defs/><g><ellipse cx="184.25" cy="20" fill="#222222" rx="10" ry="10" style="stroke:#222222;stroke-width:1.0;"/><rect fill="#F1F1F1" height="40.4361" rx="12.5" ry="12.5" style="stroke:#181818;stroke-width:0.5;" width="86" x="141.25" y="50"/><text fill="#000000" font-family="sans-serif" font-size="12" lengthAdjust="spacing" textLength="66" x="151.25" y="72.8281">User logs in</text><polygon fill="#F1F1F1" points="136.25,112.643,232.25,112.643,244.25,124.643,232.25,136.643,136.25,136.643,124.25,124.643,136.25,112.643" style="stroke:#181818;stroke-width:0.5;"/><text fill="#000000" font-family="sans-serif" font-size="11" lengthAdjust="spacing" textLength="96" x="136.25" y="127.0354">Is login successful?</text><text fill="#000000" font-family="sans-serif" font-size="11" lengthAdjust="spacing" textLength="17" x="107.25" y="117.669">yes</text><text fill="#000000" font-family="sans-serif" font-size="11" lengthAdjust="spacing" textLength="13" x="244.25" y="117.669">no</text><rect fill="#F1F1F1" height="40.4361" rx="12.5" ry="12.5" style="stroke:#181818;stroke-width:0.5;" width="140" x="24" y="146.643"/><text fill="#000000" font-family="sans-serif" font-size="12" lengthAdjust="spacing" textLength="120" x="34" y="169.471">User is on home page</text><rect fill="#F1F1F1" height="40.4361" rx="12.5" ry="12.5" style="stroke:#181818;stroke-width:0.5;" width="166" x="11" y="207.0791"/><text fill="#000000" font-family="sans-serif" font-size="12" lengthAdjust="spacing" textLength="146" x="21" y="229.9072">User starts a new message</text><rect fill="#F1F1F1" height="40.4361" rx="12.5" ry="12.5" style="stroke:#181818;stroke-width:0.5;" width="161" x="13.5" y="267.5152"/><text fill="#000000" font-family="sans-serif" font-size="12" lengthAdjust="spacing" textLength="141" x="23.5" y="290.3433">User adds an attachment</text><rect fill="#F1F1F1" height="40.4361" rx="12.5" ry="12.5" style="stroke:#181818;stroke-width:0.5;" width="150" x="19" y="327.9514"/><text fill="#000000" font-family="sans-serif" font-size="12" lengthAdjust="spacing" textLength="130" x="29" y="350.7795">User sends the message</text><rect fill="#F1F1F1" height="40.4361" rx="12.5" ry="12.5" style="stroke:#181818;stroke-width:0.5;" width="155" x="197" y="146.643"/><text fill="#000000" font-family="sans-serif" font-size="12" lengthAdjust="spacing" textLength="135" x="207" y="169.471">User tries to login again</text><polygon fill="#F1F1F1" points="184.25,374.3875,196.25,386.3875,184.25,398.3875,172.25,386.3875,184.25,374.3875" style="stroke:#181818;stroke-width:0.5;"/><rect fill="#F1F1F1" height="40.4361" rx="12.5" ry="12.5" style="stroke:#181818;stroke-width:0.5;" width="93" x="137.75" y="418.3875"/><text fill="#000000" font-family="sans-serif" font-size="12" lengthAdjust="spacing" textLength="73" x="147.75" y="441.2156">User logs out</text><ellipse cx="184.25" cy="489.8237" fill="none" rx="11" ry="11" style="stroke:#222222;stroke-width:1.0;"/><ellipse cx="184.25" cy="489.8237" fill="#222222" rx="6" ry="6" style="stroke:#222222;stroke-width:1.0;"/><line style="stroke:#181818;stroke-width:1.0;" x1="184.25" x2="184.25" y1="30" y2="50"/><polygon fill="#181818" points="180.25,40,184.25,50,188.25,40,184.25,44" style="stroke:#181818;stroke-width:1.0;"/><line style="stroke:#181818;stroke-width:1.0;" x1="94" x2="94" y1="187.0791" y2="207.0791"/><polygon fill="#181818" points="90,197.0791,94,207.0791,98,197.0791,94,201.0791" style="stroke:#181818;stroke-width:1.0;"/><line style="stroke:#181818;stroke-width:1.0;" x1="94" x2="94" y1="247.5152" y2="267.5152"/><polygon fill="#181818" points="90,257.5152,94,267.5152,98,257.5152,94,261.5152" style="stroke:#181818;stroke-width:1.0;"/><line style="stroke:#181818;stroke-width:1.0;" x1="94" x2="94" y1="307.9514" y2="327.9514"/><polygon fill="#181818" points="90,317.9514,94,327.9514,98,317.9514,94,321.9514" style="stroke:#181818;stroke-width:1.0;"/><line style="stroke:#181818;stroke-width:1.0;" x1="124.25" x2="94" y1="124.643" y2="124.643"/><line style="stroke:#181818;stroke-width:1.0;" x1="94" x2="94" y1="124.643" y2="146.643"/><polygon fill="#181818" points="90,136.643,94,146.643,98,136.643,94,140.643" style="stroke:#181818;stroke-width:1.0;"/><line style="stroke:#181818;stroke-width:1.0;" x1="244.25" x2="274.5" y1="124.643" y2="124.643"/><line style="stroke:#181818;stroke-width:1.0;" x1="274.5" x2="274.5" y1="124.643" y2="146.643"/><polygon fill="#181818" points="270.5,136.643,274.5,146.643,278.5,136.643,274.5,140.643" style="stroke:#181818;stroke-width:1.0;"/><line style="stroke:#181818;stroke-width:1.0;" x1="94" x2="94" y1="368.3875" y2="386.3875"/><line style="stroke:#181818;stroke-width:1.0;" x1="94" x2="172.25" y1="386.3875" y2="386.3875"/><polygon fill="#181818" points="162.25,382.3875,172.25,386.3875,162.25,390.3875,166.25,386.3875" style="stroke:#181818;stroke-width:1.0;"/><line style="stroke:#181818;stroke-width:1.0;" x1="274.5" x2="274.5" y1="187.0791" y2="386.3875"/><line style="stroke:#181818;stroke-width:1.0;" x1="274.5" x2="196.25" y1="386.3875" y2="386.3875"/><polygon fill="#181818" points="206.25,382.3875,196.25,386.3875,206.25,390.3875,202.25,386.3875" style="stroke:#181818;stroke-width:1.0;"/><line style="stroke:#181818;stroke-width:1.0;" x1="184.25" x2="184.25" y1="90.4361" y2="112.643"/><polygon fill="#181818" points="180.25,102.643,184.25,112.643,188.25,102.643,184.25,106.643" style="stroke:#181818;stroke-width:1.0;"/><line style="stroke:#181818;stroke-width:1.0;" x1="184.25" x2="184.25" y1="398.3875" y2="418.3875"/><polygon fill="#181818" points="180.25,408.3875,184.25,418.3875,188.25,408.3875,184.25,412.3875" style="stroke:#181818;stroke-width:1.0;"/><line style="stroke:#181818;stroke-width:1.0;" x1="184.25" x2="184.25" y1="458.8237" y2="478.8237"/><polygon fill="#181818" points="180.25,468.8237,184.25,478.8237,188.25,468.8237,184.25,472.8237" style="stroke:#181818;stroke-width:1.0;"/><!--SRC=[NOz13e9G34Jtd6AMS0LPkFO07g210Z-1bZ0bnjjReebeTythp7GOiaLrkLCtp3uInTgg3AXlFFPYuDvrIWxxV6qGanhgfxAfaFFM5S8Dao-ALKPjJuY7FI4mVM19cpykVP_K817IJOjQ_AZL4cVcLwep5RNvEJ-seddcduTbbAD4QijmRkPxcZDyVG40]--></g></svg>