<?xml version="1.0" encoding="us-ascii" standalone="no"?><svg xmlns="http://www.w3.org/2000/svg" xmlns:xlink="http://www.w3.org/1999/xlink" contentStyleType="text/css" height="543px" preserveAspectRatio="none" style="width:373px;height:543px;background:#FFFFFF;" version="1.1" viewBox="0 0 373 543" width="373px" zoomAndPan="magnify"><defs/><g><ellipse cx="195" cy="20" fill="#222222" rx="10" ry="10" style="stroke:#222222;stroke-width:1.0;"/><rect fill="#F1F1F1" height="40.4361" rx="12.5" ry="12.5" style="stroke:#181818;stroke-width:0.5;" width="86" x="152" y="50"/><text fill="#000000" font-family="sans-serif" font-size="12" lengthAdjust="spacing" textLength="66" x="162" y="72.8281">User logs in</text><polygon fill="#F1F1F1" points="147,112.643,243,112.643,255,124.643,243,136.643,147,136.643,135,124.643,147,112.643" style="stroke:#181818;stroke-width:0.5;"/><text fill="#000000" font-family="sans-serif" font-size="11" lengthAdjust="spacing" textLength="96" x="147" y="127.0354">Is login successful?</text><text fill="#000000" font-family="sans-serif" font-size="11" lengthAdjust="spacing" textLength="17" x="118" y="117.669">yes</text><text fill="#000000" font-family="sans-serif" font-size="11" lengthAdjust="spacing" textLength="13" x="255" y="117.669">no</text><rect fill="#F1F1F1" height="40.4361" rx="12.5" ry="12.5" style="stroke:#181818;stroke-width:0.5;" width="140" x="35.5" y="146.643"/><text fill="#000000" font-family="sans-serif" font-size="12" lengthAdjust="spacing" textLength="120" x="45.5" y="169.471">User is on home page</text><rect fill="#F1F1F1" height="40.4361" rx="12.5" ry="12.5" style="stroke:#181818;stroke-width:0.5;" width="139" x="36" y="266.5448"/><text fill="#000000" font-family="sans-serif" font-size="12" lengthAdjust="spacing" textLength="119" x="46" y="289.3729">User sends a message</text><rect fill="#F1F1F1" height="40.4361" rx="12.5" ry="12.5" style="stroke:#181818;stroke-width:0.5;" width="139" x="36" y="338.1145"/><text fill="#000000" font-family="sans-serif" font-size="12" lengthAdjust="spacing" textLength="119" x="46" y="360.9426">User reads a message</text><polygon fill="#F1F1F1" points="63.5,209.2859,147.5,209.2859,159.5,221.2859,147.5,233.2859,63.5,233.2859,51.5,221.2859,63.5,209.2859" style="stroke:#181818;stroke-width:0.5;"/><text fill="#000000" font-family="sans-serif" font-size="11" lengthAdjust="spacing" textLength="17" x="109.5" y="245.0448">yes</text><text fill="#000000" font-family="sans-serif" font-size="11" lengthAdjust="spacing" textLength="84" x="63.5" y="223.6784">User is logged in</text><text fill="#000000" font-family="sans-serif" font-size="11" lengthAdjust="spacing" textLength="13" x="38.5" y="214.312">no</text><rect fill="#F1F1F1" height="40.4361" rx="12.5" ry="12.5" style="stroke:#181818;stroke-width:0.5;" width="155" x="207" y="146.643"/><text fill="#000000" font-family="sans-serif" font-size="12" lengthAdjust="spacing" textLength="135" x="217" y="169.471">User tries to login again</text><polygon fill="#F1F1F1" points="195,406.5507,207,418.5507,195,430.5507,183,418.5507,195,406.5507" style="stroke:#181818;stroke-width:0.5;"/><rect fill="#F1F1F1" height="40.4361" rx="12.5" ry="12.5" style="stroke:#181818;stroke-width:0.5;" width="93" x="148.5" y="450.5507"/><text fill="#000000" font-family="sans-serif" font-size="12" lengthAdjust="spacing" textLength="73" x="158.5" y="473.3788">User logs out</text><ellipse cx="195" cy="521.9868" fill="none" rx="11" ry="11" style="stroke:#222222;stroke-width:1.0;"/><ellipse cx="195" cy="521.9868" fill="#222222" rx="6" ry="6" style="stroke:#222222;stroke-width:1.0;"/><line style="stroke:#181818;stroke-width:1.0;" x1="195" x2="195" y1="30" y2="50"/><polygon fill="#181818" points="191,40,195,50,199,40,195,44" style="stroke:#181818;stroke-width:1.0;"/><line style="stroke:#181818;stroke-width:1.0;" x1="105.5" x2="105.5" y1="306.981" y2="338.1145"/><polygon fill="#181818" points="101.5,328.1145,105.5,338.1145,109.5,328.1145,105.5,332.1145" style="stroke:#181818;stroke-width:1.0;"/><line style="stroke:#181818;stroke-width:1.0;" x1="105.5" x2="105.5" y1="233.2859" y2="266.5448"/><polygon fill="#181818" points="101.5,256.5448,105.5,266.5448,109.5,256.5448,105.5,260.5448" style="stroke:#181818;stroke-width:1.0;"/><line style="stroke:#181818;stroke-width:1.0;" x1="105.5" x2="105.5" y1="378.5507" y2="388.5507"/><line style="stroke:#181818;stroke-width:1.0;" x1="105.5" x2="187" y1="388.5507" y2="388.5507"/><polygon fill="#181818" points="183,313.1145,187,303.1145,191,313.1145,187,309.1145" style="stroke:#181818;stroke-width:1.0;"/><line style="stroke:#181818;stroke-width:1.0;" x1="187" x2="187" y1="221.2859" y2="388.5507"/><line style="stroke:#181818;stroke-width:1.0;" x1="187" x2="159.5" y1="221.2859" y2="221.2859"/><polygon fill="#181818" points="169.5,217.2859,159.5,221.2859,169.5,225.2859,165.5,221.2859" style="stroke:#181818;stroke-width:1.0;"/><line style="stroke:#181818;stroke-width:1.0;" x1="51.5" x2="24" y1="221.2859" y2="221.2859"/><polygon fill="#181818" points="20,308.1145,24,318.1145,28,308.1145,24,312.1145" style="stroke:#181818;stroke-width:1.0;"/><line style="stroke:#181818;stroke-width:1.0;" x1="24" x2="24" y1="221.2859" y2="418.5507"/><line style="stroke:#181818;stroke-width:1.0;" x1="24" x2="183" y1="418.5507" y2="418.5507"/><polygon fill="#181818" points="173,414.5507,183,418.5507,173,422.5507,177,418.5507" style="stroke:#181818;stroke-width:1.0;"/><line style="stroke:#181818;stroke-width:1.0;" x1="105.5" x2="105.5" y1="187.0791" y2="209.2859"/><polygon fill="#181818" points="101.5,199.2859,105.5,209.2859,109.5,199.2859,105.5,203.2859" style="stroke:#181818;stroke-width:1.0;"/><line style="stroke:#181818;stroke-width:1.0;" x1="135" x2="105.5" y1="124.643" y2="124.643"/><line style="stroke:#181818;stroke-width:1.0;" x1="105.5" x2="105.5" y1="124.643" y2="146.643"/><polygon fill="#181818" points="101.5,136.643,105.5,146.643,109.5,136.643,105.5,140.643" style="stroke:#181818;stroke-width:1.0;"/><line style="stroke:#181818;stroke-width:1.0;" x1="255" x2="284.5" y1="124.643" y2="124.643"/><line style="stroke:#181818;stroke-width:1.0;" x1="284.5" x2="284.5" y1="124.643" y2="146.643"/><polygon fill="#181818" points="280.5,136.643,284.5,146.643,288.5,136.643,284.5,140.643" style="stroke:#181818;stroke-width:1.0;"/><line style="stroke:#181818;stroke-width:1.0;" x1="284.5" x2="284.5" y1="187.0791" y2="418.5507"/><line style="stroke:#181818;stroke-width:1.0;" x1="284.5" x2="207" y1="418.5507" y2="418.5507"/><polygon fill="#181818" points="217,414.5507,207,418.5507,217,422.5507,213,418.5507" style="stroke:#181818;stroke-width:1.0;"/><line style="stroke:#181818;stroke-width:1.0;" x1="195" x2="195" y1="90.4361" y2="112.643"/><polygon fill="#181818" points="191,102.643,195,112.643,199,102.643,195,106.643" style="stroke:#181818;stroke-width:1.0;"/><line style="stroke:#181818;stroke-width:1.0;" x1="195" x2="195" y1="430.5507" y2="450.5507"/><polygon fill="#181818" points="191,440.5507,195,450.5507,199,440.5507,195,444.5507" style="stroke:#181818;stroke-width:1.0;"/><line style="stroke:#181818;stroke-width:1.0;" x1="195" x2="195" y1="490.9868" y2="510.9868"/><polygon fill="#181818" points="191,500.9868,195,510.9868,199,500.9868,195,504.9868" style="stroke:#181818;stroke-width:1.0;"/><!--SRC=[POz13eCm30JlUOMFv0lbq7CVq0T4O8Ab4AEiKTNVDr3QLAfFjjOxguM5Okvo1nTA6a6IUoSJTJVijsJ2DWmCJ5kwUhAPCtLFXdTKv-qJa6QQTM5QG-J-a1wp9ARkyr1PaSTAz_lL28q2pYCeq5B3lfGc5mx_ShMSELczuuHpQpOhmY3Jiqo8OIzOVJBzjjRDUWVJzGK0]--></g></svg>