<?xml version="1.0" encoding="us-ascii" standalone="no"?><svg xmlns="http://www.w3.org/2000/svg" xmlns:xlink="http://www.w3.org/1999/xlink" contentStyleType="text/css" height="1365px" preserveAspectRatio="none" style="width:436px;height:1365px;background:#FFFFFF;" version="1.1" viewBox="0 0 436 1365" width="436px" zoomAndPan="magnify"><defs/><g><!--cluster Messaging Website--><g id="cluster_Messaging Website"><rect fill="none" height="1348" rx="2.5" ry="2.5" style="stroke:#181818;stroke-width:1.0;" width="335" x="95" y="11.376"/><text fill="#000000" font-family="sans-serif" font-size="14" font-weight="bold" lengthAdjust="spacing" textLength="134" x="195.5" y="28.3419">Messaging Website</text></g><g id="elem_Sign Up"><ellipse cx="262.6339" cy="723.3488" fill="#F1F1F1" rx="53.1339" ry="21.9728" style="stroke:#181818;stroke-width:0.5;"/><text fill="#000000" font-family="sans-serif" font-size="14" lengthAdjust="spacing" textLength="51" x="234.1339" y="728.0818">Sign Up</text></g><g id="elem_Login"><ellipse cx="262.4402" cy="802.1826" fill="#F1F1F1" rx="42.4402" ry="21.8066" style="stroke:#181818;stroke-width:0.5;"/><text fill="#000000" font-family="sans-serif" font-size="14" lengthAdjust="spacing" textLength="38" x="240.4402" y="806.9155">Login</text></g><g id="elem_Send Message"><ellipse cx="262.5626" cy="75.6029" fill="#F1F1F1" rx="86.0626" ry="22.2269" style="stroke:#181818;stroke-width:0.5;"/><text fill="#000000" font-family="sans-serif" font-size="14" lengthAdjust="spacing" textLength="91" x="214.0626" y="80.3358">Send Message</text></g><g id="elem_Search For Messages"><ellipse cx="262.5081" cy="156.4776" fill="#F1F1F1" rx="108.5081" ry="24.1016" style="stroke:#181818;stroke-width:0.5;"/><text fill="#000000" font-family="sans-serif" font-size="14" lengthAdjust="spacing" textLength="136" x="191.5081" y="161.2106">Search For Messages</text></g><g id="elem_Search For Chat"><ellipse cx="262.4149" cy="238.1545" fill="#F1F1F1" rx="98.4149" ry="22.2786" style="stroke:#181818;stroke-width:0.5;"/><text fill="#000000" font-family="sans-serif" font-size="14" lengthAdjust="spacing" textLength="106" x="206.4149" y="242.8875">Search For Chat</text></g><g id="elem_New Chat"><ellipse cx="262.3331" cy="318.4599" fill="#F1F1F1" rx="63.8331" ry="22.0839" style="stroke:#181818;stroke-width:0.5;"/><text fill="#000000" font-family="sans-serif" font-size="14" lengthAdjust="spacing" textLength="64" x="227.3331" y="323.1928">New Chat</text></g><g id="elem_Remove Chat"><ellipse cx="262.4455" cy="397.5822" fill="#F1F1F1" rx="81.9455" ry="22.2062" style="stroke:#181818;stroke-width:0.5;"/><text fill="#000000" font-family="sans-serif" font-size="14" lengthAdjust="spacing" textLength="86" x="216.4455" y="402.3152">Remove Chat</text></g><g id="elem_Delete Messages"><ellipse cx="262.2678" cy="961.1484" fill="#F1F1F1" rx="96.7678" ry="22.2724" style="stroke:#181818;stroke-width:0.5;"/><text fill="#000000" font-family="sans-serif" font-size="14" lengthAdjust="spacing" textLength="104" x="207.2678" y="965.8814">Delete Messages</text></g><g id="elem_Read Message"><ellipse cx="262.5626" cy="476.6029" fill="#F1F1F1" rx="86.0626" ry="22.2269" style="stroke:#181818;stroke-width:0.5;"/><text fill="#000000" font-family="sans-serif" font-size="14" lengthAdjust="spacing" textLength="91" x="214.0626" y="481.3358">Read Message</text></g><g id="elem_Update Profile Information"><ellipse cx="262.644" cy="560.5048" fill="#F1F1F1" rx="123.644" ry="27.1288" style="stroke:#181818;stroke-width:0.5;"/><text fill="#000000" font-family="sans-serif" font-size="14" lengthAdjust="spacing" textLength="178" x="170.644" y="565.2377">Update Profile Information</text></g><g id="elem_Logout"><ellipse cx="262.3428" cy="881.3051" fill="#F1F1F1" rx="49.8428" ry="21.9292" style="stroke:#181818;stroke-width:0.5;"/><text fill="#000000" font-family="sans-serif" font-size="14" lengthAdjust="spacing" textLength="47" x="235.8428" y="886.0381">Logout</text></g><g id="elem_Block Account"><ellipse cx="262.533" cy="644.6143" fill="#F1F1F1" rx="88.533" ry="22.2384" style="stroke:#181818;stroke-width:0.5;"/><text fill="#000000" font-family="sans-serif" font-size="14" lengthAdjust="spacing" textLength="94" x="212.533" y="649.3473">Block Account</text></g><g id="elem_Ban/Unban Users"><ellipse cx="262.4427" cy="1041.5645" fill="#F1F1F1" rx="101.4427" ry="22.6885" style="stroke:#181818;stroke-width:0.5;"/><text fill="#000000" font-family="sans-serif" font-size="14" lengthAdjust="spacing" textLength="114" x="202.4427" y="1046.2975">Ban/Unban Users</text></g><g id="elem_Update Application Content"><ellipse cx="262.5611" cy="1126.3882" fill="#F1F1F1" rx="125.5611" ry="27.5122" style="stroke:#181818;stroke-width:0.5;"/><text fill="#000000" font-family="sans-serif" font-size="14" lengthAdjust="spacing" textLength="183" x="168.0611" y="1131.1211">Update Application Content</text></g><g id="elem_View System Statistics in a Dashboard"><ellipse cx="262.6379" cy="1221.6035" fill="#F1F1F1" rx="151.6379" ry="32.7276" style="stroke:#181818;stroke-width:0.5;"/><text fill="#000000" font-family="sans-serif" font-size="14" lengthAdjust="spacing" textLength="247" x="136.1379" y="1226.3365">View System Statistics in a Dashboard</text></g><g id="elem_User Account Maintenance"><ellipse cx="262.2631" cy="1316.4286" fill="#F1F1F1" rx="123.2631" ry="27.0526" style="stroke:#181818;stroke-width:0.5;"/><text fill="#000000" font-family="sans-serif" font-size="14" lengthAdjust="spacing" textLength="177" x="170.7631" y="1321.1616">User Account Maintenance</text></g><!--entity User--><g id="elem_User"><ellipse cx="28.5" cy="484.876" fill="#F1F1F1" rx="8" ry="8" style="stroke:#181818;stroke-width:0.5;"/><path d="M28.5,492.876 L28.5,519.876 M15.5,500.876 L41.5,500.876 M28.5,519.876 L15.5,534.876 M28.5,519.876 L41.5,534.876 " fill="none" style="stroke:#181818;stroke-width:0.5;"/><text fill="#000000" font-family="sans-serif" font-size="14" lengthAdjust="spacing" textLength="30" x="13.5" y="551.3419">User</text></g><!--entity Admin--><g id="elem_Admin"><ellipse cx="28.5" cy="967.876" fill="#F1F1F1" rx="8" ry="8" style="stroke:#181818;stroke-width:0.5;"/><path d="M28.5,975.876 L28.5,1002.876 M15.5,983.876 L41.5,983.876 M28.5,1002.876 L15.5,1017.876 M28.5,1002.876 L41.5,1017.876 " fill="none" style="stroke:#181818;stroke-width:0.5;"/><text fill="#000000" font-family="sans-serif" font-size="14" lengthAdjust="spacing" textLength="45" x="6" y="1034.3419">Admin</text></g><!--link User to Sign Up--><g id="link_User_Sign Up"><path d="M32.93,560.506 C38.28,598.136 51.97,652.006 87,683.376 C120.22,713.136 165.0393,721.7623 203.2793,723.8923 " fill="none" id="User-to-Sign Up" style="stroke:#181818;stroke-width:1.0;"/><polygon fill="#181818" points="209.27,724.226,200.5064,719.7316,204.2777,723.9479,200.0615,727.7192,209.27,724.226" style="stroke:#181818;stroke-width:1.0;"/></g><!--link User to Login--><g id="link_User_Login"><path d="M34.06,560.496 C41.65,622.606 58.87,734.416 87,762.376 C121.94,797.106 174.5102,804.1144 214.0502,804.4544 " fill="none" id="User-to-Login" style="stroke:#181818;stroke-width:1.0;"/><polygon fill="#181818" points="220.05,804.506,211.0847,800.4287,215.0502,804.463,211.0159,808.4284,220.05,804.506" style="stroke:#181818;stroke-width:1.0;"/></g><!--link User to Send Message--><g id="link_User_Send Message"><path d="M29.65,476.306 C30.86,383.716 38.91,166.396 87,114.376 C109.65,89.876 138.102,79.8544 170.392,75.5744 " fill="none" id="User-to-Send Message" style="stroke:#181818;stroke-width:1.0;"/><polygon fill="#181818" points="176.34,74.786,166.8924,72.0032,171.3834,75.443,167.9436,79.9339,176.34,74.786" style="stroke:#181818;stroke-width:1.0;"/></g><!--link User to Search For Messages--><g id="link_User_Search For Messages"><path d="M31.48,476.376 C35.99,398.926 49.72,237.896 87,198.376 C105.17,179.106 124.6889,169.4196 150.4289,163.1796 " fill="none" id="User-to-Search For Messages" style="stroke:#181818;stroke-width:1.0;"/><polygon fill="#181818" points="156.26,161.766,146.5709,159.999,151.4007,162.944,148.4557,167.7738,156.26,161.766" style="stroke:#181818;stroke-width:1.0;"/></g><!--link User to Search For Chat--><g id="link_User_Search For Chat"><path d="M34.26,476.176 C42.02,414.936 59.37,305.736 87,278.376 C107.65,257.926 130.6014,248.2266 158.9014,242.6966 " fill="none" id="User-to-Search For Chat" style="stroke:#181818;stroke-width:1.0;"/><polygon fill="#181818" points="164.79,241.546,155.1899,239.3462,159.8828,242.5049,156.7242,247.1977,164.79,241.546" style="stroke:#181818;stroke-width:1.0;"/></g><!--link User to New Chat--><g id="link_User_New Chat"><path d="M33.35,476.126 C38.99,439.426 52.86,387.546 87,357.376 C117.24,330.646 155.7803,321.4989 192.2903,318.4889 " fill="none" id="User-to-New Chat" style="stroke:#181818;stroke-width:1.0;"/><polygon fill="#181818" points="198.27,317.996,188.9718,314.749,193.2869,318.4068,189.6291,322.7219,198.27,317.996" style="stroke:#181818;stroke-width:1.0;"/></g><!--link User to Remove Chat--><g id="link_User_Remove Chat"><path d="M43.7,487.876 C53.45,470.216 68.07,449.036 87,436.376 C115.12,417.566 145.006,408.648 176.866,403.528 " fill="none" id="User-to-Remove Chat" style="stroke:#181818;stroke-width:1.0;"/><polygon fill="#181818" points="182.79,402.576,173.2693,400.0546,177.8533,403.3693,174.5387,407.9533,182.79,402.576" style="stroke:#181818;stroke-width:1.0;"/></g><!--link User to Delete Messages--><g id="link_User_Delete Messages"><path d="M29.72,560.546 C31.1,652.796 39.47,868.426 87,920.376 C107.17,942.416 130.8536,952.5856 159.9536,958.0656 " fill="none" id="User-to-Delete Messages" style="stroke:#181818;stroke-width:1.0;"/><polygon fill="#181818" points="165.85,959.176,157.7457,953.5795,160.9364,958.2506,156.2652,961.4413,165.85,959.176" style="stroke:#181818;stroke-width:1.0;"/></g><!--link User to Read Message--><g id="link_User_Read Message"><path d="M43.66,515.816 C72.49,510.596 133.756,499.505 185.946,490.055 " fill="none" id="User-to-Read Message" style="stroke:#181818;stroke-width:1.0;"/><polygon fill="#181818" points="191.85,488.986,182.2813,486.6535,186.93,489.8768,183.7067,494.5255,191.85,488.986" style="stroke:#181818;stroke-width:1.0;"/></g><!--link User to Update Profile Information--><g id="link_User_Update Profile Information"><path d="M43.66,520.936 C68.06,525.356 114.026,533.6772 161.036,542.1872 " fill="none" id="User-to-Update Profile Information" style="stroke:#181818;stroke-width:1.0;"/><polygon fill="#181818" points="166.94,543.256,158.7965,537.7168,162.02,542.3653,157.3714,545.5888,166.94,543.256" style="stroke:#181818;stroke-width:1.0;"/></g><!--link User to Logout--><g id="link_User_Logout"><path d="M31.36,560.506 C35.7,638.616 49.15,801.616 87,841.376 C119.04,875.026 167.1713,882.8899 206.6613,883.7199 " fill="none" id="User-to-Logout" style="stroke:#181818;stroke-width:1.0;"/><polygon fill="#181818" points="212.66,883.846,203.746,879.6577,207.6611,883.7409,203.5779,887.656,212.66,883.846" style="stroke:#181818;stroke-width:1.0;"/></g><!--link User to Block Account--><g id="link_User_Block Account"><path d="M43.6,550.736 C53.25,569.156 67.77,591.126 87,604.376 C113.36,622.546 140.8549,631.503 171.3549,636.993 " fill="none" id="User-to-Block Account" style="stroke:#181818;stroke-width:1.0;"/><polygon fill="#181818" points="177.26,638.056,169.111,632.5249,172.3391,637.1702,167.6937,640.3983,177.26,638.056" style="stroke:#181818;stroke-width:1.0;"/></g><!--link Admin to Sign Up--><g id="link_Admin_Sign Up"><path d="M34.26,959.336 C42.03,898.326 59.39,789.536 87,762.376 C119.09,730.806 164.8133,722.6837 203.6333,721.4037 " fill="none" id="Admin-to-Sign Up" style="stroke:#181818;stroke-width:1.0;"/><polygon fill="#181818" points="209.63,721.206,200.5031,717.5047,204.6327,721.3707,200.7667,725.5004,209.63,721.206" style="stroke:#181818;stroke-width:1.0;"/></g><!--link Admin to Login--><g id="link_Admin_Login"><path d="M33.49,959.026 C39.21,922.566 53.13,871.246 87,841.376 C123.55,809.136 174.9015,801.9117 213.7915,801.0317 " fill="none" id="Admin-to-Login" style="stroke:#181818;stroke-width:1.0;"/><polygon fill="#181818" points="219.79,800.896,210.7018,797.1006,214.7913,801.0091,210.8828,805.0985,219.79,800.896" style="stroke:#181818;stroke-width:1.0;"/></g><!--link Admin to Ban/Unban Users--><g id="link_Admin_Ban/Unban Users"><path d="M51.33,1005.136 C80.99,1010.256 129.7272,1018.6569 175.8572,1026.6069 " fill="none" id="Admin-to-Ban/Unban Users" style="stroke:#181818;stroke-width:1.0;"/><polygon fill="#181818" points="181.77,1027.626,173.5801,1022.1556,176.8426,1026.7768,172.2214,1030.0393,181.77,1027.626" style="stroke:#181818;stroke-width:1.0;"/></g><!--link Admin to Delete Messages--><g id="link_Admin_Delete Messages"><path d="M51.33,997.616 C81.5,992.406 131.5973,983.7757 178.2173,975.7357 " fill="none" id="Admin-to-Delete Messages" style="stroke:#181818;stroke-width:1.0;"/><polygon fill="#181818" points="184.13,974.716,174.5811,972.3037,179.2027,975.5657,175.9407,980.1873,184.13,974.716" style="stroke:#181818;stroke-width:1.0;"/></g><!--link Admin to Update Application Content--><g id="link_Admin_Update Application Content"><path d="M51.26,1042.706 C60.55,1056.826 72.6,1071.526 87,1081.376 C107.4,1095.336 126.0475,1103.3551 150.0675,1110.0051 " fill="none" id="Admin-to-Update Application Content" style="stroke:#181818;stroke-width:1.0;"/><polygon fill="#181818" points="155.85,1111.606,148.2435,1105.3496,151.0313,1110.2719,146.109,1113.0596,155.85,1111.606" style="stroke:#181818;stroke-width:1.0;"/></g><!--link Admin to View System Statistics in a Dashboard--><g id="link_Admin_View System Statistics in a Dashboard"><path d="M32.87,1043.576 C38.17,1082.036 51.83,1137.826 87,1171.376 C101.48,1185.186 113.9099,1193.0723 132.8399,1200.3523 " fill="none" id="Admin-to-View System Statistics in a Dashboard" style="stroke:#181818;stroke-width:1.0;"/><polygon fill="#181818" points="138.44,1202.506,131.4756,1195.542,133.7732,1200.7112,128.604,1203.0089,138.44,1202.506" style="stroke:#181818;stroke-width:1.0;"/></g><!--link Admin to Logout--><g id="link_Admin_Logout"><path d="M51.11,959.836 C60.39,945.696 72.47,931.036 87,921.376 C124.54,896.436 169.5575,887.4896 206.7275,883.9196 " fill="none" id="Admin-to-Logout" style="stroke:#181818;stroke-width:1.0;"/><polygon fill="#181818" points="212.7,883.346,203.3588,880.2247,207.7229,883.824,204.1236,888.1881,212.7,883.346" style="stroke:#181818;stroke-width:1.0;"/></g><!--link Admin to User Account Maintenance--><g id="link_Admin_User Account Maintenance"><path d="M33.1,1043.406 C39.74,1110.906 56.12,1239.156 87,1271.376 C103.34,1288.426 119.4792,1297.5915 142.2192,1304.5015 " fill="none" id="Admin-to-User Account Maintenance" style="stroke:#181818;stroke-width:1.0;"/><polygon fill="#181818" points="147.96,1306.246,140.5118,1299.8021,143.176,1304.7922,138.1858,1307.4565,147.96,1306.246" style="stroke:#181818;stroke-width:1.0;"/></g><!--SRC=[VL7BJiCm4BpdArQz08UAFq1AMo4XjGWr2fmtpYQnIDQHlQL2Y7_7JWEO9iKdQnvUpsnBbO0OiBfk14fjIOasdA0IOo5tPCThMdQQaoJmo7LBiDYHSrXhhk652gU55l2HW3_11Slb7LndkcR8-vipU6kyxHpCY4iulKbJ3grguDx_OrIuVoJh1kL4NqM2WC9MEu5dJSTp-oCT8zyllgVElD4ijQ6MX2v-Q4zuCK_Ub-YjJzPKsbVvm9Mn7ORYPweoXydeLMlKAwHAcGDxSc271StK7k5Hxn6wGhxDkK0U1hZlvYB5c3IYf-JV6Y9-p9hsVQlLa17MXeLO9jAm6CZUdL07cNYj4wqSU1fXWwuf3DfoBjLFHV7SqDPO4UnGXv78ok_Yymi0]--></g></svg>