<?xml version="1.0" standalone="no"?>
<!DOCTYPE svg PUBLIC "-//W3C//DTD SVG 20010904//EN"
 "http://www.w3.org/TR/2001/REC-SVG-20010904/DTD/svg10.dtd">
<svg version="1.0" xmlns="http://www.w3.org/2000/svg"
 width="2111.000000pt" height="717.000000pt" viewBox="0 0 2111.000000 717.000000"
 preserveAspectRatio="xMidYMid meet">

<g transform="translate(0.000000,717.000000) scale(0.100000,-0.100000)"
fill="#000000" stroke="none">
<path d="M338 7031 c-31 -27 -33 -34 -33 -91 0 -57 2 -64 33 -91 45 -40 117
-42 156 -3 31 32 32 40 6 47 -14 3 -29 -3 -45 -19 -13 -13 -31 -24 -38 -24
-51 0 -86 95 -54 144 24 36 54 42 88 17 52 -39 84 -15 37 29 -35 32 -109 28
-150 -9z"/>
<path d="M1033 7045 c-13 -9 -23 -23 -23 -31 0 -8 -4 -14 -10 -14 -5 0 -10 -7
-10 -15 0 -8 4 -15 9 -15 4 0 11 -29 14 -65 4 -36 9 -70 12 -75 4 -6 22 -10
41 -10 28 0 34 4 34 20 0 14 -6 20 -17 18 -15 -3 -19 6 -21 50 -3 47 -1 54 17
59 26 7 27 29 2 36 -12 3 -21 15 -23 31 -3 25 -4 26 -25 11z"/>
<path d="M1558 7049 c-10 -6 -18 -17 -18 -25 0 -8 -7 -17 -15 -20 -19 -8 -19
-30 0 -37 10 -4 15 -26 17 -74 l3 -68 38 -3 c31 -3 37 0 37 16 0 13 -6 19 -17
18 -15 -1 -19 9 -21 52 -3 47 -1 54 17 59 26 7 27 29 2 36 -12 3 -21 15 -23
30 -2 21 -6 24 -20 16z"/>
<path d="M1750 6940 l0 -120 79 0 c76 0 80 1 105 31 22 25 26 41 26 89 0 48
-4 64 -26 89 -25 30 -29 31 -105 31 l-79 0 0 -120z m147 63 c19 -24 17 -118
-2 -133 -9 -7 -32 -13 -53 -14 l-37 -1 -3 74 c-2 41 0 81 3 89 7 20 75 9 92
-15z"/>
<path d="M2010 7045 c0 -9 9 -15 25 -15 16 0 25 6 25 15 0 9 -9 15 -25 15 -16
0 -25 -6 -25 -15z"/>
<path d="M590 6980 c-62 -62 -23 -160 63 -160 59 0 87 29 87 91 0 35 -6 51
-23 67 -31 29 -99 30 -127 2z m90 -30 c30 -30 24 -72 -12 -91 -44 -24 -78 53
-41 93 21 23 28 23 53 -2z"/>
<path d="M790 6910 c0 -89 0 -90 25 -90 24 0 25 2 25 65 0 56 3 66 22 76 31
17 48 -11 48 -83 0 -51 2 -58 20 -58 18 0 20 7 20 78 0 47 -5 83 -12 90 -15
15 -63 16 -89 2 -13 -7 -19 -7 -19 0 0 5 -9 10 -20 10 -19 0 -20 -7 -20 -90z"/>
<path d="M1141 6974 c-28 -36 -28 -102 -1 -132 25 -27 100 -31 124 -6 24 24
20 27 -27 21 -44 -6 -67 4 -67 30 0 9 17 13 55 13 54 0 55 1 55 28 0 69 -96
100 -139 46z m83 -20 c21 -21 12 -34 -25 -34 -30 0 -38 17 -17 38 16 16 23 15
42 -4z"/>
<path d="M1332 6978 c44 -68 44 -63 15 -107 -33 -50 -33 -51 -2 -51 17 0 29 8
37 25 6 14 15 25 20 25 5 0 14 -11 20 -25 8 -18 19 -25 41 -25 29 0 29 0 13
25 -50 77 -48 68 -21 107 31 45 31 48 1 48 -13 0 -30 -10 -39 -22 l-16 -23
-16 23 c-9 13 -27 22 -42 22 -24 0 -25 -1 -11 -22z"/>
<path d="M2010 6910 c0 -89 0 -90 25 -90 25 0 25 1 25 90 0 89 0 90 -25 90
-25 0 -25 -1 -25 -90z"/>
<path d="M2128 6989 c-41 -24 -10 -52 32 -29 22 12 50 3 50 -16 0 -7 -16 -16
-37 -20 -46 -8 -73 -30 -73 -59 0 -31 19 -45 60 -45 20 0 41 5 48 12 9 9 12 9
12 0 0 -7 10 -12 23 -12 21 0 22 2 17 80 -4 57 -9 84 -20 90 -20 13 -90 12
-112 -1z m82 -104 c0 -19 -32 -36 -49 -25 -8 4 -11 15 -8 24 8 20 57 22 57 1z"/>
<path d="M2324 6979 c-13 -15 -19 -36 -19 -69 0 -59 24 -90 70 -90 17 0 36 5
43 12 9 9 12 7 12 -9 0 -32 -26 -48 -56 -34 -30 13 -64 15 -64 2 0 -24 34 -41
79 -41 79 0 85 11 89 139 l4 111 -26 0 c-14 0 -26 -5 -26 -12 0 -9 -3 -9 -12
0 -19 19 -73 14 -94 -9z m90 -25 c21 -20 20 -63 -1 -86 -20 -22 -27 -22 -47
-2 -29 28 -11 104 24 104 5 0 16 -7 24 -16z"/>
<path d="M2530 6909 c0 -88 0 -89 25 -89 24 0 25 3 25 58 0 60 11 82 42 82 11
0 18 7 18 19 0 17 -7 19 -55 19 l-55 -1 0 -88z"/>
<path d="M2688 6989 c-41 -24 -10 -52 32 -29 22 12 50 3 50 -16 0 -7 -16 -16
-37 -20 -46 -8 -73 -30 -73 -59 0 -31 19 -45 60 -45 20 0 41 5 48 12 9 9 12 9
12 0 0 -7 10 -12 23 -12 21 0 22 2 17 80 -4 57 -9 84 -20 90 -20 13 -90 12
-112 -1z m82 -104 c0 -19 -32 -36 -49 -25 -8 4 -11 15 -8 24 8 20 57 22 57 1z"/>
<path d="M2870 6909 c0 -88 0 -89 25 -89 24 0 25 2 25 65 0 52 3 66 18 74 30
16 42 -6 42 -76 0 -61 1 -63 25 -63 24 0 25 2 25 65 0 52 3 66 18 74 30 16 42
-6 42 -76 0 -61 1 -63 26 -63 l27 0 -5 75 c-3 41 -11 81 -18 90 -15 17 -53 20
-81 4 -14 -7 -24 -7 -33 0 -6 5 -40 10 -74 9 l-62 -1 0 -88z"/>
<path d="M3210 6980 c0 -13 7 -20 20 -20 13 0 20 7 20 20 0 13 -7 20 -20 20
-13 0 -20 -7 -20 -20z"/>
<path d="M3210 6840 c0 -13 7 -20 20 -20 13 0 20 7 20 20 0 13 -7 20 -20 20
-13 0 -20 -7 -20 -20z"/>
<path d="M3290 6765 c0 -12 18 -15 100 -15 82 0 100 3 100 15 0 12 -18 15
-100 15 -82 0 -100 -3 -100 -15z"/>
<path d="M5200 5795 c0 -98 1 -105 20 -105 17 0 20 7 20 45 0 68 19 63 87 -23
12 -16 27 -23 42 -20 l23 3 -31 42 c-17 24 -31 45 -31 47 0 2 9 6 20 9 27 7
36 51 16 82 -15 23 -23 25 -91 25 l-75 0 0 -105z m114 69 c9 -3 16 -14 16 -24
0 -21 -19 -30 -61 -30 -26 0 -29 4 -29 30 0 26 3 30 29 30 16 0 36 -3 45 -6z"/>
<path d="M5800 5890 c0 -5 9 -10 20 -10 11 0 20 5 20 10 0 6 -9 10 -20 10 -11
0 -20 -4 -20 -10z"/>
<path d="M6087 5882 c-10 -10 -17 -23 -17 -29 0 -6 -6 -14 -12 -17 -10 -5 -10
-7 0 -12 7 -3 12 -24 12 -50 0 -61 14 -84 50 -84 17 0 30 5 30 10 0 6 -7 10
-15 10 -12 0 -15 13 -15 55 0 42 3 55 15 55 8 0 15 5 15 10 0 6 -7 10 -15 10
-10 0 -15 10 -15 30 0 34 -10 38 -33 12z"/>
<path d="M6677 5882 c-10 -10 -17 -23 -17 -29 0 -6 -6 -14 -12 -17 -10 -5 -10
-7 0 -12 7 -3 12 -24 12 -50 0 -61 14 -84 50 -84 17 0 30 5 30 10 0 6 -7 10
-15 10 -12 0 -15 13 -15 55 0 42 3 55 15 55 8 0 15 5 15 10 0 6 -7 10 -15 10
-10 0 -15 10 -15 30 0 34 -10 38 -33 12z"/>
<path d="M6760 5890 c0 -5 9 -10 20 -10 11 0 20 5 20 10 0 6 -9 10 -20 10 -11
0 -20 -4 -20 -10z"/>
<path d="M14970 5795 c0 -98 1 -105 20 -105 17 0 20 7 20 45 0 27 5 45 12 45
6 0 30 -20 52 -45 26 -27 50 -45 64 -45 l22 0 -26 40 c-15 22 -32 40 -38 40
-6 0 1 10 17 21 20 15 27 29 27 53 0 47 -15 56 -97 56 l-73 0 0 -105z m114 69
c38 -15 3 -54 -48 -54 -22 0 -26 4 -26 30 0 26 3 30 29 30 16 0 36 -3 45 -6z"/>
<path d="M15570 5890 c0 -5 9 -10 20 -10 11 0 20 5 20 10 0 6 -9 10 -20 10
-11 0 -20 -4 -20 -10z"/>
<path d="M15858 5886 c-10 -7 -18 -20 -18 -29 0 -8 -6 -18 -12 -21 -10 -5 -10
-7 0 -12 7 -3 12 -25 12 -54 0 -69 6 -80 47 -80 23 0 33 4 31 13 -3 6 -11 12
-19 12 -23 0 -25 86 -3 102 16 12 16 14 2 26 -9 6 -18 22 -20 34 -3 19 -5 20
-20 9z"/>
<path d="M16452 5891 c-22 -14 -43 -62 -33 -75 6 -6 11 -36 13 -66 3 -54 4
-55 36 -58 24 -2 32 1 32 12 0 9 -6 15 -12 14 -22 -5 -23 84 -2 99 16 12 16
14 2 26 -9 6 -18 22 -20 34 -2 16 -7 20 -16 14z"/>
<path d="M16530 5890 c0 -5 9 -10 20 -10 11 0 20 5 20 10 0 6 -9 10 -20 10
-11 0 -20 -4 -20 -10z"/>
<path d="M5440 5820 c-24 -24 -26 -77 -4 -108 11 -16 25 -22 54 -22 45 0 70 8
70 22 0 6 -14 8 -32 5 -38 -5 -68 7 -68 28 0 11 13 15 55 15 32 0 55 4 55 11
0 15 -21 53 -34 61 -22 15 -76 8 -96 -12z m85 -31 c-8 -12 -52 -12 -60 0 -3 6
2 14 12 20 20 11 57 -4 48 -20z"/>
<path d="M5615 5818 c-20 -29 -19 -77 1 -107 13 -19 24 -22 55 -19 32 3 39 0
39 -14 0 -21 -36 -33 -55 -18 -8 6 -24 10 -36 8 -22 -3 -22 -4 -5 -20 20 -21
105 -25 124 -6 8 8 12 46 12 103 l0 91 -60 2 c-51 1 -61 -1 -75 -20z m95 -53
c0 -43 -30 -64 -54 -39 -35 34 -5 105 35 84 13 -7 19 -21 19 -45z"/>
<path d="M5800 5765 c0 -68 2 -75 20 -75 18 0 20 7 20 75 0 68 -2 75 -20 75
-18 0 -20 -7 -20 -75z"/>
<path d="M5892 5828 c-21 -21 -13 -47 18 -63 16 -8 36 -15 44 -15 20 0 31 -19
18 -32 -7 -7 -22 -6 -46 3 -40 14 -55 7 -36 -16 19 -23 102 -20 124 4 26 29 7
56 -49 70 -25 6 -45 15 -45 20 0 16 28 20 59 8 35 -13 50 -4 31 18 -15 18
-100 21 -118 3z"/>
<path d="M6187 5822 c-23 -26 -22 -94 1 -115 28 -25 122 -21 122 5 0 6 -14 8
-32 5 -38 -5 -68 7 -68 28 0 11 13 15 56 15 53 0 55 1 48 23 -3 12 -13 30 -22
40 -21 23 -84 23 -105 -1z m67 -8 c28 -11 18 -34 -14 -34 -32 0 -37 9 -18 28
14 14 12 14 32 6z"/>
<path d="M6350 5764 c0 -66 2 -74 19 -74 15 0 20 10 25 60 6 53 10 61 31 66
42 10 28 23 -25 22 l-50 0 0 -74z"/>
<path d="M6493 5833 c-7 -2 -13 -11 -13 -19 0 -17 31 -19 48 -2 10 10 16 8 29
-5 15 -15 15 -17 -8 -25 -13 -5 -33 -11 -43 -13 -28 -6 -43 -35 -30 -56 8 -14
26 -18 73 -20 l61 -2 0 63 c0 35 -5 67 -12 74 -12 12 -81 15 -105 5z m77 -93
c0 -15 -35 -29 -49 -20 -8 4 -10 13 -7 19 9 14 56 15 56 1z"/>
<path d="M6760 5765 c0 -68 2 -75 20 -75 18 0 20 7 20 75 0 68 -2 75 -20 75
-18 0 -20 -7 -20 -75z"/>
<path d="M6865 5820 c-11 -12 -19 -36 -19 -55 0 -49 28 -75 79 -75 76 0 114
79 62 128 -31 29 -97 30 -122 2z m87 -17 c39 -35 3 -107 -41 -83 -30 16 -32
66 -3 88 20 15 22 15 44 -5z"/>
<path d="M7050 5764 c0 -67 2 -74 20 -74 18 0 20 7 20 55 0 42 4 56 18 63 32
17 42 3 42 -59 0 -56 1 -59 25 -59 23 0 25 3 25 49 0 27 -4 61 -10 75 -9 24
-13 25 -75 24 l-65 -1 0 -73z"/>
<path d="M15208 5823 c-9 -10 -19 -28 -22 -39 -7 -24 9 -74 27 -86 23 -14 94
-9 108 9 13 15 10 16 -28 11 -42 -6 -63 4 -63 29 0 9 16 13 50 13 46 0 50 2
50 23 0 13 -8 31 -18 40 -25 22 -85 22 -104 0z m70 -15 c19 -19 14 -28 -18
-28 -41 0 -40 33 1 39 3 1 10 -4 17 -11z"/>
<path d="M15386 5821 c-9 -10 -16 -35 -16 -58 0 -53 26 -78 75 -70 38 6 48
-10 20 -33 -11 -9 -22 -9 -49 1 -40 14 -55 7 -36 -16 17 -21 103 -20 124 1 12
12 16 37 16 103 l0 88 -59 1 c-44 1 -63 -4 -75 -17z m90 -36 c8 -31 -3 -62
-23 -69 -24 -10 -43 13 -43 50 0 54 53 69 66 19z"/>
<path d="M15570 5765 c0 -68 2 -75 20 -75 18 0 20 7 20 75 0 68 -2 75 -20 75
-18 0 -20 -7 -20 -75z"/>
<path d="M15662 5828 c-26 -26 -13 -49 38 -71 28 -11 50 -24 50 -28 0 -14 -30
-17 -59 -6 -35 13 -50 4 -31 -18 15 -18 100 -21 118 -3 32 32 -3 78 -58 78
-24 0 -36 18 -21 33 9 9 16 8 31 -1 29 -18 52 -15 48 6 -2 13 -15 18 -53 20
-30 2 -55 -2 -63 -10z"/>
<path d="M15958 5823 c-9 -10 -19 -28 -22 -39 -7 -24 9 -74 27 -86 23 -14 94
-9 108 9 13 15 10 16 -28 11 -42 -6 -63 4 -63 29 0 9 16 13 50 13 46 0 50 2
50 23 0 13 -8 31 -18 40 -25 22 -85 22 -104 0z m70 -15 c19 -19 14 -28 -18
-28 -41 0 -40 33 1 39 3 1 10 -4 17 -11z"/>
<path d="M16120 5764 c0 -67 2 -74 20 -74 17 0 20 7 20 49 0 51 17 81 46 81 8
0 14 4 14 9 0 6 -22 10 -50 9 l-50 0 0 -74z"/>
<path d="M16253 5825 c-8 -24 4 -30 33 -16 28 12 44 7 44 -14 0 -8 -15 -17
-35 -21 -41 -7 -58 -25 -53 -56 3 -21 8 -23 71 -24 l67 -2 0 48 c0 27 -4 60
-10 74 -8 23 -15 26 -60 26 -36 0 -52 -4 -57 -15z m77 -89 c0 -18 -30 -30 -43
-17 -5 5 -6 14 -3 20 10 16 46 13 46 -3z"/>
<path d="M16530 5765 c0 -68 2 -75 20 -75 18 0 20 7 20 75 0 68 -2 75 -20 75
-18 0 -20 -7 -20 -75z"/>
<path d="M16630 5820 c-12 -12 -20 -33 -20 -55 0 -48 29 -75 79 -75 54 0 85
27 85 75 0 27 -6 43 -23 56 -32 26 -95 25 -121 -1z m81 -10 c27 -15 26 -75 -2
-90 -43 -24 -78 43 -42 82 19 21 19 21 44 8z"/>
<path d="M16820 5763 c0 -66 2 -73 20 -73 18 0 20 7 20 55 0 42 4 56 18 63 32
17 42 3 42 -59 0 -52 2 -59 20 -59 18 0 20 7 20 64 0 40 -5 68 -13 75 -7 6
-39 10 -70 9 l-57 -2 0 -73z"/>
<path d="M1890 5310 l0 -230 -540 0 -540 0 0 -1037 c0 -571 3 -1507 7 -2080
l6 -1043 234 0 233 0 2 -417 3 -418 5010 0 5010 0 3 883 2 882 1703 -1 c936
-1 1694 -3 1685 -6 -25 -6 -23 -33 2 -33 11 0 29 9 40 20 20 20 33 20 835 20
802 0 815 0 835 -20 12 -12 33 -20 55 -20 22 0 43 8 55 20 20 20 33 20 1735
20 l1715 0 0 350 0 350 555 0 555 0 0 1265 0 1265 -555 0 -555 0 0 230 0 230
-9045 0 -9045 0 0 -230z m9420 85 l0 -135 -35 0 c-19 0 -35 -1 -35 -3 0 -2 15
-41 34 -88 l34 -84 -441 -5 c-489 -6 -477 -4 -554 -73 -21 -20 -49 -57 -62
-84 -13 -26 -25 -49 -26 -51 -1 -1 -25 6 -54 17 l-51 21 0 -35 0 -35 -2565 0
-2565 0 0 29 c0 51 -44 76 -91 51 -13 -7 -19 -7 -19 0 0 5 -9 10 -20 10 -17 0
-20 -7 -20 -45 0 -38 -3 -45 -20 -45 -17 0 -20 7 -20 45 0 38 -3 45 -20 45
-17 0 -20 -7 -20 -45 0 -41 -2 -45 -25 -45 -23 0 -25 4 -25 45 0 38 -3 45 -20
45 -11 0 -20 -5 -20 -10 0 -7 -6 -7 -19 0 -11 5 -29 10 -40 10 -23 0 -61 -44
-61 -71 0 -11 -7 -19 -15 -19 -8 0 -15 9 -15 20 0 12 -11 32 -25 45 -42 43
-116 26 -137 -32 l-12 -33 -68 0 -68 0 0 75 c0 68 -2 75 -20 75 -18 0 -20 -7
-20 -75 l0 -75 -595 0 -595 0 0 110 c0 61 2 110 4 110 3 0 41 -15 85 -34 l81
-34 0 34 0 34 68 0 c180 0 6300 -49 6656 -54 225 -3 405 -1 400 3 -7 6 -6576
63 -7031 61 l-92 0 -3 34 -3 35 -75 -30 -75 -29 -547 0 -548 0 0 225 0 225
4705 0 4705 0 0 -135z m8660 -89 l0 -224 -2097 -6 c-1154 -3 -2857 -8 -3785
-12 l-1687 -6 -3 35 -3 35 -83 -33 c-66 -27 -89 -32 -108 -24 -15 5 -208 9
-454 9 l-428 0 34 85 c19 47 34 87 34 90 0 3 -16 5 -35 5 l-35 0 0 135 0 135
4325 0 4325 0 0 -224z m-17020 -489 c0 -243 0 -244 -22 -254 l-23 -10 23 -12
22 -12 0 -464 0 -465 -22 -1 -23 -2 23 -4 c21 -4 22 -8 22 -119 l0 -114 -52
-2 -53 -2 53 -3 52 -4 0 -140 0 -139 -40 0 c-22 0 -40 -4 -40 -10 0 -5 18 -10
40 -10 l41 0 -3 -116 -3 -116 -70 -28 -70 -28 35 -14 c19 -8 52 -21 73 -28
l37 -14 0 -188 0 -188 -825 0 -825 0 -1 23 -2 22 -4 -23 -4 -22 -230 0 -229 0
0 1365 0 1365 1060 0 1060 0 0 -243z m9259 227 c101 -30 170 -119 179 -231 l5
-63 -1077 0 -1076 0 0 29 c0 23 6 31 31 41 l31 13 -26 14 c-21 11 -26 19 -21
36 12 38 53 94 89 122 72 55 54 54 967 54 737 1 852 -1 898 -15z m6651 -119
c0 -74 -4 -135 -9 -135 -4 0 -40 13 -80 29 l-71 30 0 -36 0 -36 -837 7 c-461
3 -1465 9 -2230 12 l-1393 7 0 38 c0 21 -7 45 -16 53 -18 19 -65 21 -82 4 -9
-9 -12 -9 -12 0 0 7 -9 12 -20 12 -18 0 -20 -7 -20 -55 0 -52 -1 -55 -25 -55
-24 0 -25 3 -25 55 0 48 -2 55 -20 55 -18 0 -20 -7 -20 -56 0 -52 -1 -55 -22
-52 -20 3 -23 10 -26 56 -2 37 -7 52 -18 52 -7 0 -14 -5 -14 -10 0 -7 -6 -7
-19 0 -51 27 -101 -6 -101 -65 0 -29 -4 -35 -21 -35 -16 0 -19 4 -14 20 7 23
-18 75 -40 84 -57 21 -125 -14 -125 -65 l0 -29 -70 0 -70 0 0 80 c0 73 -2 80
-20 80 -18 0 -20 -7 -20 -80 l0 -80 -504 0 -503 0 -7 41 c-8 50 -30 95 -64
132 -30 31 -28 32 22 12 l36 -15 0 35 0 35 1248 3 c686 1 2139 3 3230 5 l1982
2 0 -135z m2210 -1110 l0 -1245 -1095 0 -1095 0 0 830 0 830 32 13 32 13 -32
13 -32 13 0 389 0 389 1095 0 1095 0 0 -1245z m-16602 1073 c7 -7 12 -20 12
-30 0 -15 -8 -18 -45 -18 -49 0 -53 5 -29 38 17 24 43 29 62 10z m192 -14 c14
-35 15 -34 -30 -34 -41 0 -47 8 -30 41 15 28 49 24 60 -7z m288 -6 c3 -26 1
-28 -32 -28 -40 0 -40 -1 -26 35 14 37 54 32 58 -7z m8770 -30 c3 -40 2 -41
-47 -32 -23 5 -31 12 -31 28 0 30 20 47 50 44 21 -3 25 -9 28 -40z m190 0 c3
-36 2 -38 -28 -38 -35 0 -45 17 -36 56 5 20 12 25 34 22 23 -3 27 -8 30 -40z
m288 17 c9 -38 -2 -55 -36 -55 -26 0 -30 3 -30 28 0 52 54 74 66 27z m-10026
-55 l0 -30 80 0 c73 0 80 2 80 20 0 18 -7 20 -60 20 -33 0 -60 4 -60 10 0 6
31 10 74 10 64 0 76 -3 81 -18 3 -11 17 -24 31 -30 42 -20 74 -14 104 18 15
17 32 30 37 30 5 0 19 -13 31 -30 23 -31 50 -37 83 -20 22 12 24 7 8 -22 -11
-20 -34 -21 -81 -3 -25 10 -24 -21 1 -35 23 -12 81 -13 98 -2 15 10 33 57 33
88 0 19 5 24 25 24 21 0 25 -5 25 -30 0 -23 4 -30 20 -30 16 0 20 7 20 30 0
23 4 30 20 30 16 0 20 -7 20 -30 0 -23 4 -30 20 -30 16 0 20 7 20 30 0 28 3
30 35 30 32 0 35 -2 35 -30 0 -23 4 -30 20 -30 16 0 20 7 20 30 l0 30 2565 0
2565 0 0 -35 0 -35 50 20 50 20 0 -250 c0 -138 -2 -250 -4 -250 -2 0 -20 7
-40 15 l-36 15 0 -36 0 -37 -467 6 c-256 4 -598 7 -760 7 l-293 0 0 50 c0 38
4 50 15 50 8 0 15 5 15 10 0 6 -7 10 -15 10 -10 0 -15 10 -15 30 0 22 -4 28
-15 24 -22 -9 -48 -65 -35 -78 5 -5 10 -29 10 -53 0 -41 -1 -43 -30 -43 l-30
0 0 60 c0 53 -2 60 -20 60 -16 0 -19 -8 -22 -57 -3 -54 -5 -58 -29 -61 -30 -3
-39 15 -39 81 0 31 -3 37 -21 37 -19 0 -21 -5 -17 -60 3 -56 1 -60 -18 -60
-19 0 -21 6 -20 41 1 52 -28 79 -85 79 -55 0 -82 -29 -77 -81 l4 -39 -68 0
-68 0 0 59 0 58 -57 1 c-74 1 -93 -15 -93 -75 0 -35 -3 -43 -19 -43 -15 0 -18
7 -17 41 1 52 -28 79 -85 79 -55 0 -82 -29 -77 -82 4 -39 3 -40 -25 -34 -16 3
-49 6 -73 6 l-44 0 0 85 c0 84 0 85 -25 85 -25 0 -25 -1 -25 -91 l0 -91 -442
6 c-638 9 -4074 19 -4068 12 3 -3 1018 -10 2255 -16 1448 -7 2251 -14 2253
-20 5 -14 162 -13 162 1 0 8 11 9 33 4 40 -9 110 -9 160 0 25 5 47 3 62 -5 14
-7 37 -10 54 -7 34 7 43 -11 16 -33 -11 -9 -22 -9 -49 1 -40 14 -55 7 -36 -16
17 -21 103 -20 124 1 9 8 16 27 16 40 l0 26 83 -6 c116 -9 166 -9 210 -1 23 4
42 3 50 -4 16 -13 137 -13 137 0 0 12 57 11 65 -1 7 -12 62 -13 67 -2 2 5 337
7 746 4 l742 -5 0 -33 0 -33 35 15 c19 7 37 14 40 14 3 0 5 -64 5 -142 l0
-141 -1502 6 c-826 4 -1811 7 -2190 7 l-688 0 0 85 c0 69 -3 85 -15 85 -8 0
-15 -5 -15 -10 0 -7 -6 -7 -19 0 -55 29 -104 -7 -99 -72 4 -54 44 -88 83 -70
21 10 25 9 25 -3 0 -13 -73 -15 -567 -15 -313 0 -909 3 -1325 7 l-758 6 0 29
c0 15 -2 28 -5 28 -2 0 -38 -13 -80 -30 -42 -16 -78 -30 -80 -30 -3 0 -5 128
-5 285 l0 285 50 -20 c28 -11 53 -20 55 -20 3 0 5 16 5 35 l0 35 1366 -7 1366
-6 24 -24 c33 -33 87 -31 121 4 l27 26 2081 -5 c1144 -3 1934 -2 1755 2 -179
4 -688 8 -1132 9 l-808 1 0 49 c0 91 -26 124 -81 104 -16 -7 -29 -7 -29 -2 0
5 -9 9 -20 9 -18 0 -20 -7 -20 -80 l0 -80 -45 0 -44 0 24 25 c33 32 33 78 0
110 -61 62 -168 -4 -136 -84 7 -16 22 -33 34 -39 19 -9 14 -11 -30 -11 l-53
-1 0 80 c0 73 -2 80 -20 80 -18 0 -20 -7 -20 -80 0 -64 -3 -80 -15 -80 -8 0
-12 6 -9 14 3 8 -3 16 -15 19 -17 4 -21 13 -21 51 0 34 4 46 15 46 8 0 15 7
15 15 0 8 -7 15 -15 15 -9 0 -15 10 -15 26 0 31 -20 28 -35 -4 -5 -12 -13 -22
-17 -22 -5 0 -8 -7 -8 -15 0 -8 5 -15 10 -15 6 0 10 -24 10 -53 0 -29 6 -59
13 -66 10 -10 5 -12 -23 -9 l-35 3 -5 68 c-5 74 -15 87 -66 87 -39 0 -75 -25
-55 -39 9 -6 21 -5 31 1 19 12 50 5 50 -11 0 -5 -21 -16 -47 -23 -38 -11 -49
-18 -51 -38 -3 -14 3 -29 14 -37 16 -12 14 -13 -19 -13 l-37 0 0 110 c0 103
-1 110 -20 110 -17 0 -20 -7 -20 -39 0 -39 0 -39 -29 -28 -23 9 -34 7 -55 -6
-22 -15 -26 -25 -26 -62 0 -32 6 -51 20 -65 l20 -20 -45 0 -45 0 0 80 c0 73
-2 80 -20 80 -18 0 -20 -7 -20 -80 0 -79 0 -80 -25 -80 l-25 0 0 110 c0 103
-1 110 -20 110 -19 0 -20 -7 -20 -110 0 -103 -1 -110 -20 -110 -18 0 -20 7
-20 58 0 72 -18 102 -63 102 -18 0 -43 -7 -56 -16 -21 -15 -22 -18 -6 -26 11
-7 21 -6 28 1 6 6 19 11 30 11 31 0 16 -33 -19 -41 -17 -3 -36 -9 -42 -13 -16
-9 -15 -49 0 -64 9 -9 -3 -12 -56 -12 -37 0 -65 4 -62 9 3 4 23 54 45 110 39
100 39 101 17 101 -19 0 -26 -11 -46 -67 -12 -38 -26 -72 -30 -76 -4 -5 -19
24 -32 65 -20 58 -29 74 -46 76 -12 2 -22 -1 -22 -7 0 -5 16 -54 35 -107 19
-53 35 -98 35 -100 0 -2 -43 -4 -95 -4 l-95 0 0 49 c0 91 -26 124 -81 104 -16
-7 -29 -7 -29 -2 0 5 -9 9 -20 9 -18 0 -20 -7 -20 -80 0 -79 0 -80 -25 -80
-25 0 -25 1 -25 80 0 73 -2 80 -20 80 -18 0 -20 -7 -20 -80 0 -79 0 -80 -25
-80 -25 0 -25 1 -25 80 0 73 -2 80 -20 80 -11 0 -20 -5 -20 -12 0 -9 -3 -9
-12 0 -18 18 -56 14 -78 -8 -24 -24 -27 -86 -4 -118 l15 -22 -62 0 -62 0 27
21 c56 44 20 139 -54 139 -45 0 -80 -35 -80 -80 0 -30 6 -43 26 -59 l27 -21
-42 0 c-34 0 -41 3 -41 20 0 18 -7 20 -55 20 l-55 0 0 90 c0 89 0 90 -25 90
l-25 0 0 -112 0 -111 -287 6 c-157 4 -686 7 -1175 7 l-888 0 0 30 c0 35 -3 35
-60 15 -23 -8 -44 -15 -46 -15 -2 0 -4 54 -4 120 l0 120 595 0 595 0 0 -30z
m300 15 c-7 -8 -20 -15 -30 -15 -10 0 -23 7 -30 15 -11 13 -7 15 30 15 37 0
41 -2 30 -15z m188 3 c-3 -7 -15 -13 -28 -13 -13 0 -25 6 -27 13 -3 8 6 12 27
12 21 0 30 -4 28 -12z m8580 -25 c168 -6 182 -8 182 -25 0 -16 9 -18 75 -18
68 0 75 2 75 20 0 25 13 25 66 0 44 -22 84 -20 105 6 17 20 56 17 89 -8 25
-18 33 -20 55 -10 24 11 26 11 23 -10 -3 -25 -27 -28 -82 -13 -26 7 -27 6 -17
-13 15 -28 70 -38 108 -20 22 10 29 21 31 51 3 32 7 37 28 37 17 0 24 -5 24
-20 0 -13 7 -20 20 -20 13 0 20 7 20 20 0 15 7 20 25 20 18 0 25 -5 25 -20 0
-13 7 -20 20 -20 13 0 20 7 20 20 0 16 7 20 35 20 28 0 35 -4 35 -20 0 -13 7
-20 20 -20 14 0 20 7 20 21 l0 22 918 -7 c504 -3 1507 -9 2229 -12 l1312 -7 3
-33 3 -32 58 23 c107 44 97 54 97 -89 l0 -126 -557 0 c-307 0 -730 3 -940 7
l-383 6 0 53 c0 34 -5 58 -16 68 -18 19 -65 21 -82 4 -9 -9 -12 -9 -12 0 0 7
-9 12 -20 12 -18 0 -20 -7 -20 -70 l0 -70 -30 0 c-27 0 -30 2 -20 19 30 57 -7
121 -70 121 -50 0 -80 -30 -80 -78 0 -21 5 -43 12 -50 9 -9 5 -12 -20 -12
l-32 0 0 70 c0 63 -2 70 -20 70 -18 0 -20 -7 -20 -70 0 -38 -3 -70 -7 -70 -43
1 -53 13 -53 61 0 37 4 49 15 49 8 0 15 7 15 15 0 8 -7 15 -15 15 -10 0 -15
10 -15 30 0 27 -2 29 -18 19 -25 -16 -49 -72 -34 -77 7 -2 12 -25 12 -58 0
-53 0 -54 -30 -54 -30 0 -30 0 -30 58 0 32 -5 63 -12 70 -16 16 -90 16 -106 0
-21 -21 -13 -28 29 -26 57 4 61 -17 5 -31 -44 -11 -66 -37 -51 -61 4 -6 -5
-10 -19 -10 l-26 0 0 100 c0 93 -1 100 -20 100 -16 0 -20 -7 -20 -34 0 -34 0
-34 -39 -29 -32 4 -41 2 -55 -18 -19 -27 -21 -90 -4 -107 9 -9 5 -12 -20 -12
l-32 0 0 70 c0 63 -2 70 -20 70 -18 0 -20 -7 -20 -70 0 -68 -1 -70 -25 -70
l-25 0 0 100 c0 93 -1 100 -20 100 -19 0 -20 -7 -20 -100 l0 -100 -25 0 c-24
0 -25 3 -25 54 0 36 -5 60 -16 70 -28 29 -114 16 -114 -16 0 -5 19 -7 41 -6
58 4 59 -15 2 -33 -41 -12 -48 -18 -51 -41 -3 -26 -6 -28 -52 -28 l-49 0 14
34 c8 18 26 63 39 100 l25 66 -22 0 c-19 0 -26 -11 -46 -70 -14 -39 -27 -73
-31 -75 -4 -2 -17 29 -30 70 -20 65 -27 75 -47 75 -13 0 -23 -2 -23 -5 0 -2
16 -47 35 -100 l34 -95 -94 0 -95 0 0 54 c0 36 -5 60 -16 70 -18 19 -65 21
-82 4 -9 -9 -12 -9 -12 0 0 7 -9 12 -20 12 -18 0 -20 -7 -20 -70 0 -68 -1 -70
-25 -70 -24 0 -25 2 -25 70 0 63 -2 70 -20 70 -18 0 -20 -7 -20 -70 0 -68 -1
-70 -25 -70 -24 0 -25 2 -25 70 0 56 -3 70 -15 70 -8 0 -15 -5 -15 -10 0 -7
-6 -7 -19 0 -52 27 -101 -6 -101 -68 0 -21 5 -43 12 -50 9 -9 3 -12 -29 -12
l-41 0 15 31 c39 78 -59 145 -131 88 -28 -22 -35 -64 -16 -100 9 -16 7 -19
-15 -19 -14 0 -25 5 -25 10 0 6 -25 10 -55 10 l-55 0 0 90 c0 83 -1 90 -20 90
-19 0 -20 -7 -20 -100 l0 -100 -583 0 c-321 0 -767 3 -990 7 l-407 6 0 29 c0
15 -4 28 -8 28 -5 0 -36 -11 -70 -25 -34 -14 -64 -25 -67 -25 -3 0 -5 59 -5
130 l0 130 323 0 c178 0 406 -3 505 -7z m459 -9 c-3 -3 -12 -4 -19 -1 -8 3 -5
6 6 6 11 1 17 -2 13 -5z m190 0 c-3 -3 -12 -4 -19 -1 -8 3 -5 6 6 6 11 1 17
-2 13 -5z m-1497 -674 c0 -492 -2 -620 -12 -621 -10 0 -10 -2 0 -6 9 -3 12
-40 12 -134 l0 -130 -41 -17 -42 -18 42 -14 41 -13 0 -124 0 -123 -32 -14 -33
-14 33 -12 32 -12 0 -149 0 -150 -42 -18 -42 -18 32 -11 c18 -6 32 -15 32 -20
0 -20 -63 -93 -100 -117 -22 -14 -64 -30 -92 -35 -29 -6 -294 -10 -619 -10
l-569 0 -65 25 -65 24 0 -25 0 -26 -212 4 -213 3 -54 30 c-54 30 -83 61 -117
125 -18 33 -19 77 -22 883 l-2 848 42 18 42 17 -42 17 -42 17 0 220 0 220
1075 0 1074 0 1 -620z m-6651 556 c31 -37 -9 -103 -46 -80 -37 23 -24 94 17
94 10 0 23 -6 29 -14z m189 2 c7 -7 12 -24 12 -38 0 -50 -54 -71 -66 -25 -14
57 20 97 54 63z m290 -56 l3 -62 -31 0 c-30 0 -30 1 -30 53 0 55 13 80 40 75
11 -2 16 -19 18 -66z m851 54 c17 -20 10 -67 -11 -79 -23 -15 -48 8 -48 42 0
45 35 66 59 37z m579 2 c7 -7 12 -24 12 -38 0 -52 -48 -68 -76 -25 -15 23 -15
27 0 50 18 27 45 32 64 13z m190 -56 l3 -62 -31 0 c-30 0 -30 1 -30 53 0 55
13 80 40 75 11 -2 16 -19 18 -66z m7000 -20 c5 -54 -29 -80 -62 -46 -34 34
-12 87 34 82 20 -2 26 -9 28 -36z m190 -3 c4 -43 -20 -69 -46 -52 -20 12 -26
36 -18 69 5 20 12 25 34 22 23 -3 27 -8 30 -39z m286 25 c3 -9 6 -33 6 -55 0
-38 -1 -39 -35 -39 -35 0 -35 1 -35 43 0 24 5 48 12 55 17 17 45 15 52 -4z
m851 -28 c0 -46 -23 -68 -49 -47 -19 16 -21 62 -4 79 7 7 22 11 33 10 16 -2
20 -11 20 -42z m574 30 c31 -37 -9 -103 -46 -80 -37 23 -24 94 17 94 10 0 23
-6 29 -14z m195 -2 c3 -9 6 -33 6 -55 0 -38 -1 -39 -35 -39 -35 0 -35 1 -35
43 0 24 5 48 12 55 17 17 45 15 52 -4z m-10236 -11 c-4 -23 -48 -31 -48 -10 0
9 6 18 13 20 25 11 38 7 35 -10z m562 8 c0 -15 -29 -33 -45 -27 -20 7 -19 23
3 29 29 8 42 7 42 -2z m-1320 -51 c0 -5 -5 -10 -11 -10 -5 0 -7 5 -4 10 3 6 8
10 11 10 2 0 4 -4 4 -10z m770 0 c0 -5 -8 -10 -17 -10 -15 0 -16 2 -3 10 19
12 20 12 20 0z m370 0 c0 -5 -5 -10 -11 -10 -5 0 -7 5 -4 10 3 6 8 10 11 10 2
0 4 -4 4 -10z m185 0 c3 -5 -1 -10 -10 -10 -9 0 -13 5 -10 10 3 6 8 10 10 10
2 0 7 -4 10 -10z m8533 -2 c-8 -22 -36 -34 -50 -20 -10 10 -10 15 2 22 21 14
52 12 48 -2z m550 0 c-8 -22 -36 -34 -50 -20 -10 10 -10 15 2 22 21 14 52 12
48 -2z m-10413 -28 c-7 -12 -42 -12 -70 0 -15 6 -8 9 28 9 30 1 46 -3 42 -9z
m9093 -39 c-4 -17 -33 -20 -82 -6 -26 7 -27 6 -17 -13 24 -45 132 -34 139 14
l3 21 647 -2 c356 -1 1208 -3 1895 -4 l1247 -1 0 -105 c0 -58 -2 -105 -4 -105
-2 0 -25 9 -50 20 l-46 19 0 -34 0 -35 -465 0 -465 0 0 35 c0 24 5 35 15 35 8
0 15 6 15 14 0 8 -7 16 -15 20 -8 3 -15 17 -15 32 0 26 0 27 -20 9 -11 -10
-20 -24 -20 -32 0 -7 -4 -13 -10 -13 -5 0 -10 -7 -10 -15 0 -8 5 -15 10 -15 6
0 10 -16 10 -35 0 -31 -3 -35 -25 -35 -23 0 -25 3 -25 50 0 43 -3 50 -20 50
-17 0 -20 -7 -20 -50 l0 -50 -35 0 -35 0 0 50 c0 43 -3 50 -20 50 -17 0 -20
-7 -20 -50 0 -43 -3 -50 -20 -50 -15 0 -20 7 -20 27 0 40 -36 73 -80 73 -46 0
-80 -30 -80 -70 l0 -30 -65 0 -65 0 0 50 c0 43 -3 50 -20 50 -11 0 -20 -5 -20
-12 0 -9 -3 -9 -12 0 -18 18 -63 14 -81 -6 -9 -10 -20 -33 -23 -50 -8 -38 -34
-43 -34 -7 0 14 -11 37 -25 50 -49 49 -136 22 -139 -43 l-1 -32 -72 0 -73 0 0
80 c0 73 -2 80 -20 80 -18 0 -20 -7 -20 -78 l0 -79 -287 -6 c-157 -4 -1114 -7
-2125 -7 -1044 0 -1838 -4 -1838 -9 0 -5 913 -6 2125 -3 l2125 5 0 -22 c0 -20
5 -21 76 -21 67 0 76 2 81 20 6 23 35 26 52 6 21 -26 61 -28 105 -6 53 25 60
25 96 -2 25 -18 33 -20 55 -10 14 7 28 12 30 12 11 0 4 -29 -11 -41 -12 -10
-22 -10 -50 0 -40 14 -53 9 -34 -13 17 -22 73 -30 101 -15 31 16 39 28 39 60
0 22 6 28 31 33 58 11 92 7 116 -16 33 -31 93 -31 126 0 24 23 57 30 57 12 0
-5 11 -17 25 -26 20 -13 31 -14 55 -6 18 7 30 7 30 1 0 -5 9 -9 20 -9 15 0 20
7 20 25 0 20 5 25 25 25 15 0 25 -6 25 -15 0 -19 36 -38 60 -30 23 7 27 25 5
25 -8 0 -15 5 -15 10 0 7 160 10 460 10 l460 0 0 -35 0 -34 46 19 c25 11 48
20 50 20 2 0 4 -90 4 -200 l0 -200 -667 5 c-368 3 -746 8 -840 11 l-173 6 0
69 c0 66 -1 70 -27 80 -20 7 -35 7 -52 -1 -18 -8 -27 -8 -29 -1 -2 6 -10 11
-18 11 -11 0 -14 -18 -14 -80 l0 -80 -45 0 -44 0 24 25 c60 59 -7 153 -90 125
-56 -18 -72 -84 -30 -125 l24 -25 -44 0 -45 0 0 80 c0 73 -2 80 -20 80 -18 0
-20 -7 -20 -80 0 -64 -3 -80 -15 -80 -8 0 -15 7 -15 15 0 8 -7 15 -15 15 -11
0 -15 12 -15 50 0 38 4 50 15 50 8 0 15 7 15 15 0 8 -7 15 -15 15 -9 0 -15 10
-15 26 0 31 -20 28 -35 -4 -5 -12 -13 -22 -17 -22 -5 0 -8 -7 -8 -15 0 -8 4
-15 9 -15 5 0 11 -29 13 -65 3 -64 3 -65 -23 -65 -26 0 -27 3 -31 65 -2 36 -9
70 -16 77 -19 19 -89 16 -109 -4 -16 -16 -16 -18 0 -24 10 -3 24 -1 32 6 17
14 45 6 45 -13 0 -7 -18 -17 -42 -23 -42 -9 -43 -10 -42 -46 1 -35 -1 -38 -27
-38 -29 0 -29 0 -29 64 0 84 -23 111 -72 85 -14 -8 -28 -7 -48 1 -21 9 -34 9
-48 1 -14 -7 -23 -8 -27 -1 -3 5 -13 10 -21 10 -11 0 -14 -16 -14 -75 l0 -75
-41 0 -40 0 3 52 c3 47 6 54 31 66 38 19 21 41 -18 24 -15 -7 -25 -8 -25 -2 0
6 -7 10 -15 10 -12 0 -15 -15 -15 -75 l0 -75 -36 0 c-34 0 -35 1 -20 22 45 64
-22 143 -99 118 -50 -17 -70 -75 -39 -118 15 -22 14 -22 -25 -22 l-41 0 0 60
c0 47 3 60 15 60 8 0 15 7 15 15 0 8 -7 15 -15 15 -22 0 -18 21 5 27 24 6 26
21 4 30 -24 9 -64 -14 -64 -37 0 -11 -4 -20 -10 -20 -5 0 -10 -7 -10 -15 0 -8
5 -15 10 -15 6 0 10 -27 10 -60 0 -57 -1 -60 -25 -60 -23 0 -25 4 -25 44 0 85
-28 117 -83 97 -17 -7 -28 -7 -32 -1 -4 6 -13 10 -21 10 -11 0 -14 -16 -14
-75 l0 -75 -36 0 c-34 0 -35 1 -20 22 45 64 -22 143 -99 118 -50 -17 -70 -75
-39 -118 15 -22 14 -22 -21 -22 -31 0 -35 3 -30 19 7 23 -31 37 -39 14 -4 -8
-16 -13 -28 -11 -18 2 -24 10 -26 39 -4 48 20 70 48 44 26 -23 55 -13 41 14
-17 30 -68 37 -100 13 -22 -17 -26 -27 -26 -71 l1 -51 -51 0 c-87 0 -95 5 -95
61 0 37 4 49 15 49 8 0 15 5 15 10 0 6 -7 13 -15 16 -8 4 -15 17 -15 30 0 13
-3 24 -7 24 -25 -1 -72 -69 -55 -79 5 -3 11 -30 13 -59 4 -51 3 -52 -23 -52
-28 0 -28 0 -28 70 0 63 -2 70 -20 70 -16 0 -19 -8 -22 -56 -3 -60 -20 -83
-52 -71 -12 5 -16 20 -16 67 0 54 -2 60 -21 60 -19 0 -20 -5 -17 -70 l3 -70
-34 0 c-27 0 -32 3 -23 12 18 18 14 73 -7 99 -25 31 -89 33 -121 4 -18 -17
-21 -28 -18 -67 l5 -48 -68 0 -69 0 0 70 c0 63 -2 70 -20 70 -11 0 -20 -4 -20
-10 0 -6 -9 -6 -25 0 -58 22 -106 -33 -87 -97 10 -32 9 -33 -18 -33 -27 0 -27
2 -23 43 7 59 -20 92 -75 92 -59 0 -85 -27 -80 -83 l3 -44 -35 6 c-19 3 -54 6
-77 6 l-43 0 0 90 c0 83 -1 90 -20 90 -19 0 -20 -7 -20 -95 l0 -95 -263 0
c-145 0 -440 3 -655 7 l-392 6 0 29 c0 15 -5 28 -12 28 -14 0 -180 -62 -176
-65 4 -4 181 -75 185 -75 2 0 3 15 3 33 l0 34 653 -5 c358 -2 654 -8 657 -13
3 -4 117 -7 253 -5 206 3 247 1 247 -11 0 -21 -26 -26 -70 -15 -32 8 -40 7
-40 -4 0 -21 37 -35 83 -32 36 3 44 8 57 35 l15 31 520 -4 c286 -3 1215 -11
2064 -19 849 -8 1604 -15 1677 -15 l134 0 0 -625 0 -625 -539 0 c-610 0 -3839
-16 -5033 -25 l-788 -6 0 36 c0 19 -2 35 -4 35 -2 0 -20 -7 -39 -15 -20 -8
-39 -15 -42 -15 -3 0 -5 61 -5 135 0 86 4 135 10 135 6 0 27 -7 47 -15 46 -19
43 -20 43 19 l0 34 608 -4 c768 -6 4975 -24 5381 -24 167 0 302 2 299 5 -2 3
-1417 12 -3144 20 -1726 8 -3140 15 -3141 15 -2 0 -3 14 -3 30 0 34 -4 36 -53
15 -20 -8 -39 -15 -42 -15 -3 0 -5 50 -5 110 0 61 2 110 5 110 3 0 21 -6 40
-14 39 -17 45 -13 45 26 l0 29 1988 -5 c1093 -4 2506 -9 3140 -12 806 -3 1152
-2 1152 5 0 8 -163 11 -525 11 -484 0 -524 1 -518 17 5 14 1 15 -25 10 -22 -4
-36 -2 -47 9 -23 23 -9 34 41 34 39 0 44 3 44 22 0 33 -29 58 -66 58 -68 0
-98 -84 -48 -134 14 -15 11 -16 -33 -15 -26 0 -42 3 -35 6 6 2 12 11 12 19 0
16 -36 19 -45 4 -18 -29 -60 23 -50 63 8 29 33 43 49 27 12 -12 46 -14 46 -2
0 33 -80 44 -112 15 -23 -21 -24 -89 -1 -115 15 -17 14 -18 -20 -18 l-37 0 0
64 c0 39 -5 68 -13 74 -6 6 -38 10 -70 10 l-57 -1 0 -73 c0 -67 -2 -74 -20
-74 -20 0 -27 23 -32 105 -3 40 -3 40 -46 43 -41 3 -72 -10 -72 -29 0 -13 34
-11 48 3 8 8 15 8 27 -2 19 -16 12 -24 -38 -40 -36 -11 -39 -14 -35 -46 4 -30
1 -34 -19 -34 -21 0 -23 4 -23 56 0 83 -9 94 -80 93 l-60 -1 0 -74 c0 -67 -2
-74 -20 -74 -18 0 -20 7 -20 75 0 68 -2 75 -20 75 -18 0 -20 -7 -20 -76 0 -72
-1 -75 -22 -72 -21 3 -23 10 -26 63 -2 32 -8 65 -14 72 -15 18 -83 16 -98 -2
-18 -22 -5 -30 26 -16 28 12 44 7 44 -14 0 -7 -16 -17 -36 -22 -46 -10 -64
-35 -46 -63 10 -17 10 -20 -2 -20 -8 0 -19 7 -24 16 -5 9 -13 14 -18 12 -5 -1
-10 17 -12 42 -3 34 1 47 15 58 17 12 17 14 1 23 -10 6 -18 19 -18 29 0 11 -5
17 -12 15 -19 -8 -39 -56 -29 -69 5 -6 11 -37 13 -69 l3 -57 -32 0 -32 0 -3
73 -3 72 -62 1 -63 1 0 -73 c0 -72 -1 -74 -25 -74 -24 0 -25 2 -25 75 0 68 -2
75 -20 75 -18 0 -20 -7 -20 -75 0 -68 -2 -75 -20 -75 -18 0 -20 7 -20 63 0 36
-5 68 -12 75 -18 18 -97 15 -105 -3 -8 -23 5 -31 27 -17 11 6 26 9 35 6 27
-11 16 -30 -22 -40 -45 -11 -63 -36 -45 -64 11 -18 10 -20 -18 -20 l-30 0 0
101 0 100 -32 -3 c-29 -3 -33 -7 -47 -60 -16 -57 -31 -84 -31 -56 0 8 -7 38
-15 66 -14 47 -18 52 -45 52 l-29 0 -3 -97 -3 -98 -52 -3 c-42 -2 -53 0 -53
12 0 10 -6 13 -15 10 -12 -5 -15 4 -15 50 0 43 3 56 15 56 8 0 15 5 15 10 0 6
-7 10 -15 10 -9 0 -15 9 -15 25 0 37 -23 31 -48 -13 -9 -15 -10 -28 -4 -35 6
-7 12 -38 14 -70 3 -56 3 -57 -24 -57 -27 0 -28 2 -28 56 0 83 -9 94 -80 93
l-60 -1 0 -74 c0 -72 -1 -74 -25 -74 -24 0 -25 2 -25 75 0 68 -2 75 -20 75
-18 0 -20 -7 -20 -54 0 -37 -5 -58 -16 -67 -24 -20 -44 13 -44 73 0 37 -4 48
-16 48 -14 0 -16 -11 -12 -75 l3 -75 -43 0 -43 0 20 26 c43 54 10 124 -58 124
-47 0 -75 -28 -75 -75 0 -19 8 -43 19 -55 18 -20 18 -20 -23 -20 -35 0 -39 2
-35 20 4 15 0 20 -15 20 -12 0 -24 -4 -27 -10 -18 -29 -60 23 -50 63 8 29 33
43 49 27 12 -12 46 -14 46 -2 0 33 -80 44 -112 15 -21 -19 -25 -92 -6 -111 9
-9 5 -12 -20 -12 -24 0 -30 4 -26 15 7 18 -18 20 -47 4 -28 -15 -49 5 -49 46
0 38 24 65 42 47 16 -16 48 -15 48 2 0 34 -91 37 -114 4 -18 -26 -21 -71 -6
-99 9 -16 7 -19 -13 -19 -21 0 -29 11 -59 93 -30 80 -38 92 -60 95 -24 3 -28
-4 -63 -92 l-37 -96 -74 0 -74 0 0 41 c0 46 14 79 35 79 7 0 16 4 20 9 3 6
-16 10 -45 9 l-50 0 0 -69 c0 -62 -2 -69 -20 -69 -11 0 -20 5 -20 11 0 8 -12
10 -35 6 -24 -4 -40 -1 -50 9 -23 23 -9 34 45 34 l49 0 -10 32 c-10 38 -24 48
-65 48 -48 0 -68 -29 -62 -90 5 -49 4 -50 -22 -50 -24 0 -27 3 -22 25 6 33
-11 51 -54 60 -21 3 -34 11 -31 18 4 13 17 13 56 1 19 -6 22 -4 19 12 -3 16
-12 19 -52 19 -82 0 -92 -56 -15 -81 19 -7 34 -18 34 -25 0 -14 -8 -15 -59 -3
-25 6 -28 4 -23 -10 5 -13 0 -16 -29 -16 -28 0 -35 3 -30 15 3 9 9 51 12 95 7
77 6 80 -15 80 -19 0 -21 -5 -21 -69 0 -89 -22 -117 -71 -91 -16 9 -19 22 -19
85 0 68 -2 75 -20 75 -18 0 -20 -7 -20 -76 0 -41 5 -84 10 -95 11 -19 0 -19
-675 -19 l-685 0 0 28 c0 39 -6 43 -45 26 -19 -8 -37 -14 -40 -14 -3 0 -5 52
-5 115 0 71 4 115 10 115 6 0 38 -11 72 -25 34 -14 63 -25 65 -25 2 0 3 16 3
35 l0 35 3127 0 c1719 0 3129 2 3131 5 3 3 -769 5 -1716 5 l-1722 0 0 32 c0
25 3 29 12 20 36 -36 88 7 88 73 0 37 -4 47 -26 62 -21 13 -32 15 -55 6 -16
-6 -29 -7 -29 -2 0 5 -7 9 -15 9 -12 0 -15 -18 -15 -100 l0 -100 -610 0 -610
0 0 30 c0 27 2 30 19 20 48 -25 91 7 91 70 0 63 -61 105 -98 68 -9 -9 -12 -9
-12 0 0 7 -7 12 -15 12 -12 0 -15 -18 -15 -100 l0 -100 -75 0 -75 0 0 32 c0
25 3 29 12 20 36 -36 93 6 93 68 0 58 -25 78 -91 78 l-54 -1 0 -98 0 -99 -670
0 -670 0 0 31 c0 36 -9 36 -97 1 l-53 -22 0 500 c0 275 2 500 5 500 3 0 33
-11 67 -25 34 -14 65 -25 70 -25 4 0 8 14 8 31 l0 30 1235 -2 c1129 -2 1236
-3 1233 -18z m-7234 -134 c27 -20 18 -81 -12 -85 -47 -7 -69 43 -35 80 19 21
24 22 47 5z m202 -19 c3 -11 3 -31 0 -44 -5 -20 -12 -25 -34 -22 -23 3 -28 8
-30 38 -6 54 48 78 64 28z m278 19 c27 -20 18 -81 -12 -85 -47 -7 -69 43 -35
80 19 21 24 22 47 5z m8744 -39 c7 -7 12 -22 12 -35 0 -20 -5 -23 -39 -23 -47
0 -55 9 -41 44 10 28 46 36 68 14z m190 0 c7 -7 12 -22 12 -35 0 -20 -5 -23
-34 -23 -42 0 -49 10 -36 44 10 28 38 34 58 14z m290 0 c7 -7 12 -22 12 -35 0
-20 -5 -23 -40 -23 -35 0 -40 3 -40 23 0 27 17 47 40 47 9 0 21 -5 28 -12z
m-3 -78 c-3 -5 -15 -10 -25 -10 -10 0 -22 5 -25 10 -4 6 7 10 25 10 18 0 29
-4 25 -10z m190 0 c-3 -5 -12 -10 -20 -10 -8 0 -17 5 -20 10 -4 6 5 10 20 10
15 0 24 -4 20 -10z m-688 -6 c-3 -3 -12 -4 -19 -1 -8 3 -5 6 6 6 11 1 17 -2
13 -5z m-11199 -195 c4 -43 -20 -69 -46 -52 -20 12 -26 36 -18 69 5 20 12 25
34 22 23 -3 27 -8 30 -39z m8421 -83 c31 -37 -9 -103 -46 -80 -37 23 -24 94
17 94 10 0 23 -6 29 -14z m193 -11 c8 -19 8 -31 0 -50 -15 -33 -49 -33 -62 0
-22 58 37 105 62 50z m287 11 c31 -37 -9 -103 -46 -80 -37 23 -24 94 17 94 10
0 23 -6 29 -14z m766 -6 c28 -31 10 -75 -30 -75 -40 0 -58 44 -30 75 10 11 23
20 30 20 7 0 20 -9 30 -20z m193 -43 l3 -57 -31 0 c-29 0 -30 1 -30 48 0 50
14 75 40 70 11 -2 16 -19 18 -61z m307 43 c28 -31 10 -75 -30 -75 -40 0 -58
44 -30 75 10 11 23 20 30 20 7 0 20 -9 30 -20z m303 -43 c3 -55 2 -57 -23 -57
-23 0 -25 3 -25 48 0 47 14 76 35 69 5 -2 11 -29 13 -60z m100 -5 c3 -61 2
-62 -23 -62 -24 0 -25 2 -25 59 0 57 9 73 35 67 6 -1 11 -30 13 -64z m577 48
c28 -31 10 -75 -30 -75 -40 0 -58 44 -30 75 10 11 23 20 30 20 7 0 20 -9 30
-20z m193 -48 l3 -62 -31 0 c-30 0 -30 1 -30 53 0 55 13 80 40 75 11 -2 16
-19 18 -66z m-14068 -2 c40 -16 74 -30 76 -30 2 0 4 14 4 30 l0 30 1271 0
c1200 0 1273 -1 1285 -17 17 -24 95 -24 121 -1 18 17 143 17 2206 11 l2187 -6
0 -108 0 -109 -27 11 c-16 6 -56 21 -90 34 l-63 24 0 -34 c0 -30 -4 -35 -22
-35 -13 0 -968 -14 -2123 -30 -2416 -34 -2246 -33 -2221 -19 26 16 1 30 -41
23 -25 -5 -33 -2 -42 15 -11 20 -9 21 44 21 52 0 55 1 55 25 0 57 -74 85 -121
46 -18 -14 -24 -29 -24 -61 0 -32 6 -47 24 -61 l23 -19 -41 0 -41 0 0 80 c0
73 -2 80 -20 80 -11 0 -20 -5 -20 -10 0 -7 -6 -7 -19 0 -32 17 -58 12 -80 -16
-27 -34 -27 -74 0 -108 12 -15 20 -28 18 -30 -2 -2 -447 -8 -989 -15 -542 -6
-1083 -14 -1202 -18 l-218 -6 0 167 c0 91 4 166 9 166 4 0 41 -13 81 -30z
m2713 23 c-7 -2 -19 -2 -25 0 -7 3 -2 5 12 5 14 0 19 -2 13 -5z m10764 -38
c-8 -19 -47 -20 -47 -1 0 8 10 16 23 18 28 5 31 3 24 -17z m13 -35 c0 -5 -5
-10 -11 -10 -5 0 -7 5 -4 10 3 6 8 10 11 10 2 0 4 -4 4 -10z m-11100 -105 c13
-34 -3 -75 -30 -75 -29 0 -47 42 -32 75 7 15 20 25 32 25 13 0 24 -10 30 -25z
m188 8 c2 -9 -7 -13 -27 -13 -30 0 -39 9 -24 24 11 10 46 3 51 -11z m4392 -98
c0 -19 2 -35 4 -35 3 0 42 16 87 35 46 19 85 35 86 35 2 0 3 -67 3 -150 0 -82
-4 -150 -9 -150 -4 0 -40 13 -80 29 l-71 30 0 -35 0 -34 -941 0 c-551 0 -938
4 -935 9 9 13 -20 21 -53 15 -23 -5 -32 -2 -40 15 -11 20 -10 21 44 21 52 0
55 1 55 25 0 33 -33 65 -68 65 -62 0 -98 -62 -69 -119 13 -26 13 -30 0 -35
-39 -15 -43 -8 -43 74 0 73 -2 80 -20 80 -11 0 -20 -5 -20 -10 0 -7 -6 -7 -19
0 -32 17 -58 12 -80 -16 -27 -34 -27 -74 0 -108 l22 -27 -39 3 -39 3 -3 65
c-2 46 -7 69 -19 78 -23 16 -75 15 -99 -3 -16 -13 -17 -16 -4 -25 20 -13 30
-13 30 1 0 14 42 7 47 -8 3 -7 -12 -16 -35 -23 -53 -14 -68 -33 -54 -65 11
-25 11 -25 -33 -25 -45 0 -45 0 -25 20 11 11 20 24 20 28 0 16 -35 40 -67 47
-18 3 -35 11 -39 16 -9 15 27 23 48 10 11 -7 25 -8 34 -3 14 8 14 11 -1 25
-38 38 -145 2 -119 -40 6 -10 29 -25 51 -33 23 -8 41 -19 42 -25 2 -14 -38
-19 -53 -6 -13 11 -46 6 -46 -6 0 -3 8 -12 18 -19 15 -12 11 -13 -32 -14 -48
0 -49 0 -32 19 28 31 16 54 -37 71 -27 9 -49 20 -49 25 -2 15 31 18 46 6 14
-12 46 -5 46 10 0 4 -9 13 -19 19 -53 28 -134 -8 -111 -49 5 -11 28 -25 50
-33 22 -7 40 -17 40 -23 1 -14 -39 -18 -54 -6 -8 6 -21 8 -30 5 -16 -6 -16 -8
0 -25 17 -18 15 -19 -31 -19 -45 0 -47 1 -29 15 21 16 19 17 -46 19 -24 1 -36
6 -38 19 -3 15 5 17 53 17 l57 0 -6 28 c-14 58 -82 81 -124 42 -29 -27 -30
-92 -2 -120 l20 -20 -40 0 -40 0 0 110 0 110 -35 0 c-33 0 -35 -2 -50 -52 -8
-28 -15 -57 -15 -64 0 -7 -4 -15 -9 -18 -5 -3 -17 26 -27 64 -18 69 -18 70
-51 70 l-33 0 0 -110 0 -110 -60 0 c-47 0 -60 3 -60 15 0 8 -7 15 -15 15 -11
0 -15 12 -15 50 0 38 4 50 15 50 8 0 15 7 15 15 0 8 -7 15 -15 15 -10 0 -15
10 -15 30 0 28 -2 29 -20 18 -11 -7 -20 -21 -20 -30 0 -10 -4 -18 -10 -18 -5
0 -10 -7 -10 -15 0 -8 5 -15 10 -15 6 0 10 -26 10 -59 0 -38 4 -61 13 -64 6
-3 -7 -6 -30 -6 l-43 -1 0 80 c0 73 -2 80 -20 80 -18 0 -20 -7 -20 -80 0 -73
-2 -80 -20 -80 -19 0 -20 7 -20 110 l0 110 -25 0 c-22 0 -25 -4 -25 -34 0 -34
-1 -35 -33 -29 -28 4 -37 1 -55 -22 -28 -35 -28 -75 -1 -109 l20 -26 -40 0
c-34 0 -41 3 -41 20 0 18 -7 20 -60 20 -57 0 -60 1 -60 25 0 24 3 25 55 25 48
0 55 2 55 20 0 18 -7 20 -55 20 -52 0 -55 1 -55 25 0 24 3 25 60 25 53 0 60 2
60 20 0 18 -7 20 -80 20 l-80 0 0 -110 0 -110 -1258 0 c-692 0 -1415 -3 -1605
-7 l-347 -6 0 115 0 115 368 7 c202 3 734 11 1183 17 l816 12 22 -22 c29 -29
93 -29 121 1 l21 23 2177 31 c1197 17 2216 32 2265 33 l87 1 0 -35z m-4570 -5
c0 -5 -8 -10 -17 -10 -15 0 -16 2 -3 10 19 12 20 12 20 0z m8529 -4 c17 -20
10 -67 -11 -79 -23 -15 -48 8 -48 42 0 45 35 66 59 37z m186 -36 c0 -39 -3
-45 -22 -48 -32 -5 -51 37 -35 74 9 18 19 24 35 22 19 -3 22 -9 22 -48z m1257
25 c16 -36 -4 -78 -35 -73 -17 2 -23 11 -25 36 -2 19 -1 40 2 48 9 23 45 16
58 -11z m-9999 -22 c-7 -2 -19 -2 -25 0 -7 3 -2 5 12 5 14 0 19 -2 13 -5z
m1502 -150 c20 -80 19 -93 -5 -93 -18 0 -20 7 -20 82 0 45 3 79 6 76 3 -3 12
-32 19 -65z m106 -13 c2 -70 1 -75 -19 -78 -12 -2 -22 0 -22 5 0 13 33 153 36
150 1 -1 4 -36 5 -77z m-551 25 c13 -34 -3 -75 -30 -75 -12 0 -25 10 -32 25
-15 33 3 75 32 75 13 0 24 -10 30 -25z m738 8 c2 -9 -7 -13 -27 -13 -30 0 -39
9 -24 24 11 10 46 3 51 -11z m722 -8 c13 -34 -3 -75 -30 -75 -12 0 -25 10 -32
25 -15 33 3 75 32 75 13 0 24 -10 30 -25z m188 8 c2 -9 -7 -13 -27 -13 -30 0
-39 9 -24 24 11 10 46 3 51 -11z m-378 -58 c0 -19 -24 -29 -47 -20 -17 6 -17
7 1 21 26 18 46 18 46 -1z m-1260 -45 c0 -5 -8 -10 -17 -10 -15 0 -16 2 -3 10
19 12 20 12 20 0z m1270 0 c0 -5 -8 -10 -17 -10 -15 0 -16 2 -3 10 19 12 20
12 20 0z m185 0 c-3 -5 -12 -10 -18 -10 -7 0 -6 4 3 10 19 12 23 12 15 0z
m2095 -45 c0 -19 2 -35 4 -35 2 0 36 14 76 30 40 17 74 30 76 30 2 0 4 -56 4
-125 0 -78 -4 -125 -10 -125 -6 0 -38 11 -72 25 -34 14 -65 25 -70 25 -4 0 -8
-13 -8 -29 l0 -29 -682 -6 c-1460 -13 -3020 -16 -3039 -5 -10 5 -19 16 -19 24
0 11 13 15 55 15 58 0 63 6 44 43 -16 30 -28 37 -66 37 -51 0 -77 -32 -70 -86
4 -41 3 -44 -19 -44 -23 0 -24 3 -24 64 l0 64 -52 0 c-29 0 -61 -1 -70 -4 -24
-7 -41 -65 -29 -98 10 -24 9 -26 -19 -26 -30 0 -30 0 -30 59 0 65 -5 71 -69
71 -35 0 -61 -14 -61 -32 0 -12 34 -10 46 2 13 13 44 2 44 -15 0 -7 -16 -16
-35 -19 -40 -8 -69 -32 -61 -52 3 -9 -2 -14 -14 -14 -13 0 -20 7 -20 19 0 24
-19 39 -59 47 -36 8 -48 21 -32 37 9 9 16 8 31 -1 27 -16 50 -15 50 3 0 31
-105 33 -124 3 -16 -26 3 -49 52 -66 23 -7 42 -17 42 -22 0 -15 -29 -19 -61
-7 -25 9 -33 9 -36 0 -7 -21 -43 -16 -43 6 0 24 -19 39 -59 47 -36 8 -48 21
-32 37 9 9 16 8 31 -1 27 -16 50 -15 50 3 0 31 -105 33 -124 3 -16 -26 3 -49
52 -66 23 -7 42 -17 42 -22 0 -15 -29 -19 -60 -7 -23 9 -33 9 -38 1 -7 -12
-112 -12 -131 0 -6 4 -11 14 -11 22 0 10 14 14 55 14 58 0 63 6 44 43 -16 30
-28 37 -66 37 -51 0 -77 -32 -70 -86 4 -41 3 -44 -19 -44 -24 0 -24 2 -24 95
l0 95 -34 0 c-33 0 -35 -2 -50 -54 -9 -30 -16 -59 -16 -65 0 -6 -4 -11 -9 -11
-4 0 -16 29 -26 65 -17 64 -18 65 -51 65 l-34 0 0 -95 c0 -84 -2 -95 -17 -95
-10 0 -42 -3 -72 -7 -43 -5 -53 -4 -46 7 6 10 -1 12 -33 8 -40 -6 -62 4 -62
29 0 9 16 13 50 13 45 0 50 2 50 22 0 34 -29 58 -70 58 -57 0 -91 -51 -70
-105 12 -32 8 -40 -17 -30 -10 5 -22 9 -28 9 -5 1 -11 21 -13 46 -3 34 1 47
15 58 17 12 17 14 1 23 -10 6 -18 21 -18 35 0 22 -2 23 -20 12 -11 -7 -20 -20
-20 -30 0 -9 -6 -19 -12 -22 -10 -5 -10 -7 0 -12 7 -4 12 -27 12 -65 0 -56 -1
-59 -25 -59 -14 0 -25 5 -25 11 0 7 -12 9 -32 6 -38 -5 -68 7 -68 28 0 11 13
15 55 15 58 0 63 6 44 43 -16 30 -28 37 -67 37 -58 0 -92 -64 -62 -121 10 -17
7 -19 -20 -19 l-30 0 0 100 c0 93 -1 100 -20 100 -19 0 -20 -7 -20 -100 l0
-100 -25 0 c-14 0 -25 5 -25 11 0 8 -12 10 -35 6 -24 -4 -40 -1 -50 9 -23 24
-9 34 46 34 40 0 49 3 49 18 0 36 -29 62 -70 62 -61 0 -95 -52 -72 -112 10
-28 10 -28 -28 -28 l-38 0 16 43 c18 50 10 109 -19 138 -15 15 -33 19 -89 19
l-70 0 0 -100 0 -100 -540 0 -540 0 0 138 0 139 1202 6 c661 4 1759 7 2440 7
1081 0 1238 -2 1238 -15 0 -20 32 -35 74 -35 33 0 66 20 66 41 0 5 242 10 598
12 328 1 792 3 1030 5 l432 2 0 -35z m-2108 13 c-8 -8 -20 -8 -44 -1 l-33 11
45 1 c33 1 41 -2 32 -11z m6758 -80 c0 -13 -8 -18 -25 -18 -28 0 -31 11 -13
61 l12 34 12 -30 c7 -17 13 -38 14 -47z m1254 -63 c5 -20 3 -25 -14 -25 -18 0
-20 6 -19 78 l1 77 13 -53 c7 -29 16 -64 19 -77z m86 50 c0 -70 -1 -75 -21
-75 -17 0 -20 4 -15 23 3 12 11 46 17 75 7 28 14 52 16 52 1 0 3 -34 3 -75z
m-1725 24 c-10 -15 -55 -11 -55 5 0 8 6 16 13 19 17 6 49 -12 42 -24z m919 15
c9 -8 16 -26 16 -39 0 -21 -23 -55 -37 -55 -15 0 -43 35 -43 53 0 20 26 57 41
57 4 0 15 -7 23 -16z m376 -60 c0 -53 0 -54 -30 -54 -30 0 -30 1 -30 55 0 41
4 56 17 64 29 16 43 -6 43 -65z m860 57 c5 -11 10 -40 10 -65 0 -44 -1 -46
-30 -46 -30 0 -30 1 -30 53 0 69 27 100 50 58z m540 -57 c0 -53 0 -54 -30 -54
-30 0 -30 1 -30 55 0 41 4 56 17 64 29 16 43 -6 43 -65z m350 5 c0 -59 0 -59
-30 -59 -29 0 -30 1 -30 49 0 53 19 84 45 75 11 -5 15 -22 15 -65z m324 65
c25 -9 19 -34 -7 -34 -30 0 -40 10 -26 27 13 15 12 15 33 7z m-1474 -69 c0
-19 -36 -39 -45 -25 -11 18 3 40 25 40 11 0 20 -7 20 -15z m530 1 c0 -7 -7
-19 -15 -26 -19 -16 -41 1 -32 24 8 20 47 21 47 2z m440 5 c0 -5 -7 -17 -16
-26 -21 -21 -51 -1 -33 21 13 16 49 19 49 5z m-13012 -17 c17 -11 22 -25 22
-57 0 -56 -11 -69 -56 -71 l-39 -1 -3 59 c-2 32 -1 65 2 72 7 19 46 18 74 -2z
m10552 -14 c10 -19 8 -20 -45 -20 -30 0 -55 2 -55 4 0 40 80 53 100 16z
m-9540 -117 c0 -7 -9 -13 -20 -13 -17 0 -20 7 -20 44 0 74 12 88 27 31 7 -28
13 -56 13 -62z m99 25 c1 -32 -2 -38 -19 -38 -23 0 -24 2 -8 71 11 45 13 49
19 28 4 -13 7 -41 8 -61z m-911 60 c19 -19 14 -28 -17 -28 -36 0 -48 15 -24
29 23 13 27 13 41 -1z m277 -19 c-8 -12 -52 -12 -60 0 -3 6 2 14 12 20 20 11
57 -4 48 -20z m273 19 c19 -19 14 -28 -18 -28 -41 0 -40 33 1 39 3 1 10 -4 17
-11z m547 -19 c-8 -12 -52 -12 -60 0 -3 6 2 14 12 20 20 11 57 -4 48 -20z
m707 14 c24 -22 23 -55 -3 -79 -21 -19 -21 -18 -40 5 -23 28 -24 40 -3 69 18
26 22 27 46 5z m203 -14 c-8 -12 -52 -12 -60 0 -3 6 2 14 12 20 20 11 57 -4
48 -20z m-385 -48 c0 -14 -28 -33 -40 -26 -20 12 -10 35 15 35 14 0 25 -4 25
-9z m4060 -56 c0 -19 2 -35 4 -35 2 0 36 14 76 30 40 17 74 30 76 30 2 0 4
-123 4 -272 0 -248 2 -277 20 -315 10 -24 16 -43 11 -43 -4 0 -35 11 -69 25
-34 14 -64 25 -67 25 -3 0 -5 -16 -5 -35 l0 -35 -157 0 c-87 0 -1650 -23
-3473 -50 -1823 -27 -3357 -50 -3409 -50 l-93 0 3 204 c2 112 7 208 12 212 4
4 1356 2 3005 -5 2562 -11 2999 -15 3013 -27 21 -19 89 -18 118 2 20 15 74 15
548 9 391 -6 524 -5 519 4 -5 8 -151 11 -529 11 l-522 0 4 85 c3 73 1 86 -14
91 -9 4 -20 1 -25 -6 -6 -9 -13 -9 -28 -1 -30 16 -40 14 -67 -14 -60 -59 -3
-160 71 -126 25 11 30 6 16 -17 -7 -10 -571 -10 -3056 2 -1676 7 -3050 17
-3053 20 -4 3 -8 66 -11 140 l-5 134 434 6 c239 4 964 7 1612 9 1196 2 1221 1
1158 -32 -12 -7 -28 -7 -49 1 -36 14 -51 6 -32 -17 10 -12 27 -15 64 -13 46 3
53 6 66 34 l15 31 550 3 c2080 11 3139 17 3198 18 l67 2 0 -35z m-965 -189
c30 -45 -16 -101 -53 -64 -15 15 -15 43 -2 69 14 26 36 24 55 -5z m10875 -661
l0 -345 -1710 0 -1710 0 0 85 c0 78 -2 85 -20 85 -11 0 -20 -5 -20 -10 0 -6
-7 -6 -18 1 -27 17 -67 4 -80 -26 -33 -72 17 -148 77 -115 17 9 21 8 21 -5 0
-13 -94 -15 -870 -15 -478 0 -870 3 -870 8 0 4 12 40 26 80 15 40 24 75 21 78
-14 15 -35 -8 -47 -50 -7 -25 -16 -46 -20 -46 -3 0 -13 21 -21 48 -11 34 -21
48 -36 50 l-21 3 23 -63 c12 -35 26 -73 29 -85 l7 -23 -1705 0 -1706 0 0 135
0 135 35 0 c19 0 35 2 35 5 0 3 -15 43 -34 90 l-34 85 425 0 c277 0 438 4 462
11 51 15 110 58 147 106 18 23 34 47 36 53 2 8 19 5 50 -9 52 -22 58 -20 58
21 l0 28 383 1 c210 1 1341 7 2512 13 1172 7 2680 13 3353 14 l1222 2 0 -345z
m-9860 185 c0 -16 4 -30 9 -30 5 0 41 14 81 30 l71 31 35 -30 c82 -72 97 -76
337 -79 l217 -3 0 -41 c0 -32 3 -39 15 -34 8 3 22 9 30 12 13 5 15 -20 15
-190 l0 -196 -4510 0 -4510 0 0 223 0 224 788 7 c433 4 2175 29 3872 55 1697
27 3190 49 3318 50 l232 1 0 -30z m-8820 -770 l0 -690 -230 0 -230 0 0 690 0
690 230 0 230 0 0 -690z m600 460 l0 -230 4515 0 4515 0 0 -460 0 -460 -2417
0 -2418 0 3 100 c3 85 1 100 -12 100 -9 0 -16 -5 -16 -12 0 -9 -3 -9 -12 0
-17 17 -58 15 -80 -5 -26 -23 -25 -96 2 -123 23 -23 33 -24 61 -9 18 9 20 8
17 -13 -3 -24 -27 -28 -77 -12 -20 6 -23 4 -18 -9 6 -16 -156 -17 -2323 -17
l-2330 0 0 690 0 690 295 0 295 0 0 -230z m9384 145 c-19 -47 -34 -87 -34 -90
0 -3 16 -5 35 -5 l35 0 0 -135 0 -135 -190 0 -190 0 0 198 0 199 63 25 c55 23
77 26 189 27 l126 1 -34 -85z m5225 -239 c17 -20 10 -67 -11 -79 -23 -15 -48
8 -48 42 0 45 35 66 59 37z m-5189 -1011 l0 -875 -5005 0 -5005 0 0 410 0 410
2373 0 c1304 0 3471 0 4815 0 l2442 0 0 465 0 465 190 0 190 0 0 -875z m5183
868 c-7 -2 -21 -2 -30 0 -10 3 -4 5 12 5 17 0 24 -2 18 -5z m-10445 -784 c5
-59 -48 -79 -62 -23 -9 34 10 66 37 62 17 -2 23 -11 25 -39z"/>
<path d="M4890 5260 c0 -103 1 -110 20 -110 17 0 20 7 20 45 0 38 3 45 20 45
11 0 31 -18 50 -45 23 -33 38 -45 56 -45 l25 0 -18 31 c-10 17 -26 37 -36 46
-16 15 -16 17 5 27 17 8 24 22 26 48 4 50 -23 68 -105 68 l-63 0 0 -110z m125
45 c0 -16 -8 -21 -42 -23 -40 -3 -43 -2 -43 23 0 25 3 26 43 23 34 -2 42 -7
42 -23z"/>
<path d="M5490 5355 c0 -8 9 -15 20 -15 11 0 20 7 20 15 0 8 -9 15 -20 15 -11
0 -20 -7 -20 -15z"/>
<path d="M6450 5355 c0 -8 9 -15 20 -15 11 0 20 7 20 15 0 8 -9 15 -20 15 -11
0 -20 -7 -20 -15z"/>
<path d="M7039 5263 c34 -94 41 -108 61 -108 19 0 28 14 61 99 22 55 39 104
39 108 0 4 -8 8 -19 8 -14 0 -25 -18 -46 -76 -15 -41 -31 -72 -35 -67 -4 4
-17 38 -30 76 -19 58 -25 67 -45 67 l-24 0 38 -107z"/>
<path d="M7410 5260 c0 -103 1 -110 20 -110 19 0 20 7 20 110 0 103 -1 110
-20 110 -19 0 -20 -7 -20 -110z"/>
<path d="M7500 5355 c0 -8 9 -15 20 -15 11 0 20 7 20 15 0 8 -9 15 -20 15 -11
0 -20 -7 -20 -15z"/>
<path d="M7700 5331 c0 -39 0 -39 -29 -28 -23 8 -34 7 -54 -6 -72 -47 -18
-174 58 -139 15 7 25 8 25 2 0 -6 9 -10 20 -10 19 0 20 7 20 110 0 103 -1 110
-20 110 -17 0 -20 -7 -20 -39z m-8 -76 c8 -19 8 -31 0 -50 -26 -56 -84 -8 -62
50 6 15 17 25 30 25 12 0 25 -10 32 -25z"/>
<path d="M8070 5355 c0 -8 9 -15 20 -15 11 0 20 7 20 15 0 8 -9 15 -20 15 -11
0 -20 -7 -20 -15z"/>
<path d="M5772 5348 c-7 -7 -12 -18 -12 -25 0 -7 -4 -13 -10 -13 -5 0 -10 -7
-10 -15 0 -8 5 -15 10 -15 6 0 10 -24 10 -54 0 -59 14 -80 51 -74 29 4 35 24
9 31 -16 4 -20 13 -20 51 0 34 4 46 15 46 8 0 15 7 15 15 0 8 -7 15 -15 15 -9
0 -15 9 -15 25 0 27 -9 32 -28 13z"/>
<path d="M6362 5348 c-7 -7 -12 -18 -12 -25 0 -7 -4 -13 -10 -13 -5 0 -10 -7
-10 -15 0 -8 5 -15 10 -15 6 0 10 -24 10 -54 0 -59 14 -80 51 -74 29 4 35 24
9 31 -16 4 -20 13 -20 51 0 34 4 46 15 46 8 0 15 7 15 15 0 8 -7 15 -15 15 -9
0 -15 9 -15 25 0 27 -9 32 -28 13z"/>
<path d="M7982 5348 c-7 -7 -12 -18 -12 -25 0 -7 -4 -13 -10 -13 -5 0 -10 -7
-10 -15 0 -8 5 -15 10 -15 6 0 10 -24 10 -54 0 -59 14 -80 51 -74 29 4 35 24
9 31 -16 4 -20 13 -20 51 0 34 4 46 15 46 8 0 15 7 15 15 0 8 -7 15 -15 15 -9
0 -15 9 -15 25 0 27 -9 32 -28 13z"/>
<path d="M5132 5290 c-29 -27 -30 -92 -2 -120 24 -24 78 -26 106 -5 21 16 19
17 -46 19 -24 1 -36 6 -38 19 -3 15 5 17 53 17 l57 0 -6 28 c-14 58 -82 81
-124 42z m76 -27 c2 -9 -7 -13 -27 -13 -30 0 -39 9 -24 24 11 10 46 3 51 -11z"/>
<path d="M5310 5290 c-41 -41 -15 -140 36 -140 8 0 24 5 35 10 16 9 19 7 19
-10 0 -28 -24 -35 -68 -22 -45 14 -54 6 -23 -19 28 -23 78 -25 109 -3 20 14
22 23 22 110 0 87 -1 94 -20 94 -11 0 -20 -5 -20 -12 0 -9 -3 -9 -12 0 -18 18
-56 14 -78 -8z m78 -22 c7 -7 12 -24 12 -38 0 -50 -54 -71 -66 -25 -14 57 20
97 54 63z"/>
<path d="M5490 5230 c0 -73 2 -80 20 -80 18 0 20 7 20 80 0 73 -2 80 -20 80
-18 0 -20 -7 -20 -80z"/>
<path d="M5588 5299 c-40 -23 -10 -68 55 -84 15 -4 27 -13 27 -21 0 -16 -41
-19 -56 -4 -13 13 -46 2 -41 -14 7 -20 54 -30 94 -20 33 8 38 13 38 39 0 27
-5 31 -47 44 -27 8 -48 20 -48 28 0 16 42 17 57 2 7 -7 17 -8 28 -1 16 8 15
11 -6 26 -26 18 -75 21 -101 5z"/>
<path d="M5879 5291 c-18 -14 -24 -29 -24 -61 0 -32 6 -47 24 -61 26 -21 72
-25 103 -8 29 16 4 31 -39 23 -25 -5 -33 -2 -42 15 -11 20 -9 21 44 21 52 0
55 1 55 25 0 57 -74 85 -121 46z m79 -28 c2 -9 -7 -13 -27 -13 -30 0 -39 9
-24 24 11 10 46 3 51 -11z"/>
<path d="M6040 5230 c0 -73 2 -80 20 -80 17 0 20 7 20 44 0 58 8 76 36 87 13
4 24 13 24 19 0 14 -33 13 -48 -2 -9 -9 -12 -9 -12 0 0 7 -9 12 -20 12 -18 0
-20 -7 -20 -80z"/>
<path d="M6181 5294 c-21 -15 -22 -18 -6 -26 11 -7 21 -6 28 1 18 18 49 14 45
-6 -2 -10 -17 -20 -36 -24 -42 -9 -55 -21 -50 -49 5 -34 31 -47 68 -33 16 6
30 7 30 2 0 -5 9 -9 20 -9 18 0 20 7 20 58 0 72 -18 102 -63 102 -18 0 -43 -7
-56 -16z m67 -91 c-4 -23 -48 -31 -48 -10 0 9 6 18 13 20 25 11 38 7 35 -10z"/>
<path d="M6450 5230 c0 -73 2 -80 20 -80 18 0 20 7 20 80 0 73 -2 80 -20 80
-18 0 -20 -7 -20 -80z"/>
<path d="M6573 5300 c-65 -26 -53 -130 18 -145 73 -16 138 62 96 116 -27 35
-71 46 -114 29z m79 -45 c16 -36 -3 -75 -37 -75 -17 0 -29 8 -37 25 -16 36 3
75 37 75 17 0 29 -8 37 -25z"/>
<path d="M6740 5230 c0 -73 2 -80 20 -80 16 0 19 8 22 63 3 59 4 62 28 62 24
0 25 -3 28 -62 3 -55 5 -63 23 -63 18 0 20 6 17 72 -3 69 -4 73 -31 82 -20 8
-34 7 -50 -3 -15 -10 -22 -10 -25 -2 -2 6 -10 11 -18 11 -11 0 -14 -18 -14
-80z"/>
<path d="M7251 5294 c-21 -15 -22 -18 -6 -26 11 -7 21 -6 28 1 18 18 49 14 45
-6 -2 -10 -17 -20 -36 -24 -42 -9 -55 -21 -50 -49 5 -34 31 -47 68 -33 16 6
30 7 30 2 0 -5 9 -9 20 -9 18 0 20 7 20 58 0 72 -18 102 -63 102 -18 0 -43 -7
-56 -16z m67 -91 c-4 -23 -48 -31 -48 -10 0 9 6 18 13 20 25 11 38 7 35 -10z"/>
<path d="M7500 5230 c0 -73 2 -80 20 -80 18 0 20 7 20 80 0 73 -2 80 -20 80
-18 0 -20 -7 -20 -80z"/>
<path d="M7804 5295 c-16 -12 -17 -16 -5 -24 9 -6 21 -5 31 1 19 12 50 5 50
-11 0 -5 -21 -16 -47 -23 -43 -12 -48 -17 -48 -43 0 -23 6 -32 28 -39 20 -7
34 -7 47 2 12 7 21 8 25 2 3 -6 14 -10 23 -10 15 0 17 9 12 70 -4 47 -10 74
-20 80 -23 15 -74 12 -96 -5z m76 -84 c0 -15 -29 -33 -45 -27 -20 7 -19 23 3
29 29 8 42 7 42 -2z"/>
<path d="M8070 5230 c0 -73 2 -80 20 -80 18 0 20 7 20 80 0 73 -2 80 -20 80
-18 0 -20 -7 -20 -80z"/>
<path d="M8193 5300 c-65 -26 -53 -130 18 -145 73 -16 138 62 96 116 -27 35
-71 46 -114 29z m79 -45 c16 -36 -3 -75 -37 -75 -34 0 -53 39 -37 75 8 17 20
25 37 25 17 0 29 -8 37 -25z"/>
<path d="M8360 5230 c0 -73 2 -80 20 -80 18 0 20 7 20 54 0 56 17 83 45 72 11
-4 15 -21 15 -66 0 -57 1 -60 25 -60 23 0 25 3 25 49 0 91 -26 124 -81 104
-16 -7 -29 -7 -29 -2 0 5 -9 9 -20 9 -18 0 -20 -7 -20 -80z"/>
<path d="M4760 4975 c0 -8 9 -15 20 -15 11 0 20 7 20 15 0 8 -9 15 -20 15 -11
0 -20 -7 -20 -15z"/>
<path d="M14330 5260 c0 -103 1 -110 20 -110 17 0 20 7 20 45 0 38 3 45 20 45
11 0 31 -18 50 -45 23 -33 38 -45 56 -45 l25 0 -18 31 c-10 17 -26 37 -36 46
-16 15 -16 17 5 27 17 8 24 22 26 48 4 50 -23 68 -105 68 l-63 0 0 -110z m125
45 c0 -16 -8 -21 -42 -23 -40 -3 -43 -2 -43 23 0 25 3 26 43 23 34 -2 42 -7
42 -23z"/>
<path d="M14930 5355 c0 -8 9 -15 20 -15 11 0 20 7 20 15 0 8 -9 15 -20 15
-11 0 -20 -7 -20 -15z"/>
<path d="M15223 5353 c-13 -9 -23 -22 -23 -29 0 -8 -4 -14 -10 -14 -5 0 -10
-7 -10 -15 0 -8 5 -15 10 -15 6 0 10 -18 10 -39 0 -64 15 -91 50 -91 20 0 30
5 30 15 0 8 -7 15 -15 15 -11 0 -15 12 -15 50 0 38 4 50 15 50 8 0 15 7 15 15
0 8 -6 15 -14 15 -9 0 -16 12 -18 29 -3 27 -4 28 -25 14z"/>
<path d="M15890 5355 c0 -8 9 -15 20 -15 11 0 20 7 20 15 0 8 -9 15 -20 15
-11 0 -20 -7 -20 -15z"/>
<path d="M16479 5263 c34 -94 41 -108 61 -108 19 0 28 14 61 99 22 55 39 104
39 108 0 4 -8 8 -19 8 -14 0 -25 -18 -46 -76 -15 -41 -31 -72 -35 -67 -4 4
-17 38 -30 76 -19 58 -25 67 -45 67 l-24 0 38 -107z"/>
<path d="M16850 5260 c0 -103 1 -110 20 -110 19 0 20 7 20 110 0 103 -1 110
-20 110 -19 0 -20 -7 -20 -110z"/>
<path d="M16940 5355 c0 -8 9 -15 20 -15 11 0 20 7 20 15 0 8 -9 15 -20 15
-11 0 -20 -7 -20 -15z"/>
<path d="M17140 5331 c0 -39 0 -39 -29 -28 -23 8 -34 7 -54 -6 -72 -47 -18
-174 58 -139 15 7 25 8 25 2 0 -6 9 -10 20 -10 19 0 20 7 20 110 0 103 -1 110
-20 110 -17 0 -20 -7 -20 -39z m-8 -76 c8 -19 8 -31 0 -50 -26 -56 -84 -8 -62
50 6 15 17 25 30 25 12 0 25 -10 32 -25z"/>
<path d="M17510 5355 c0 -8 9 -15 20 -15 11 0 20 7 20 15 0 8 -9 15 -20 15
-11 0 -20 -7 -20 -15z"/>
<path d="M15802 5348 c-7 -7 -12 -18 -12 -25 0 -7 -4 -13 -10 -13 -5 0 -10 -7
-10 -15 0 -8 5 -15 10 -15 6 0 10 -24 10 -54 0 -59 14 -80 51 -74 29 4 35 24
9 31 -16 4 -20 13 -20 51 0 34 4 46 15 46 8 0 15 7 15 15 0 8 -7 15 -15 15 -9
0 -15 9 -15 25 0 27 -9 32 -28 13z"/>
<path d="M17422 5348 c-7 -7 -12 -18 -12 -25 0 -7 -4 -13 -10 -13 -5 0 -10 -7
-10 -15 0 -8 5 -15 10 -15 6 0 10 -24 10 -54 0 -59 14 -80 51 -74 29 4 35 24
9 31 -16 4 -20 13 -20 51 0 34 4 46 15 46 8 0 15 7 15 15 0 8 -7 15 -15 15 -9
0 -15 9 -15 25 0 27 -9 32 -28 13z"/>
<path d="M14572 5290 c-29 -27 -30 -92 -2 -120 24 -24 78 -26 106 -5 21 16 19
17 -46 19 -24 1 -36 6 -38 19 -3 15 5 17 53 17 l57 0 -6 28 c-14 58 -82 81
-124 42z m76 -27 c2 -9 -7 -13 -27 -13 -30 0 -39 9 -24 24 11 10 46 3 51 -11z"/>
<path d="M14750 5290 c-41 -41 -15 -140 36 -140 8 0 24 5 35 10 16 9 19 7 19
-10 0 -28 -24 -35 -68 -22 -45 14 -54 6 -23 -19 28 -23 78 -25 109 -3 20 14
22 23 22 110 0 87 -1 94 -20 94 -11 0 -20 -5 -20 -12 0 -9 -3 -9 -12 0 -18 18
-56 14 -78 -8z m78 -22 c7 -7 12 -24 12 -38 0 -50 -54 -71 -66 -25 -14 57 20
97 54 63z"/>
<path d="M14930 5230 c0 -73 2 -80 20 -80 18 0 20 7 20 80 0 73 -2 80 -20 80
-18 0 -20 -7 -20 -80z"/>
<path d="M15028 5299 c-40 -23 -10 -68 55 -84 15 -4 27 -13 27 -21 0 -16 -41
-19 -56 -4 -13 13 -46 2 -41 -14 7 -20 54 -30 94 -20 33 8 38 13 38 39 0 27
-5 31 -47 44 -27 8 -48 20 -48 28 0 16 42 17 57 2 7 -7 17 -8 28 -1 16 8 15
11 -6 26 -26 18 -75 21 -101 5z"/>
<path d="M15319 5291 c-18 -14 -24 -29 -24 -61 0 -32 6 -47 24 -61 26 -21 72
-25 103 -8 29 16 4 31 -39 23 -25 -5 -33 -2 -42 15 -11 20 -9 21 44 21 52 0
55 1 55 25 0 57 -74 85 -121 46z m79 -28 c2 -9 -7 -13 -27 -13 -30 0 -39 9
-24 24 11 10 46 3 51 -11z"/>
<path d="M15480 5230 c0 -73 2 -80 20 -80 16 0 20 7 21 38 2 60 13 87 37 90
12 2 22 10 22 18 0 17 -31 19 -48 2 -9 -9 -12 -9 -12 0 0 7 -9 12 -20 12 -18
0 -20 -7 -20 -80z"/>
<path d="M15621 5294 c-21 -15 -22 -18 -6 -26 11 -7 21 -6 28 1 18 18 49 14
45 -6 -2 -10 -17 -20 -36 -24 -42 -9 -55 -21 -50 -49 5 -34 31 -47 68 -33 16
6 30 7 30 2 0 -5 9 -9 20 -9 18 0 20 7 20 58 0 72 -18 102 -63 102 -18 0 -43
-7 -56 -16z m67 -91 c-4 -23 -48 -31 -48 -10 0 9 6 18 13 20 25 11 38 7 35
-10z"/>
<path d="M15890 5230 c0 -73 2 -80 20 -80 18 0 20 7 20 80 0 73 -2 80 -20 80
-18 0 -20 -7 -20 -80z"/>
<path d="M16013 5300 c-65 -26 -53 -130 18 -145 73 -16 138 62 96 116 -27 35
-71 46 -114 29z m79 -45 c16 -36 -3 -75 -37 -75 -34 0 -53 39 -37 75 8 17 20
25 37 25 17 0 29 -8 37 -25z"/>
<path d="M16180 5230 c0 -73 2 -80 20 -80 16 0 19 8 22 63 3 59 4 62 28 62 24
0 25 -3 28 -62 3 -55 5 -63 23 -63 18 0 20 6 17 72 -3 69 -4 73 -31 82 -20 8
-34 7 -50 -3 -15 -10 -22 -10 -25 -2 -2 6 -10 11 -18 11 -11 0 -14 -18 -14
-80z"/>
<path d="M16691 5294 c-21 -15 -22 -18 -6 -26 11 -7 21 -6 28 1 18 18 49 14
45 -6 -2 -10 -17 -20 -36 -24 -42 -9 -55 -21 -50 -49 5 -34 31 -47 68 -33 16
6 30 7 30 2 0 -5 9 -9 20 -9 18 0 20 7 20 58 0 72 -18 102 -63 102 -18 0 -43
-7 -56 -16z m67 -91 c-4 -23 -48 -31 -48 -10 0 9 6 18 13 20 25 11 38 7 35
-10z"/>
<path d="M16940 5230 c0 -73 2 -80 20 -80 18 0 20 7 20 80 0 73 -2 80 -20 80
-18 0 -20 -7 -20 -80z"/>
<path d="M17244 5295 c-16 -12 -17 -16 -5 -24 9 -6 21 -5 31 1 19 12 50 5 50
-11 0 -5 -21 -16 -47 -23 -43 -12 -48 -17 -48 -43 0 -23 6 -32 28 -39 20 -7
34 -7 47 2 12 7 21 8 25 2 3 -6 14 -10 23 -10 15 0 17 9 12 70 -4 47 -10 74
-20 80 -23 15 -74 12 -96 -5z m76 -84 c0 -15 -29 -33 -45 -27 -20 7 -19 23 3
29 29 8 42 7 42 -2z"/>
<path d="M17510 5230 c0 -73 2 -80 20 -80 18 0 20 7 20 80 0 73 -2 80 -20 80
-18 0 -20 -7 -20 -80z"/>
<path d="M17633 5300 c-65 -26 -53 -130 18 -145 73 -16 138 62 96 116 -27 35
-71 46 -114 29z m79 -45 c16 -36 -3 -75 -37 -75 -34 0 -53 39 -37 75 8 17 20
25 37 25 17 0 29 -8 37 -25z"/>
<path d="M17800 5230 c0 -73 2 -80 20 -80 18 0 20 7 20 54 0 56 17 83 45 72
11 -4 15 -21 15 -66 0 -57 1 -60 25 -60 23 0 25 3 25 49 0 91 -26 124 -81 104
-16 -7 -29 -7 -29 -2 0 5 -9 9 -20 9 -18 0 -20 -7 -20 -80z"/>
<path d="M1517 3843 c-10 -10 -8 -144 3 -182 13 -45 36 -60 93 -61 38 0 53 5
72 25 23 22 25 31 25 125 0 99 0 101 -22 98 -22 -3 -23 -9 -28 -103 l-5 -100
-33 -3 c-54 -5 -62 9 -62 114 0 84 -2 94 -18 94 -10 0 -22 -3 -25 -7z"/>
<path d="M1798 3779 c-51 -19 -48 -69 5 -89 70 -26 78 -30 71 -41 -4 -7 -25
-9 -60 -4 -34 4 -54 3 -54 -4 0 -19 45 -41 86 -41 50 0 77 25 72 67 -3 24 -10
30 -52 44 -28 8 -52 21 -54 27 -6 19 27 26 53 12 28 -15 65 -1 43 17 -20 17
-80 23 -110 12z"/>
<path d="M2014 3780 c-57 -23 -73 -112 -29 -155 26 -27 80 -34 116 -15 33 18
21 29 -33 32 -41 2 -54 7 -56 21 -3 15 5 17 58 17 l62 0 -7 33 c-12 56 -63 87
-111 67z m54 -42 c20 -20 14 -28 -23 -28 -19 0 -35 4 -35 8 0 12 22 32 35 32
6 0 16 -5 23 -12z"/>
<path d="M2170 3695 c0 -95 0 -95 25 -95 24 0 25 3 25 58 0 59 11 82 41 82 9
0 19 9 22 20 6 25 -27 37 -50 18 -13 -10 -17 -10 -20 0 -3 6 -13 12 -24 12
-17 0 -19 -8 -19 -95z"/>
<path d="M11124 5019 c-14 -16 -19 -36 -19 -84 0 -76 20 -105 71 -105 46 0 64
29 64 105 0 76 -18 105 -64 105 -21 0 -40 -8 -52 -21z m76 -19 c22 -22 27 -87
10 -119 -14 -28 -40 -34 -61 -15 -25 23 -26 109 -2 136 21 23 28 23 53 -2z"/>
<path d="M11403 5032 c-49 -32 -40 -185 12 -198 65 -16 95 16 95 101 0 71 -17
99 -60 103 -19 1 -40 -1 -47 -6z m57 -22 c38 -21 38 -130 -1 -151 -16 -8 -25
-7 -40 7 -25 22 -27 115 -3 138 18 19 20 19 44 6z"/>
<path d="M11290 4840 c0 -5 7 -10 15 -10 8 0 15 5 15 10 0 6 -7 10 -15 10 -8
0 -15 -4 -15 -10z"/>
<path d="M14000 4955 c0 -8 9 -15 20 -15 11 0 20 7 20 15 0 8 -9 15 -20 15
-11 0 -20 -7 -20 -15z"/>
<path d="M19491 3858 c-23 -62 -41 -116 -41 -120 0 -20 41 -6 50 17 8 22 15
25 60 25 45 0 50 -2 56 -25 4 -18 13 -25 30 -25 13 0 24 6 23 13 0 6 -17 59
-38 117 -36 99 -40 105 -68 108 -30 3 -31 2 -72 -110z m79 37 c5 -14 13 -37
16 -50 6 -23 3 -25 -29 -25 l-35 0 16 50 c9 28 17 50 19 50 2 0 8 -11 13 -25z"/>
<path d="M19827 3964 c-4 -4 -7 -22 -7 -41 0 -30 -2 -33 -20 -23 -72 39 -133
-86 -74 -151 19 -21 74 -25 92 -7 9 9 12 9 12 0 0 -7 9 -12 20 -12 20 0 21 5
18 117 -2 97 -6 118 -18 121 -9 1 -19 0 -23 -4z m-19 -96 c14 -14 16 -76 3
-96 -4 -8 -19 -12 -32 -10 -20 3 -24 9 -27 46 -4 60 25 91 56 60z"/>
<path d="M20227 3963 c-14 -13 -6 -23 18 -23 16 0 25 6 25 15 0 15 -31 21 -43
8z"/>
<path d="M19917 3903 c-4 -3 -7 -44 -7 -90 0 -81 0 -83 25 -83 23 0 24 3 27
66 2 51 7 70 21 78 26 16 37 -7 37 -81 0 -56 2 -63 20 -63 18 0 20 7 20 58 0
64 17 99 44 89 13 -5 16 -21 16 -77 0 -63 2 -70 20 -70 18 0 20 7 20 73 0 39
-4 77 -8 83 -11 18 -50 26 -71 15 -13 -7 -28 -7 -49 0 -23 8 -37 7 -53 -2 -17
-9 -24 -9 -27 0 -4 12 -25 15 -35 4z"/>
<path d="M20227 3903 c-4 -3 -7 -44 -7 -90 0 -82 0 -83 25 -83 25 0 25 1 25
90 0 81 -2 90 -18 90 -10 0 -22 -3 -25 -7z"/>
<path d="M20320 3820 c0 -83 1 -90 20 -90 18 0 20 7 20 58 0 69 19 103 47 86
14 -9 19 -26 21 -78 3 -58 5 -66 22 -66 18 0 20 7 20 75 0 68 -2 76 -25 91
-19 13 -31 14 -55 6 -18 -7 -32 -7 -35 -1 -4 5 -13 9 -21 9 -11 0 -14 -18 -14
-90z"/>
<path d="M6030 4755 c0 -8 9 -15 20 -15 11 0 20 7 20 15 0 8 -9 15 -20 15 -11
0 -20 -7 -20 -15z"/>
<path d="M6880 4755 c0 -8 9 -15 20 -15 11 0 20 7 20 15 0 8 -9 15 -20 15 -11
0 -20 -7 -20 -15z"/>
<path d="M7450 4755 c0 -8 9 -15 20 -15 11 0 20 7 20 15 0 8 -9 15 -20 15 -11
0 -20 -7 -20 -15z"/>
<path d="M5310 4060 l0 -110 75 0 c68 0 75 2 75 20 0 18 -7 20 -55 20 l-55 0
0 90 c0 83 -1 90 -20 90 -19 0 -20 -7 -20 -110z"/>
<path d="M6398 4156 c-10 -7 -18 -21 -18 -30 0 -9 -4 -16 -10 -16 -5 0 -10 -7
-10 -15 0 -8 5 -15 10 -15 6 0 10 -25 10 -55 0 -50 3 -57 25 -67 20 -9 28 -9
38 1 9 10 8 14 -5 22 -24 13 -26 99 -3 99 8 0 15 7 15 15 0 8 -6 15 -14 15 -9
0 -16 12 -18 29 -3 26 -5 28 -20 17z"/>
<path d="M7157 4163 c-4 -3 -7 -14 -7 -24 0 -10 -8 -23 -17 -28 -17 -10 -17
-12 0 -25 13 -10 17 -28 17 -75 0 -54 2 -62 18 -59 14 3 18 16 20 66 2 46 7
62 17 62 8 0 15 7 15 15 0 8 -7 15 -15 15 -8 0 -15 7 -15 15 0 8 9 15 20 15
11 0 20 7 20 15 0 10 -10 15 -33 15 -19 0 -37 -3 -40 -7z"/>
<path d="M8053 4155 c-13 -9 -23 -22 -23 -30 0 -7 -6 -15 -12 -18 -10 -4 -10
-7 0 -18 6 -7 12 -29 12 -48 0 -72 22 -101 64 -85 20 8 21 24 1 24 -11 0 -15
12 -15 49 0 34 4 51 15 55 19 7 20 26 1 26 -9 0 -16 12 -18 30 -3 30 -4 30
-25 15z"/>
<path d="M8140 4154 c0 -9 7 -14 17 -12 25 5 28 28 4 28 -12 0 -21 -6 -21 -16z"/>
<path d="M5516 4089 c-47 -37 -32 -109 29 -129 68 -22 131 38 105 101 -22 52
-86 66 -134 28z m92 -47 c5 -54 -29 -80 -62 -46 -34 34 -12 87 34 82 20 -2 26
-9 28 -36z"/>
<path d="M5995 4085 c-58 -57 0 -149 81 -129 31 8 64 50 64 81 0 65 -97 97
-145 48z m99 -38 c8 -23 6 -31 -12 -50 -17 -17 -26 -19 -39 -11 -30 19 -38 40
-25 69 17 37 62 32 76 -8z"/>
<path d="M6180 4040 c0 -68 1 -71 27 -81 20 -7 35 -7 52 1 18 8 27 8 29 1 2
-6 10 -11 18 -11 11 0 14 18 14 80 0 73 -2 80 -20 80 -18 0 -20 -7 -20 -54 0
-56 -17 -83 -45 -72 -11 4 -15 21 -15 66 0 53 -2 60 -20 60 -18 0 -20 -7 -20
-70z"/>
<path d="M6581 4084 c-38 -48 -20 -115 35 -128 31 -8 80 9 88 30 8 22 -22 29
-43 10 -23 -21 -38 -20 -51 3 -24 47 3 96 41 73 26 -16 49 -15 49 3 0 19 -31
35 -69 35 -20 0 -36 -8 -50 -26z"/>
<path d="M6762 4090 c-30 -28 -30 -90 -1 -116 31 -28 96 -25 120 5 26 32 25
82 -4 109 -30 29 -86 29 -115 2z m87 -24 c31 -37 -9 -103 -46 -80 -37 23 -24
94 17 94 10 0 23 -6 29 -14z"/>
<path d="M6940 4030 c0 -73 2 -80 20 -80 17 0 20 7 20 53 0 55 12 77 41 77 22
0 29 -20 29 -81 0 -42 3 -49 20 -49 18 0 20 7 20 64 0 45 -5 69 -16 80 -18 19
-65 21 -82 4 -9 -9 -12 -9 -12 0 0 7 -9 12 -20 12 -18 0 -20 -7 -20 -80z"/>
<path d="M7262 4090 c-30 -28 -30 -90 -1 -116 31 -28 96 -25 120 5 26 32 25
82 -4 109 -30 29 -86 29 -115 2z m87 -24 c31 -37 -9 -103 -46 -80 -37 23 -24
94 17 94 10 0 23 -6 29 -14z"/>
<path d="M7440 4029 c0 -72 2 -79 20 -79 17 0 20 7 20 53 0 59 7 73 34 78 11
2 21 9 23 16 3 8 -11 12 -46 11 l-51 0 0 -79z"/>
<path d="M7562 4031 c3 -63 6 -76 21 -79 14 -3 17 4 17 45 0 56 19 90 44 80
12 -5 16 -20 16 -67 0 -53 2 -60 20 -60 17 0 20 7 20 49 0 62 7 81 30 81 23 0
30 -19 30 -82 0 -42 3 -49 18 -46 25 5 30 118 7 142 -19 18 -48 21 -75 6 -12
-6 -21 -6 -25 -1 -3 6 -33 9 -66 9 l-60 -1 3 -76z"/>
<path d="M7862 4098 c-21 -21 -13 -28 29 -26 54 4 64 -18 14 -28 -65 -12 -84
-51 -40 -80 22 -14 30 -15 53 -5 18 9 28 9 30 2 2 -6 11 -11 21 -11 15 0 16 9
13 68 -2 37 -9 73 -14 80 -13 15 -90 16 -106 0z m76 -90 c-8 -22 -36 -34 -50
-20 -10 10 -10 15 2 22 21 14 52 12 48 -2z"/>
<path d="M8140 4029 c0 -71 2 -80 18 -77 14 3 17 16 20 81 3 72 1 77 -18 77
-18 0 -20 -6 -20 -81z"/>
<path d="M8239 4091 c-27 -21 -32 -79 -9 -106 34 -41 117 -38 140 5 42 79 -60
158 -131 101z m89 -23 c17 -17 15 -54 -4 -72 -22 -22 -41 -20 -59 8 -32 48 23
104 63 64z"/>
<path d="M8420 4030 c0 -73 2 -80 20 -80 17 0 20 7 20 53 0 55 12 77 41 77 22
0 29 -20 29 -81 0 -42 3 -49 20 -49 18 0 20 7 20 64 0 45 -5 69 -16 80 -18 19
-65 21 -82 4 -9 -9 -12 -9 -12 0 0 7 -9 12 -20 12 -18 0 -20 -7 -20 -80z"/>
<path d="M15120 4705 c0 -8 9 -15 20 -15 11 0 20 7 20 15 0 8 -9 15 -20 15
-11 0 -20 -7 -20 -15z"/>
<path d="M15980 4704 c0 -9 7 -14 17 -12 25 5 28 28 4 28 -12 0 -21 -6 -21
-16z"/>
<path d="M16550 4704 c0 -9 7 -14 17 -12 25 5 28 28 4 28 -12 0 -21 -6 -21
-16z"/>
<path d="M10778 3833 c-10 -2 -27 -34 -44 -84 -15 -43 -30 -76 -33 -73 -3 3
-17 37 -31 77 -21 56 -31 73 -48 75 -21 3 -22 0 -22 -97 0 -83 3 -101 15 -101
12 0 15 16 16 83 l1 82 27 -80 c16 -47 33 -80 41 -80 8 0 26 33 41 75 l28 75
0 -77 c1 -62 4 -78 16 -78 12 0 15 18 15 105 0 58 -1 104 -2 104 -2 -1 -10 -3
-20 -6z"/>
<path d="M11660 3825 c0 -8 5 -15 10 -15 6 0 10 7 10 15 0 8 -4 15 -10 15 -5
0 -10 -7 -10 -15z"/>
<path d="M10882 3770 c-43 -18 -52 -88 -16 -124 22 -23 77 -20 99 4 23 25 12
39 -13 17 -31 -29 -82 -16 -82 20 0 9 17 13 55 13 46 0 55 3 55 18 0 23 -10
37 -37 51 -25 13 -30 13 -61 1z m64 -27 c17 -17 16 -18 -25 -21 -51 -4 -63 4
-37 24 26 19 41 18 62 -3z"/>
<path d="M11036 3767 c-11 -8 -17 -23 -14 -37 2 -19 12 -27 43 -36 22 -6 40
-17 40 -25 0 -21 -44 -23 -66 -3 -25 23 -37 10 -14 -16 20 -22 74 -27 93 -8 7
7 12 22 12 34 0 17 -10 26 -42 36 -23 8 -44 20 -46 26 -6 18 28 27 50 13 27
-16 38 -3 14 15 -25 17 -47 18 -70 1z"/>
<path d="M11186 3767 c-11 -8 -17 -23 -14 -37 2 -19 12 -27 43 -36 22 -6 40
-17 40 -25 0 -21 -44 -23 -66 -3 -25 23 -37 10 -14 -16 20 -22 74 -27 93 -8 7
7 12 22 12 34 0 17 -10 26 -42 36 -23 8 -44 20 -46 26 -6 18 28 27 50 13 27
-16 38 -3 14 15 -25 17 -47 18 -70 1z"/>
<path d="M11340 3762 c-14 -11 -22 -24 -18 -28 5 -4 17 1 27 10 25 23 55 17
59 -12 3 -18 -1 -22 -26 -22 -16 0 -40 -9 -53 -19 -20 -16 -22 -23 -13 -38 9
-14 25 -18 70 -19 l59 -1 -5 63 c-3 34 -8 65 -11 68 -17 18 -66 16 -89 -2z
m66 -97 c-3 -9 -18 -15 -36 -15 -42 0 -38 33 5 40 32 6 40 -1 31 -25z"/>
<path d="M11518 3772 c-38 -12 -51 -79 -22 -121 13 -18 24 -22 51 -19 29 4 34
1 31 -16 -4 -26 -49 -34 -68 -12 -14 18 -30 21 -30 7 0 -20 33 -41 65 -41 51
0 65 27 65 125 l0 80 -39 0 c-22 0 -46 -1 -53 -3z m51 -26 c7 -8 11 -32 9 -53
-2 -32 -7 -39 -27 -41 -45 -7 -68 53 -34 90 19 22 36 23 52 4z"/>
<path d="M11660 3705 c0 -43 4 -75 10 -75 6 0 10 32 10 75 0 43 -4 75 -10 75
-6 0 -10 -32 -10 -75z"/>
<path d="M11727 3774 c-4 -4 -7 -38 -7 -76 0 -54 3 -68 15 -68 11 0 15 13 15
54 0 60 19 88 48 69 12 -7 18 -27 20 -67 4 -77 22 -71 22 9 0 55 -3 66 -21 76
-15 8 -28 8 -44 1 -14 -7 -26 -7 -32 -1 -5 5 -12 6 -16 3z"/>
<path d="M11905 3755 c-29 -28 -32 -70 -9 -104 14 -20 23 -22 55 -18 43 6 44
5 29 -24 -13 -24 -56 -25 -69 -2 -5 10 -13 14 -17 10 -15 -15 13 -42 45 -45
57 -6 71 17 71 120 0 52 -4 88 -10 88 -5 0 -10 -5 -10 -10 0 -7 -6 -7 -19 0
-29 15 -39 13 -66 -15z m74 -27 c21 -36 2 -78 -34 -78 -41 0 -54 57 -22 98 15
19 39 10 56 -20z"/>
<path d="M10850 3480 c-11 -11 -20 -26 -20 -34 0 -21 27 -45 58 -52 46 -9 72
-23 72 -37 0 -39 -67 -50 -100 -17 -28 28 -42 26 -28 -5 22 -48 112 -56 143
-12 29 42 15 63 -56 87 -40 13 -54 22 -54 36 0 25 65 33 85 10 16 -20 30 -20
30 -2 0 43 -95 61 -130 26z"/>
<path d="M11334 3478 c-9 -14 -8 -84 1 -139 7 -42 28 -60 48 -40 8 8 7 11 -6
11 -14 0 -17 10 -17 54 0 34 5 57 13 60 10 5 10 7 0 12 -7 3 -13 17 -13 30 0
25 -14 32 -26 12z"/>
<path d="M11048 3359 l27 -81 -23 -18 c-25 -21 -28 -30 -9 -30 24 0 43 32 75
123 23 62 28 87 19 87 -8 0 -21 -25 -31 -55 -9 -30 -19 -55 -21 -55 -2 0 -12
25 -21 55 -10 30 -23 55 -30 55 -8 0 -4 -25 14 -81z"/>
<path d="M11193 3433 c-7 -2 -13 -16 -13 -29 0 -20 9 -29 45 -44 48 -21 57
-35 26 -45 -21 -6 -51 3 -51 16 0 5 -7 9 -15 9 -12 0 -13 -4 -6 -19 13 -24 52
-34 86 -21 21 8 26 16 23 38 -2 22 -11 29 -45 40 -47 15 -59 42 -19 42 14 0
28 -4 31 -10 9 -15 25 -12 25 4 0 22 -52 34 -87 19z"/>
<path d="M11427 3423 c-57 -64 4 -158 79 -121 32 15 43 38 20 38 -9 0 -16 -4
-16 -9 0 -16 -38 -23 -60 -11 -11 6 -20 17 -20 25 0 11 13 15 55 15 51 0 55 2
55 23 0 50 -78 77 -113 40z m81 -15 c21 -21 13 -28 -33 -28 -25 0 -45 4 -45 8
0 15 24 32 45 32 12 0 26 -5 33 -12z"/>
<path d="M11580 3363 c0 -42 4 -73 10 -73 6 0 10 18 10 39 0 60 16 93 43 89
20 -3 22 -9 25 -65 3 -74 22 -86 22 -15 0 55 18 86 46 80 16 -3 19 -13 22 -66
4 -85 22 -79 22 8 0 67 -1 70 -27 76 -14 4 -34 2 -44 -4 -12 -7 -20 -8 -24 -2
-3 6 -28 9 -56 8 l-49 -2 0 -73z"/>
<path d="M16750 4045 c0 -8 9 -15 20 -15 11 0 20 7 20 15 0 8 -9 15 -20 15
-11 0 -20 -7 -20 -15z"/>
<path d="M13711 3648 c-19 -51 -36 -99 -39 -105 -2 -8 4 -13 16 -13 13 0 22 9
26 25 6 22 12 25 51 25 39 0 47 -3 55 -25 6 -15 17 -25 30 -25 11 0 20 1 20 3
0 1 -17 47 -38 102 -33 87 -41 100 -62 103 -23 2 -28 -5 -59 -90z m77 -5 c11
-32 10 -33 -19 -33 -32 0 -34 3 -18 49 13 36 21 32 37 -16z"/>
<path d="M14350 3635 l0 -105 59 0 c49 0 65 4 88 24 25 21 28 31 28 81 0 50
-3 60 -28 81 -23 20 -39 24 -88 24 l-59 0 0 -105z m126 40 c11 -17 14 -35 10
-59 -7 -37 -21 -46 -67 -46 l-29 0 0 65 0 65 35 0 c26 0 39 -6 51 -25z"/>
<path d="M15070 3635 c0 -98 1 -105 20 -105 19 0 20 7 20 105 0 98 -1 105 -20
105 -19 0 -20 -7 -20 -105z"/>
<path d="M16158 3729 c-10 -6 -18 -17 -18 -24 0 -8 -4 -15 -10 -15 -5 0 -10
-7 -10 -15 0 -8 5 -15 10 -15 6 0 10 -21 10 -46 0 -25 5 -54 10 -65 13 -23 60
-26 60 -4 0 8 -7 15 -15 15 -11 0 -15 12 -15 50 0 38 4 50 15 50 8 0 15 7 15
15 0 8 -6 15 -14 15 -8 0 -16 11 -18 24 -2 20 -6 23 -20 15z"/>
<path d="M14580 3670 c-13 -13 -20 -33 -20 -60 0 -68 64 -104 116 -65 21 16
18 17 -41 19 -20 1 -31 7 -33 19 -3 14 4 17 48 17 52 0 52 0 46 28 -14 57 -78
80 -116 42z m78 -27 c2 -9 -7 -13 -27 -13 -30 0 -39 9 -24 24 11 10 46 3 51
-11z"/>
<path d="M14725 3673 c3 -10 16 -46 28 -81 31 -87 50 -82 88 21 28 77 28 78 7
75 -16 -2 -26 -17 -39 -53 l-17 -50 -11 28 c-6 15 -14 39 -17 52 -4 16 -13 25
-26 25 -15 0 -18 -4 -13 -17z"/>
<path d="M14919 3671 c-18 -14 -24 -29 -24 -61 0 -32 6 -47 24 -61 26 -21 62
-24 93 -8 16 9 18 13 7 20 -8 4 -24 6 -37 2 -22 -5 -52 11 -52 28 0 5 23 9 50
9 47 0 50 2 50 25 0 32 -33 65 -64 65 -13 0 -34 -9 -47 -19z m69 -28 c2 -9 -7
-13 -27 -13 -23 0 -29 4 -24 16 6 17 44 15 51 -3z"/>
<path d="M15182 3683 c-22 -9 -44 -63 -37 -94 13 -59 86 -79 130 -34 63 62 -9
162 -93 128z m66 -35 c7 -7 12 -24 12 -38 0 -51 -52 -69 -72 -25 -22 49 25 98
60 63z"/>
<path d="M15520 3609 c0 -72 2 -79 20 -79 16 0 19 8 22 63 3 54 5 62 23 62 18
0 20 -8 23 -62 3 -54 6 -63 22 -63 16 0 19 9 22 63 3 54 5 62 23 62 18 0 20
-8 23 -62 3 -55 6 -63 22 -63 18 0 20 7 20 59 0 76 -22 108 -66 96 -16 -5 -33
-7 -39 -5 -5 2 -34 4 -62 5 l-53 3 0 -79z"/>
<path d="M15800 3670 c-13 -13 -20 -33 -20 -60 0 -68 64 -104 116 -65 21 16
18 17 -41 19 -20 1 -31 7 -33 19 -3 14 4 17 48 17 52 0 52 0 46 28 -14 57 -78
80 -116 42z m78 -27 c2 -9 -7 -13 -27 -13 -30 0 -39 9 -24 24 11 10 46 3 51
-11z"/>
<path d="M15960 3610 c0 -64 3 -80 15 -80 11 0 15 12 15 48 0 55 19 88 44 79
12 -5 16 -20 16 -67 0 -53 2 -60 20 -60 18 0 20 7 20 70 0 65 -2 71 -25 82
-19 8 -31 8 -50 0 -15 -7 -25 -8 -25 -2 0 6 -7 10 -15 10 -12 0 -15 -16 -15
-80z"/>
<path d="M16300 3370 c0 -5 9 -10 20 -10 11 0 20 5 20 10 0 6 -9 10 -20 10
-11 0 -20 -4 -20 -10z"/>
<path d="M16840 3370 c0 -5 9 -10 20 -10 11 0 20 5 20 10 0 6 -9 10 -20 10
-11 0 -20 -4 -20 -10z"/>
<path d="M13032 3008 l3 -103 61 -3 c49 -2 65 1 87 18 31 25 34 46 11 79 -12
17 -13 26 -5 34 16 16 14 43 -5 61 -11 12 -35 16 -85 16 l-70 0 3 -102z m126
45 c-2 -13 -15 -19 -46 -21 -37 -3 -42 -1 -42 17 0 18 6 21 46 21 38 0 45 -3
42 -17z m7 -73 c12 -20 -17 -40 -56 -40 -35 0 -39 3 -39 25 0 23 4 25 44 25
25 0 48 -5 51 -10z"/>
<path d="M13691 3019 c-24 -104 -26 -122 -10 -117 7 2 22 47 35 98 28 114 27
110 10 110 -10 0 -21 -29 -35 -91z"/>
<path d="M13850 3031 c0 -101 16 -126 84 -126 64 0 74 14 82 118 7 84 6 87
-15 87 -19 0 -21 -5 -21 -66 0 -76 -12 -104 -43 -104 -38 0 -47 19 -47 97 0
66 -2 73 -20 73 -18 0 -20 -7 -20 -79z"/>
<path d="M14250 3005 c0 -85 3 -105 14 -105 8 0 17 4 21 10 4 6 15 5 30 -2 52
-24 97 41 75 108 -12 36 -37 49 -76 40 -21 -6 -24 -3 -24 24 0 23 -4 30 -20
30 -19 0 -20 -7 -20 -105z m103 4 c13 -20 1 -68 -18 -76 -24 -8 -45 16 -45 52
0 17 3 35 7 39 12 11 45 2 56 -15z"/>
<path d="M14870 3027 c0 -91 9 -109 60 -122 28 -7 80 9 92 28 4 7 8 49 8 95 0
75 -2 82 -20 82 -18 0 -20 -7 -20 -80 0 -77 -1 -80 -25 -86 -43 -11 -55 10
-55 92 0 67 -2 74 -20 74 -18 0 -20 -7 -20 -83z"/>
<path d="M13259 3044 c-10 -13 -10 -17 2 -24 8 -6 18 -5 23 0 15 15 46 12 46
-5 0 -8 -16 -19 -40 -25 -46 -12 -54 -22 -46 -55 7 -29 34 -39 70 -26 17 7 26
7 26 1 0 -6 8 -10 18 -10 15 0 17 9 14 67 -2 38 -8 74 -14 81 -15 17 -83 15
-99 -4z m71 -83 c0 -20 -25 -35 -41 -25 -13 8 -11 32 4 37 25 11 37 7 37 -12z"/>
<path d="M13420 2978 c0 -63 3 -78 15 -78 11 0 15 12 15 46 0 55 14 84 40 84
16 0 19 -9 22 -62 2 -50 6 -63 21 -66 15 -3 17 5 17 66 0 45 -5 73 -13 80 -7
6 -36 10 -65 10 l-52 -1 0 -79z"/>
<path d="M14070 2978 c0 -70 2 -79 18 -76 13 2 18 16 22 63 4 48 9 61 24 63
26 5 36 -15 36 -75 0 -40 4 -53 15 -53 20 0 22 132 2 148 -7 6 -36 10 -65 10
l-52 -1 0 -79z"/>
<path d="M14442 3048 c-22 -22 -12 -30 28 -23 32 5 40 4 40 -9 0 -9 -15 -19
-39 -26 -25 -7 -42 -18 -46 -31 -12 -37 37 -70 74 -50 13 7 22 8 26 1 3 -5 12
-10 19 -10 15 0 9 128 -6 148 -13 15 -80 16 -96 0z m68 -88 c0 -24 -26 -38
-42 -22 -8 8 -8 15 2 27 18 21 40 19 40 -5z"/>
<path d="M14600 2979 c0 -72 2 -79 20 -79 16 0 19 8 22 63 3 59 4 62 28 62 24
0 25 -3 28 -63 3 -53 6 -63 20 -60 14 3 17 15 17 71 0 80 -6 86 -82 85 l-53
-1 0 -78z"/>
<path d="M15090 3046 c-23 -29 -8 -60 38 -76 23 -8 41 -19 39 -25 -4 -10 -17
-10 -62 -3 -33 5 -23 -25 11 -35 47 -14 89 9 89 48 0 26 -5 32 -42 43 -24 8
-43 18 -43 23 0 12 33 12 46 -1 5 -5 15 -6 23 0 12 7 12 11 2 24 -17 20 -84
21 -101 2z"/>
<path d="M15267 3043 c-38 -43 -28 -116 19 -134 31 -11 75 0 82 21 4 10 -3 11
-28 6 -32 -6 -60 6 -60 25 0 5 23 9 50 9 47 0 50 2 50 25 0 54 -77 87 -113 48z
m71 -30 c2 -9 -7 -13 -27 -13 -30 0 -39 9 -24 24 11 10 46 3 51 -11z"/>
<path d="M15420 2978 c0 -70 2 -79 18 -76 13 2 18 15 20 61 3 51 6 59 28 67
38 15 28 28 -21 28 l-45 -1 0 -79z"/>
<path d="M15390 2675 c0 -98 1 -105 20 -105 17 0 20 7 20 45 0 38 3 45 20 45
11 0 31 -18 50 -45 22 -32 38 -45 55 -45 l24 0 -20 34 c-11 19 -27 40 -35 47
-12 10 -11 13 8 23 29 15 36 61 12 87 -14 15 -31 19 -86 19 l-68 0 0 -105z
m125 45 c0 -10 -13 -16 -42 -18 -38 -3 -43 -1 -43 18 0 19 5 21 43 18 29 -2
42 -8 42 -18z"/>
<path d="M16650 2691 c0 -82 2 -91 22 -105 37 -26 108 -16 130 18 4 6 8 48 8
94 0 75 -2 82 -20 82 -17 0 -19 -8 -22 -82 l-3 -83 -30 -3 c-42 -5 -55 19 -55
100 0 54 -3 68 -15 68 -12 0 -15 -17 -15 -89z"/>
<path d="M15621 2704 c-56 -71 14 -164 91 -123 16 9 18 13 7 20 -8 4 -24 5
-37 2 -15 -3 -27 -1 -33 8 -16 25 -10 29 41 29 42 0 50 3 50 19 0 32 -39 71
-70 71 -19 0 -36 -9 -49 -26z m77 -21 c2 -9 -7 -13 -27 -13 -30 0 -39 9 -24
24 11 10 46 3 51 -11z"/>
<path d="M15780 2648 c0 -63 3 -78 15 -78 11 0 15 12 15 46 0 50 14 84 34 84
19 0 26 -23 26 -81 0 -37 4 -49 15 -49 11 0 15 12 15 46 0 50 14 84 34 84 19
0 26 -23 26 -81 0 -37 4 -49 15 -49 12 0 15 14 15 68 0 40 -5 73 -12 80 -15
15 -51 15 -66 0 -8 -8 -15 -8 -24 0 -7 5 -34 10 -60 10 l-48 -1 0 -79z"/>
<path d="M16072 2723 c-22 -9 -44 -63 -37 -94 13 -59 86 -79 130 -34 63 62 -9
162 -93 128z m66 -35 c7 -7 12 -24 12 -38 0 -51 -52 -69 -72 -25 -22 49 25 98
60 63z"/>
<path d="M16239 2653 c38 -104 55 -105 93 -3 15 41 28 76 28 78 0 1 -9 2 -19
2 -14 0 -24 -13 -36 -50 -9 -27 -18 -50 -20 -50 -2 0 -11 23 -20 50 -12 37
-22 50 -36 50 -17 0 -17 -5 10 -77z"/>
<path d="M16410 2710 c-29 -29 -28 -103 2 -124 26 -19 61 -20 90 -5 27 15 5
30 -33 22 -21 -4 -30 0 -38 16 -11 20 -10 21 42 21 l54 0 -5 30 c-8 56 -73 79
-112 40z m70 -25 c11 -13 7 -15 -25 -15 -32 0 -36 2 -25 15 7 8 18 15 25 15 7
0 18 -7 25 -15z"/>
<path d="M16878 2719 c-21 -12 -24 -52 -5 -68 8 -6 28 -14 45 -17 18 -4 32
-11 32 -16 0 -16 -32 -22 -52 -9 -12 7 -25 8 -35 3 -13 -8 -12 -11 8 -26 44
-30 119 -9 119 33 0 23 -15 35 -62 50 -21 7 -38 17 -38 22 0 12 43 12 56 -1 6
-6 15 -6 24 1 13 8 12 11 -4 24 -23 17 -63 19 -88 4z"/>
<path d="M17040 2710 c-13 -13 -20 -33 -20 -60 0 -68 64 -104 116 -65 21 16
18 17 -41 19 -20 1 -31 7 -33 19 -3 14 4 17 48 17 52 0 52 0 46 28 -14 57 -78
80 -116 42z m78 -27 c2 -9 -7 -13 -27 -13 -30 0 -39 9 -24 24 11 10 46 3 51
-11z"/>
<path d="M17200 2648 c0 -63 3 -78 15 -78 11 0 15 11 15 39 0 53 14 87 39 94
37 9 22 25 -24 25 l-45 -1 0 -79z"/>
<path d="M3526 3839 c-49 -38 -23 -86 60 -109 32 -9 44 -17 42 -29 -4 -22 -61
-27 -81 -7 -20 20 -47 21 -47 2 0 -37 57 -63 115 -52 38 7 55 30 55 71 0 23
-9 30 -65 56 -36 16 -63 34 -60 39 8 13 62 13 70 0 9 -15 45 -12 45 4 0 22
-40 46 -76 46 -17 0 -43 -9 -58 -21z"/>
<path d="M4200 3821 c0 -39 0 -39 -29 -28 -23 9 -34 7 -55 -6 -22 -15 -26 -25
-26 -62 0 -32 6 -51 20 -65 22 -22 60 -26 78 -8 9 9 12 9 12 0 0 -7 9 -12 20
-12 19 0 20 7 20 110 0 103 -1 110 -20 110 -17 0 -20 -7 -20 -39z m-11 -65
c17 -20 10 -67 -11 -79 -23 -15 -48 8 -48 42 0 45 35 66 59 37z"/>
<path d="M4380 3750 c0 -103 1 -110 20 -110 18 0 20 7 20 82 0 45 3 79 6 76 3
-3 13 -39 22 -79 14 -60 21 -75 38 -77 17 -2 23 8 41 80 l21 83 1 -67 c1 -80
7 -98 32 -98 17 0 19 9 19 110 l0 110 -35 0 c-33 0 -35 -2 -50 -52 -8 -28 -15
-57 -15 -64 0 -7 -4 -15 -9 -18 -5 -3 -17 26 -27 64 -18 69 -18 70 -51 70
l-33 0 0 -110z"/>
<path d="M3736 3779 c-20 -16 -26 -29 -26 -59 0 -63 65 -99 122 -69 16 9 18
13 7 20 -8 4 -24 6 -37 2 -22 -5 -52 11 -52 28 0 5 25 9 55 9 49 0 55 2 55 20
0 28 -44 70 -73 70 -13 0 -36 -9 -51 -21z m74 -24 c11 -13 7 -15 -24 -15 -34
0 -44 8 -29 23 11 12 40 8 53 -8z"/>
<path d="M3900 3720 c0 -73 2 -80 20 -80 16 0 19 8 22 63 3 59 4 62 28 62 24
0 25 -3 28 -62 3 -55 5 -63 23 -63 18 0 20 6 17 72 -3 69 -4 73 -31 82 -20 8
-34 7 -50 -3 -15 -10 -22 -10 -25 -2 -2 6 -10 11 -18 11 -11 0 -14 -18 -14
-80z"/>
<path d="M4659 3781 c-18 -14 -24 -29 -24 -61 0 -32 6 -47 24 -61 26 -21 72
-25 103 -8 29 16 4 31 -39 23 -25 -5 -33 -2 -42 15 -11 20 -9 21 44 21 52 0
55 1 55 25 0 57 -74 85 -121 46z m79 -28 c2 -9 -7 -13 -27 -13 -30 0 -39 9
-24 24 11 10 46 3 51 -11z"/>
<path d="M4830 3780 c-28 -28 -13 -54 42 -72 24 -8 43 -19 43 -24 0 -14 -44
-17 -60 -4 -9 8 -20 8 -31 2 -15 -8 -14 -11 7 -26 48 -33 134 -8 127 37 -2 16
-15 26 -50 37 -26 8 -49 20 -50 25 -2 14 31 19 46 6 14 -12 46 -5 46 10 0 14
-36 29 -69 29 -18 0 -40 -9 -51 -20z"/>
<path d="M5009 3781 c-31 -26 -18 -50 40 -72 23 -8 43 -20 44 -25 3 -13 -42
-17 -57 -5 -14 11 -46 5 -46 -8 0 -12 49 -31 80 -31 28 0 70 29 70 48 0 16
-35 40 -67 47 -18 3 -35 11 -39 16 -9 15 27 23 48 10 11 -7 25 -8 34 -3 14 8
14 11 -1 25 -22 23 -77 21 -106 -2z"/>
<path d="M5194 3785 c-16 -12 -17 -16 -5 -24 9 -6 21 -5 31 1 19 12 50 5 50
-11 0 -5 -21 -16 -47 -23 -43 -12 -48 -17 -48 -43 0 -23 6 -32 28 -39 20 -7
34 -7 47 2 12 7 21 8 25 2 3 -6 14 -10 23 -10 15 0 17 9 12 70 -4 47 -10 74
-20 80 -23 15 -74 12 -96 -5z m76 -84 c0 -15 -29 -33 -45 -27 -20 7 -19 23 3
29 29 8 42 7 42 -2z"/>
<path d="M6590 3575 c0 -8 9 -15 20 -15 11 0 20 7 20 15 0 8 -9 15 -20 15 -11
0 -20 -7 -20 -15z"/>
<path d="M6720 2871 c0 -104 1 -111 20 -111 17 0 20 7 20 45 0 38 3 45 20 45
13 0 32 -17 52 -45 22 -31 39 -45 55 -45 13 0 23 3 23 6 0 8 -42 67 -55 77 -7
6 -6 10 3 14 40 16 54 63 29 97 -11 15 -31 20 -90 24 l-77 5 0 -112z m127 58
c22 -22 2 -39 -43 -39 -40 0 -44 2 -44 25 0 22 4 25 38 25 21 0 43 -5 49 -11z"/>
<path d="M7487 2973 c-13 -12 -7 -23 13 -23 11 0 20 7 20 15 0 15 -21 21 -33
8z"/>
<path d="M8020 2871 c0 -104 1 -111 20 -111 18 0 20 7 20 77 0 42 3 74 6 70 3
-3 14 -36 23 -74 14 -55 21 -69 38 -71 19 -3 23 6 41 80 l20 83 1 -67 c1 -80
7 -98 32 -98 18 0 19 7 17 108 l-3 107 -32 3 c-30 3 -32 1 -48 -55 -9 -32 -19
-67 -22 -78 -4 -14 -12 2 -27 55 -21 72 -23 75 -54 78 l-32 3 0 -110z"/>
<path d="M6983 2910 c-45 -18 -58 -95 -23 -130 21 -21 83 -27 110 -10 22 13 5
23 -37 22 -33 -1 -52 10 -53 31 0 4 25 7 55 7 47 0 55 3 55 19 0 45 -61 80
-107 61z m57 -35 c11 -13 7 -15 -25 -15 -32 0 -36 2 -25 15 7 8 18 15 25 15 7
0 18 -7 25 -15z"/>
<path d="M7163 2910 c-72 -29 -46 -150 33 -150 22 0 42 8 57 23 l22 22 -25 3
c-13 2 -26 -1 -28 -7 -7 -21 -42 -11 -54 14 -8 19 -8 31 0 50 13 28 39 33 48
10 7 -18 30 -20 40 -3 9 14 -31 48 -55 47 -9 0 -26 -4 -38 -9z"/>
<path d="M7326 2899 c-21 -16 -26 -29 -26 -64 0 -52 24 -75 81 -75 39 0 79 29
43 31 -11 0 -32 2 -49 2 -19 1 -31 8 -33 20 -3 14 5 17 52 17 31 0 56 2 56 4
0 23 -26 66 -46 75 -35 16 -47 14 -78 -10z m72 -26 c2 -9 -7 -13 -27 -13 -31
0 -42 14 -18 23 19 8 40 3 45 -10z"/>
<path d="M7487 2913 c-4 -3 -7 -39 -7 -80 0 -66 2 -73 20 -73 18 0 20 7 20 80
0 60 -3 80 -13 80 -8 0 -17 -3 -20 -7z"/>
<path d="M7560 2912 c0 -5 13 -40 28 -78 40 -98 58 -98 96 1 16 41 26 78 23
81 -15 15 -36 -9 -53 -58 l-17 -53 -19 58 c-15 43 -24 57 -39 57 -10 0 -19 -4
-19 -8z"/>
<path d="M7783 2910 c-74 -31 -46 -150 36 -150 20 0 46 7 57 15 18 13 16 14
-26 15 -43 0 -70 13 -70 32 0 4 25 8 55 8 47 0 55 3 55 19 0 45 -61 80 -107
61z m57 -35 c11 -13 7 -15 -25 -15 -32 0 -36 2 -25 15 7 8 18 15 25 15 7 0 18
-7 25 -15z"/>
<path d="M8306 2899 c-21 -16 -26 -29 -26 -64 0 -52 24 -75 81 -75 39 0 79 29
43 31 -11 0 -32 2 -49 2 -19 1 -31 8 -33 20 -3 14 5 17 52 17 31 0 56 2 56 4
0 23 -26 66 -46 75 -35 16 -47 14 -78 -10z m72 -26 c2 -9 -7 -13 -27 -13 -31
0 -42 14 -18 23 19 8 40 3 45 -10z"/>
<path d="M8484 2911 c-50 -21 -36 -62 27 -84 19 -7 37 -16 39 -22 7 -13 -38
-19 -53 -7 -7 5 -20 6 -31 3 -17 -7 -17 -8 -2 -24 25 -25 98 -23 122 4 24 27
10 50 -42 67 -21 7 -43 17 -48 22 -16 16 24 23 50 10 17 -9 28 -10 35 -3 23
23 -56 51 -97 34z"/>
<path d="M8664 2911 c-50 -21 -36 -62 27 -84 19 -7 37 -16 39 -22 7 -13 -38
-19 -53 -7 -7 5 -20 6 -31 3 -17 -7 -17 -8 -2 -24 25 -25 98 -23 122 4 24 27
10 50 -42 67 -21 7 -43 17 -48 22 -16 16 24 23 50 10 17 -9 28 -10 35 -3 23
23 -56 51 -97 34z"/>
<path d="M8839 2901 c-22 -18 -22 -20 -6 -26 9 -4 24 -2 32 5 17 14 49 6 43
-12 -2 -6 -21 -16 -43 -22 -46 -13 -65 -38 -49 -63 9 -14 26 -18 75 -19 l64
-1 -3 63 c-3 52 -8 67 -25 79 -29 20 -60 19 -88 -4z m69 -88 c-4 -21 -36 -29
-51 -14 -7 7 -3 13 14 20 35 14 41 13 37 -6z"/>
<path d="M9216 2899 c-21 -16 -26 -29 -26 -64 0 -52 24 -75 81 -75 39 0 79 29
43 31 -11 0 -32 2 -49 2 -19 1 -31 8 -33 20 -3 14 5 17 52 17 31 0 56 2 56 4
0 23 -26 66 -46 75 -35 16 -47 14 -78 -10z m72 -26 c2 -9 -7 -13 -27 -13 -31
0 -42 14 -18 23 19 8 40 3 45 -10z"/>
<path d="M4303 2660 c-33 -13 -56 -66 -50 -113 7 -51 33 -77 85 -84 34 -5 44
-1 66 20 30 30 32 42 10 51 -11 4 -22 -1 -31 -14 -19 -27 -58 -26 -77 2 -44
62 21 141 75 92 13 -11 22 -13 35 -6 16 9 15 12 -9 36 -27 27 -63 32 -104 16z"/>
<path d="M4480 2565 c0 -87 3 -105 15 -105 11 0 15 12 15 48 0 55 19 88 44 79
12 -5 16 -20 16 -67 0 -53 2 -60 20 -60 18 0 20 7 20 70 0 65 -2 71 -25 82
-19 8 -31 8 -50 0 -24 -11 -25 -10 -25 23 0 24 -5 35 -15 35 -12 0 -15 -18
-15 -105z"/>
<path d="M4848 2659 c-10 -6 -18 -17 -18 -24 0 -8 -4 -15 -10 -15 -5 0 -10 -7
-10 -15 0 -8 5 -15 10 -15 6 0 10 -24 10 -53 0 -29 5 -58 12 -65 17 -17 58
-15 58 3 0 8 -7 15 -15 15 -11 0 -15 12 -15 50 0 38 4 50 15 50 8 0 15 7 15
15 0 8 -6 15 -14 15 -8 0 -16 11 -18 24 -2 20 -6 23 -20 15z"/>
<path d="M5010 2565 l0 -105 75 0 c68 0 75 2 75 20 0 18 -7 20 -55 20 l-55 0
0 85 c0 78 -2 85 -20 85 -19 0 -20 -7 -20 -105z"/>
<path d="M5190 2655 c0 -8 9 -15 20 -15 11 0 20 7 20 15 0 8 -9 15 -20 15 -11
0 -20 -7 -20 -15z"/>
<path d="M5468 2659 c-10 -6 -18 -17 -18 -24 0 -8 -4 -15 -10 -15 -5 0 -10 -7
-10 -15 0 -8 5 -15 10 -15 6 0 10 -26 10 -59 0 -44 4 -60 16 -65 28 -11 54 -6
54 9 0 8 -7 15 -15 15 -11 0 -15 12 -15 50 0 38 4 50 15 50 8 0 15 7 15 15 0
8 -6 15 -14 15 -8 0 -16 11 -18 24 -2 20 -6 23 -20 15z"/>
<path d="M5610 2663 c0 -4 15 -51 32 -105 30 -91 35 -99 56 -96 20 3 29 18 62
106 36 98 37 103 17 100 -16 -2 -27 -21 -47 -77 -15 -41 -29 -70 -32 -65 -3 5
-15 39 -27 77 -18 52 -27 67 -42 67 -10 0 -19 -3 -19 -7z"/>
<path d="M5830 2655 c0 -8 7 -15 15 -15 8 0 15 7 15 15 0 8 -7 15 -15 15 -8 0
-15 -7 -15 -15z"/>
<path d="M6310 2655 c0 -8 9 -15 20 -15 11 0 20 7 20 15 0 8 -9 15 -20 15 -11
0 -20 -7 -20 -15z"/>
<path d="M4666 2601 c-15 -17 -15 -19 -1 -25 9 -3 25 0 35 6 15 9 22 10 31 1
16 -16 3 -33 -25 -33 -33 0 -58 -23 -54 -50 5 -34 31 -47 68 -33 16 6 30 7 30
2 0 -5 8 -9 18 -9 15 0 17 8 12 70 -4 47 -10 74 -20 80 -25 16 -76 11 -94 -9z
m74 -70 c0 -23 -14 -41 -31 -41 -24 0 -26 37 -1 43 28 8 32 7 32 -2z"/>
<path d="M5190 2540 c0 -73 2 -80 20 -80 18 0 20 7 20 80 0 73 -2 80 -20 80
-18 0 -20 -7 -20 -80z"/>
<path d="M5288 2609 c-21 -12 -24 -52 -5 -68 8 -6 28 -14 45 -17 38 -8 43 -34
8 -34 -14 0 -27 4 -30 9 -3 5 -16 7 -28 3 l-21 -5 22 -19 c44 -35 126 -11 119
35 -3 20 -20 33 -78 55 -23 9 -23 11 -6 18 10 4 26 2 36 -4 10 -6 22 -7 31 -1
12 8 11 12 -5 24 -23 17 -63 19 -88 4z"/>
<path d="M5830 2540 c0 -64 3 -80 15 -80 12 0 15 16 15 80 0 64 -3 80 -15 80
-12 0 -15 -16 -15 -80z"/>
<path d="M5921 2594 c-56 -71 14 -164 91 -123 16 9 18 13 7 20 -8 4 -24 5 -37
2 -15 -3 -27 -1 -33 8 -16 25 -10 29 41 29 42 0 50 3 50 19 0 32 -39 71 -70
71 -19 0 -36 -9 -49 -26z m77 -21 c2 -9 -7 -13 -27 -13 -30 0 -39 9 -24 24 11
10 46 3 51 -11z"/>
<path d="M6063 2603 c2 -10 13 -46 23 -81 15 -53 21 -62 37 -60 13 2 24 15 30
33 5 17 11 37 14 45 3 9 11 -5 19 -32 11 -35 20 -48 33 -48 14 0 23 17 41 76
12 41 20 78 16 81 -13 14 -32 -9 -45 -53 -7 -27 -15 -44 -17 -39 -1 6 -8 29
-14 53 -16 62 -43 58 -62 -10 l-14 -53 -14 53 c-11 40 -18 52 -33 52 -14 0
-18 -5 -14 -17z"/>
<path d="M6310 2540 c0 -73 2 -80 20 -80 18 0 20 7 20 80 0 73 -2 80 -20 80
-18 0 -20 -7 -20 -80z"/>
<path d="M6390 2540 c0 -73 2 -80 20 -80 18 0 20 7 20 54 0 56 17 83 45 72 11
-4 15 -21 15 -66 0 -53 2 -60 20 -60 18 0 20 7 20 64 0 45 -5 69 -16 80 -18
19 -55 21 -72 4 -9 -9 -12 -9 -12 0 0 7 -9 12 -20 12 -18 0 -20 -7 -20 -80z"/>
<path d="M6590 2600 c-41 -41 -15 -140 36 -140 8 0 24 5 35 10 21 12 26 -3 9
-30 -7 -12 -16 -12 -52 -3 -52 14 -61 8 -29 -18 28 -23 84 -25 105 -3 23 22
23 204 1 204 -8 0 -15 -5 -15 -10 0 -7 -6 -7 -19 0 -29 15 -49 12 -71 -10z
m82 -35 c16 -36 -4 -78 -35 -73 -17 2 -23 11 -25 36 -2 19 -1 40 2 48 9 23 45
16 58 -11z"/>
<path d="M14510 2060 c-40 -40 -18 -78 58 -101 30 -9 42 -17 40 -28 -4 -22
-61 -27 -78 -7 -19 24 -49 21 -43 -5 9 -34 48 -52 95 -46 45 6 68 27 68 61 0
33 -13 46 -64 64 -27 9 -48 22 -48 27 2 14 42 19 55 6 16 -16 47 -13 47 3 0
43 -95 61 -130 26z"/>
<path d="M15048 2069 c-10 -6 -18 -17 -18 -24 0 -8 -4 -15 -10 -15 -5 0 -10
-7 -10 -15 0 -8 5 -15 10 -15 6 0 10 -24 10 -53 0 -29 5 -58 12 -65 17 -17 58
-15 58 3 0 8 -7 15 -15 15 -11 0 -15 12 -15 50 0 38 4 50 15 50 8 0 15 7 15
15 0 8 -6 15 -14 15 -8 0 -16 11 -18 24 -2 20 -6 23 -20 15z"/>
<path d="M15640 1975 c0 -98 1 -105 20 -105 18 0 20 7 20 78 0 88 12 83 31
-15 11 -55 16 -63 33 -61 15 2 23 18 36 73 15 67 16 68 23 36 4 -18 7 -51 7
-72 0 -32 3 -39 20 -39 19 0 20 7 20 105 l0 105 -34 0 c-34 0 -34 0 -52 -72
l-18 -73 -17 55 c-10 30 -18 63 -18 73 -1 13 -10 17 -36 17 l-35 0 0 -105z"/>
<path d="M17393 2050 c-3 -11 -9 -20 -14 -20 -5 0 -9 -7 -9 -15 0 -8 4 -15 10
-15 5 0 10 -28 12 -62 3 -60 4 -63 31 -66 29 -4 39 21 12 32 -10 4 -15 20 -15
51 0 33 4 45 15 45 8 0 15 7 15 15 0 8 -7 15 -15 15 -8 0 -15 9 -15 20 0 11
-5 20 -11 20 -6 0 -13 -9 -16 -20z"/>
<path d="M14866 2011 c-26 -28 -12 -57 32 -72 20 -6 41 -15 46 -20 15 -14 -25
-23 -46 -10 -12 7 -25 8 -35 3 -13 -8 -12 -11 8 -26 32 -22 75 -20 99 4 11 11
20 24 20 28 0 19 -27 41 -59 49 -42 11 -54 33 -18 33 14 0 27 -5 29 -12 3 -8
9 -8 22 -1 17 9 17 11 1 26 -23 23 -78 22 -99 -2z"/>
<path d="M15140 2010 c-29 -29 -28 -103 2 -124 26 -19 61 -20 90 -5 27 15 5
30 -33 22 -21 -4 -30 0 -38 16 -11 20 -10 21 42 21 l54 0 -5 30 c-8 56 -73 79
-112 40z m70 -25 c11 -13 7 -15 -25 -15 -32 0 -36 2 -25 15 7 8 18 15 25 15 7
0 18 -7 25 -15z"/>
<path d="M15290 1950 c0 -73 2 -80 20 -80 16 0 19 8 22 63 3 54 5 62 23 62 18
0 20 -8 23 -62 3 -54 6 -63 22 -63 16 0 19 9 22 63 3 54 5 62 23 62 18 0 20
-8 23 -62 3 -55 6 -63 22 -63 18 0 20 7 20 64 0 76 -17 102 -59 91 -14 -3 -30
-6 -36 -5 -5 0 -36 2 -67 5 l-58 4 0 -79z"/>
<path d="M15904 2015 c-16 -13 -17 -16 -4 -24 9 -7 18 -7 24 -1 6 6 18 10 29
10 30 0 16 -33 -19 -42 -40 -10 -58 -31 -49 -57 8 -26 46 -37 74 -21 14 7 21
7 21 0 0 -5 8 -10 18 -10 16 0 17 8 14 68 -4 73 -17 92 -62 92 -14 0 -35 -7
-46 -15z m66 -85 c0 -25 -27 -37 -43 -21 -9 10 -8 16 7 27 27 19 36 18 36 -6z"/>
<path d="M16060 1950 c0 -73 2 -80 20 -80 17 0 20 7 20 53 0 60 10 80 36 75
16 -3 20 -14 22 -66 3 -54 6 -62 22 -62 18 0 20 7 20 58 0 36 -6 66 -16 80
-17 24 -53 29 -72 10 -9 -9 -12 -9 -12 0 0 7 -9 12 -20 12 -18 0 -20 -7 -20
-80z"/>
<path d="M16255 2013 c-16 -15 -16 -17 0 -26 12 -6 20 -5 25 3 9 14 42 10 47
-6 2 -7 -15 -18 -39 -25 -46 -15 -62 -46 -38 -75 15 -17 51 -19 67 -3 8 8 13
8 17 0 4 -6 13 -11 20 -11 11 0 13 16 9 68 -3 37 -10 73 -16 80 -14 17 -73 15
-92 -5z m73 -79 c-5 -26 -35 -41 -50 -26 -11 11 -9 16 6 28 26 19 48 18 44 -2z"/>
<path d="M16610 2010 c-29 -29 -28 -103 2 -124 26 -19 61 -20 90 -5 27 15 5
30 -33 22 -21 -4 -30 0 -38 16 -11 20 -10 21 42 21 l54 0 -5 30 c-8 56 -73 79
-112 40z m70 -25 c11 -13 7 -15 -25 -15 -32 0 -36 2 -25 15 7 8 18 15 25 15 7
0 18 -7 25 -15z"/>
<path d="M16760 1950 c0 -73 2 -80 20 -80 16 0 19 8 22 63 3 54 5 62 23 62 18
0 20 -8 23 -62 3 -54 6 -63 22 -63 16 0 19 9 22 63 3 54 5 62 23 62 18 0 20
-8 23 -62 3 -55 6 -63 22 -63 18 0 20 7 20 64 0 76 -17 102 -59 91 -14 -3 -30
-6 -36 -5 -5 0 -36 2 -67 5 l-58 4 0 -79z"/>
<path d="M17040 2010 c-13 -13 -20 -33 -20 -60 0 -68 64 -104 116 -65 21 16
18 17 -41 19 -20 1 -31 7 -33 19 -3 14 4 17 48 17 52 0 52 0 46 28 -14 57 -78
80 -116 42z m78 -27 c2 -9 -7 -13 -27 -13 -30 0 -39 9 -24 24 11 10 46 3 51
-11z"/>
<path d="M17200 1950 c0 -64 3 -80 15 -80 11 0 15 12 15 48 0 55 19 88 44 79
12 -5 16 -20 16 -67 0 -53 2 -60 20 -60 18 0 20 7 20 70 0 65 -2 71 -25 82
-19 8 -31 8 -50 0 -15 -7 -25 -8 -25 -2 0 6 -7 10 -15 10 -12 0 -15 -16 -15
-80z"/>
<path d="M5247 2133 c-6 -10 -77 -194 -77 -199 0 -2 9 -4 20 -4 13 0 22 9 26
25 5 22 12 25 50 25 38 0 46 -4 56 -25 10 -22 48 -36 48 -18 0 3 -16 50 -37
105 -31 85 -39 98 -59 98 -13 0 -25 -3 -27 -7z m37 -67 c3 -13 9 -31 12 -40 5
-13 -1 -16 -25 -16 -35 0 -36 1 -19 47 14 39 24 42 32 9z"/>
<path d="M5500 2110 c0 -28 -2 -29 -30 -23 -45 8 -70 -18 -70 -74 0 -30 6 -49
20 -63 23 -23 29 -24 64 -10 17 6 26 6 26 0 0 -6 7 -10 15 -10 12 0 15 18 15
105 0 98 -1 105 -20 105 -16 0 -20 -7 -20 -30z m-2 -91 c5 -59 -48 -79 -62
-23 -9 34 10 66 37 62 17 -2 23 -11 25 -39z"/>
<path d="M5690 2111 c0 -28 -1 -29 -39 -24 -34 5 -41 2 -56 -20 -40 -62 11
-156 70 -129 15 7 25 8 25 2 0 -6 7 -10 15 -10 12 0 15 18 15 105 0 87 -3 105
-15 105 -10 0 -15 -10 -15 -29z m-10 -72 c23 -42 -13 -95 -46 -68 -14 12 -19
70 -7 82 13 14 43 6 53 -14z"/>
<path d="M5772 2128 c7 -19 38 -22 38 -4 0 10 -9 16 -21 16 -12 0 -19 -5 -17
-12z"/>
<path d="M6311 2039 c-21 -94 -22 -125 -2 -103 8 9 51 172 51 194 0 5 -6 10
-13 10 -9 0 -21 -35 -36 -101z"/>
<path d="M6472 2038 c3 -89 5 -103 21 -106 14 -3 17 4 17 42 0 39 3 46 20 46
13 0 32 -17 52 -45 29 -41 68 -61 68 -34 0 12 -39 70 -55 81 -7 5 -6 8 2 8 20
0 43 30 43 55 0 42 -25 55 -101 55 l-70 0 3 -102z m126 45 c-2 -13 -15 -19
-46 -21 -37 -3 -42 -1 -42 17 0 18 6 21 46 21 38 0 45 -3 42 -17z"/>
<path d="M7480 2125 c0 -8 7 -15 15 -15 8 0 15 7 15 15 0 8 -7 15 -15 15 -8 0
-15 -7 -15 -15z"/>
<path d="M7849 2111 c-56 -57 -31 -158 44 -176 31 -8 75 12 95 42 13 20 13 23
-2 29 -11 4 -25 -1 -37 -15 -11 -11 -28 -21 -38 -21 -41 0 -65 65 -41 111 11
20 64 27 75 9 9 -15 45 -12 45 4 0 22 -40 46 -78 46 -24 0 -42 -9 -63 -29z"/>
<path d="M8040 2035 c0 -97 1 -105 20 -105 16 0 19 8 22 63 3 59 4 62 28 62
24 0 25 -3 28 -63 3 -53 6 -63 20 -60 19 4 28 60 17 115 -7 37 -45 54 -77 34
-16 -10 -18 -8 -18 24 0 28 -4 35 -20 35 -19 0 -20 -7 -20 -105z"/>
<path d="M8413 2133 c-7 -2 -13 -13 -13 -24 0 -10 -4 -19 -10 -19 -5 0 -10 -7
-10 -15 0 -8 5 -15 10 -15 6 0 10 -24 10 -54 0 -59 16 -82 50 -71 23 7 27 25
5 25 -11 0 -15 12 -15 49 0 34 4 51 15 55 8 3 15 10 15 16 0 5 -7 10 -15 10
-9 0 -15 9 -15 25 0 25 -4 28 -27 18z"/>
<path d="M5772 2013 c3 -65 6 -78 21 -81 15 -3 17 6 17 77 0 75 -2 81 -20 81
-19 0 -21 -5 -18 -77z"/>
<path d="M5860 2008 c0 -63 3 -78 15 -78 11 0 15 12 15 46 0 55 14 84 40 84
16 0 19 -9 22 -62 2 -50 6 -63 21 -66 15 -3 17 5 17 66 0 45 -5 73 -13 80 -7
6 -36 10 -65 10 l-52 -1 0 -79z"/>
<path d="M6058 2079 c-20 -11 -33 -67 -23 -98 11 -35 51 -56 80 -43 22 10 25
9 25 -8 0 -24 -30 -33 -65 -20 -31 12 -40 8 -32 -14 8 -20 70 -31 96 -16 31
16 41 50 41 136 0 67 -2 74 -20 74 -11 0 -20 -5 -20 -12 0 -9 -3 -9 -12 0 -14
14 -47 15 -70 1z m70 -31 c16 -16 15 -50 -2 -74 -12 -15 -18 -17 -33 -8 -21
13 -27 36 -19 70 7 26 34 32 54 12z"/>
<path d="M6706 2074 c-58 -57 -9 -159 65 -138 37 11 38 30 2 27 -27 -2 -53 12
-53 28 0 5 23 9 50 9 47 0 50 2 50 25 0 53 -77 87 -114 49z m72 -31 c2 -9 -7
-13 -27 -13 -30 0 -39 9 -24 24 11 10 46 3 51 -11z"/>
<path d="M6860 2008 c0 -61 3 -78 15 -78 10 0 15 15 17 56 2 42 8 60 21 68 25
16 37 -7 37 -71 0 -40 4 -53 15 -53 11 0 15 12 15 46 0 50 14 84 34 84 19 0
26 -23 26 -81 0 -37 4 -49 15 -49 12 0 15 14 15 68 0 40 -5 73 -12 80 -15 15
-51 15 -66 0 -8 -8 -15 -8 -24 0 -7 5 -34 10 -60 10 l-48 -1 0 -79z"/>
<path d="M7147 2079 c-51 -30 -40 -120 17 -139 79 -26 137 58 85 124 -22 28
-68 35 -102 15z m71 -31 c26 -26 8 -88 -24 -88 -20 0 -44 30 -44 54 0 26 17
46 40 46 9 0 21 -5 28 -12z"/>
<path d="M7319 2013 c21 -58 33 -78 47 -78 13 0 25 20 46 78 26 73 27 77 9 77
-14 0 -24 -13 -36 -50 -9 -27 -18 -50 -20 -50 -2 0 -11 23 -20 50 -12 37 -22
50 -36 50 -17 0 -17 -5 10 -77z"/>
<path d="M7480 2010 c0 -64 3 -80 15 -80 12 0 15 16 15 80 0 64 -3 80 -15 80
-12 0 -15 -16 -15 -80z"/>
<path d="M7565 2066 c-39 -59 11 -155 65 -126 26 14 38 5 23 -18 -11 -17 -40
-20 -82 -7 -21 7 -22 6 -12 -13 14 -27 63 -37 98 -20 27 13 28 15 31 111 2 82
0 97 -13 97 -8 0 -15 -5 -15 -12 0 -9 -3 -9 -12 0 -21 21 -66 14 -83 -12z m85
-27 c23 -42 -13 -95 -46 -68 -14 12 -19 70 -7 82 13 14 43 6 53 -14z"/>
<path d="M8236 2074 c-23 -22 -21 -25 25 -22 51 4 64 -17 17 -27 -43 -10 -58
-22 -58 -51 0 -31 34 -50 66 -35 15 6 25 7 29 1 4 -6 12 -10 20 -10 11 0 13
15 8 73 -3 39 -11 75 -17 79 -19 13 -74 8 -90 -8z m72 -80 c-5 -26 -37 -42
-48 -24 -11 18 6 40 32 40 13 0 18 -6 16 -16z"/>
<path d="M5060 1075 c0 -87 3 -105 15 -105 11 0 15 12 15 45 l0 45 45 0 c38 0
45 3 45 19 0 16 -8 20 -42 23 -31 2 -44 8 -46 20 -3 14 6 17 50 20 41 2 54 7
56 21 3 15 -5 17 -67 17 l-71 0 0 -105z"/>
<path d="M5240 1164 c0 -9 7 -14 17 -12 25 5 28 28 4 28 -12 0 -21 -6 -21 -16z"/>
<path d="M5600 1150 c0 -28 -2 -29 -30 -23 -45 8 -70 -18 -70 -74 0 -30 6 -49
20 -63 23 -23 29 -24 64 -10 17 6 26 6 26 0 0 -6 7 -10 15 -10 12 0 15 18 15
105 0 98 -1 105 -20 105 -16 0 -20 -7 -20 -30z m-2 -91 c5 -59 -48 -79 -62
-23 -9 34 10 66 37 62 17 -2 23 -11 25 -39z"/>
<path d="M5690 1164 c0 -9 7 -14 17 -12 25 5 28 28 4 28 -12 0 -21 -6 -21 -16z"/>
<path d="M6246 1154 c-21 -22 -26 -36 -26 -75 0 -66 32 -104 88 -104 41 0 82
26 82 51 0 24 -21 26 -44 5 -27 -26 -48 -27 -69 -3 -20 22 -22 83 -5 100 15
15 64 16 73 2 9 -15 45 -12 45 4 0 23 -41 46 -81 46 -26 0 -44 -8 -63 -26z"/>
<path d="M6440 1075 c0 -97 1 -105 20 -105 16 0 19 8 22 63 3 59 4 62 28 62
24 0 25 -3 28 -63 3 -53 6 -63 20 -60 19 4 28 60 17 115 -7 37 -45 54 -77 34
-16 -10 -18 -8 -18 24 0 28 -4 35 -20 35 -19 0 -20 -7 -20 -105z"/>
<path d="M6815 1172 c-6 -4 -17 -20 -25 -36 -12 -23 -12 -30 -2 -33 8 -3 12
-25 12 -63 0 -50 3 -60 20 -65 11 -3 27 -2 36 3 16 9 15 11 -4 21 -18 9 -22
21 -22 56 0 33 4 45 15 45 19 0 20 26 1 33 -8 3 -16 15 -18 26 -2 12 -7 17
-13 13z"/>
<path d="M5240 1049 c0 -71 2 -80 18 -77 14 3 17 16 20 81 3 72 1 77 -18 77
-18 0 -20 -6 -20 -81z"/>
<path d="M5322 1051 c3 -63 6 -76 21 -79 14 -3 17 5 17 50 0 61 10 81 36 76
16 -3 20 -14 22 -66 3 -54 6 -62 22 -62 18 0 20 7 20 61 0 89 -8 98 -80 97
l-61 -1 3 -76z"/>
<path d="M5690 1049 c0 -71 2 -80 18 -77 14 3 17 16 20 81 3 72 1 77 -18 77
-18 0 -20 -6 -20 -81z"/>
<path d="M5772 1051 c3 -63 6 -76 21 -79 14 -3 17 5 17 50 0 61 10 81 36 76
16 -3 20 -14 22 -66 3 -54 6 -62 22 -62 18 0 20 7 20 61 0 89 -8 98 -80 97
l-61 -1 3 -76z"/>
<path d="M6632 1118 c-22 -22 -12 -30 28 -23 32 5 40 4 40 -9 0 -9 -15 -19
-39 -26 -25 -7 -42 -18 -46 -31 -12 -37 37 -70 74 -50 13 7 22 8 26 1 3 -5 12
-10 19 -10 15 0 9 128 -6 148 -13 15 -80 16 -96 0z m68 -88 c0 -24 -26 -38
-42 -22 -8 8 -8 15 2 27 18 21 40 19 40 -5z"/>
<path d="M4880 245 l0 -105 63 0 c75 0 107 18 107 59 0 16 -7 34 -15 41 -11 9
-13 16 -5 24 17 17 12 64 -9 76 -11 5 -47 10 -80 10 l-61 0 0 -105z m125 45
c0 -10 -13 -16 -42 -18 -38 -3 -43 -1 -43 18 0 19 5 21 43 18 29 -2 42 -8 42
-18z m0 -85 c0 -16 -8 -21 -42 -23 -40 -3 -43 -2 -43 23 0 25 3 26 43 23 34
-2 42 -7 42 -23z"/>
<path d="M5090 245 c0 -98 1 -105 20 -105 19 0 20 7 20 105 0 98 -1 105 -20
105 -19 0 -20 -7 -20 -105z"/>
<path d="M5530 245 c0 -98 1 -105 20 -105 15 0 20 7 20 29 0 43 14 45 36 6 10
-20 26 -35 36 -35 24 0 23 5 -8 58 l-26 44 28 29 28 29 -26 0 c-17 0 -34 -10
-47 -27 l-20 -28 -1 53 c0 45 -3 52 -20 52 -19 0 -20 -7 -20 -105z"/>
<path d="M5950 245 c0 -87 3 -105 15 -105 11 0 15 12 15 48 0 55 19 88 44 79
12 -5 16 -20 16 -67 0 -53 2 -60 20 -60 18 0 20 7 20 70 0 65 -2 71 -25 82
-19 8 -31 8 -50 0 -24 -11 -25 -10 -25 23 0 24 -5 35 -15 35 -12 0 -15 -18
-15 -105z"/>
<path d="M6318 339 c-10 -6 -18 -17 -18 -24 0 -8 -4 -15 -10 -15 -5 0 -10 -7
-10 -15 0 -8 5 -15 10 -15 6 0 10 -24 10 -53 0 -29 5 -58 12 -65 17 -17 58
-15 58 3 0 8 -7 15 -15 15 -11 0 -15 12 -15 50 0 38 4 50 15 50 8 0 15 7 15
15 0 8 -6 15 -14 15 -8 0 -16 11 -18 24 -2 20 -6 23 -20 15z"/>
<path d="M5195 275 c-50 -49 -17 -135 50 -135 12 0 34 9 49 21 20 16 26 29 26
59 0 71 -76 104 -125 55z m85 -30 c12 -32 -3 -75 -28 -75 -25 0 -42 20 -42 50
0 51 53 70 70 25z"/>
<path d="M5375 275 c-65 -65 14 -168 96 -125 10 6 19 15 19 19 0 16 -30 21
-50 9 -35 -22 -63 26 -44 76 7 18 35 21 51 5 7 -7 17 -8 28 -1 16 8 15 11 -6
26 -33 23 -66 20 -94 -9z"/>
<path d="M5792 280 c-15 -15 -22 -33 -22 -60 0 -68 64 -102 119 -64 20 15 21
18 8 26 -10 5 -23 4 -35 -3 -32 -20 -52 -5 -52 41 0 44 20 61 49 43 9 -5 25
-7 35 -3 18 6 18 7 -5 23 -32 23 -71 21 -97 -3z"/>
<path d="M6136 281 c-15 -17 -15 -19 -1 -25 9 -3 25 0 35 6 15 9 22 10 31 1
16 -16 3 -33 -25 -33 -33 0 -58 -23 -54 -50 5 -34 31 -47 68 -33 16 6 30 7 30
2 0 -5 8 -9 18 -9 15 0 17 8 12 70 -4 47 -10 74 -20 80 -25 16 -76 11 -94 -9z
m74 -70 c0 -23 -14 -41 -31 -41 -24 0 -26 37 -1 43 28 8 32 7 32 -2z"/>
</g>
</svg>
