<?xml version="1.0" encoding="us-ascii" standalone="no"?><svg xmlns="http://www.w3.org/2000/svg" xmlns:xlink="http://www.w3.org/1999/xlink" contentStyleType="text/css" height="1318px" preserveAspectRatio="none" style="width:442px;height:1318px;background:#FFFFFF;" version="1.1" viewBox="0 0 442 1318" width="442px" zoomAndPan="magnify"><defs/><g><!--cluster Messaging Website--><g id="cluster_Messaging Website"><rect fill="none" height="1301" rx="2.5" ry="2.5" style="stroke:#181818;stroke-width:1.0;" width="286" x="150" y="11.376"/><text fill="#000000" font-family="sans-serif" font-size="14" font-weight="bold" lengthAdjust="spacing" textLength="134" x="226" y="28.3419">Messaging Website</text></g><g id="elem_Login"><ellipse cx="292.9402" cy="1035.1826" fill="#F1F1F1" rx="42.4402" ry="21.8066" style="stroke:#181818;stroke-width:0.5;"/><text fill="#000000" font-family="sans-serif" font-size="14" lengthAdjust="spacing" textLength="38" x="270.9402" y="1039.9155">Login</text></g><g id="elem_Logout"><ellipse cx="292.8428" cy="1114.3051" fill="#F1F1F1" rx="49.8428" ry="21.9292" style="stroke:#181818;stroke-width:0.5;"/><text fill="#000000" font-family="sans-serif" font-size="14" lengthAdjust="spacing" textLength="47" x="266.3428" y="1119.0381">Logout</text></g><g id="elem_Send Message"><ellipse cx="293.0626" cy="505.6029" fill="#F1F1F1" rx="86.0626" ry="22.2269" style="stroke:#181818;stroke-width:0.5;"/><text fill="#000000" font-family="sans-serif" font-size="14" lengthAdjust="spacing" textLength="91" x="244.5626" y="510.3358">Send Message</text></g><g id="elem_Read Message"><ellipse cx="293.0626" cy="693.6029" fill="#F1F1F1" rx="86.0626" ry="22.2269" style="stroke:#181818;stroke-width:0.5;"/><text fill="#000000" font-family="sans-serif" font-size="14" lengthAdjust="spacing" textLength="91" x="244.5626" y="698.3358">Read Message</text></g><g id="elem_Delete Message"><ellipse cx="292.8268" cy="955.1287" fill="#F1F1F1" rx="91.8268" ry="22.2527" style="stroke:#181818;stroke-width:0.5;"/><text fill="#000000" font-family="sans-serif" font-size="14" lengthAdjust="spacing" textLength="98" x="240.8268" y="959.8617">Delete Message</text></g><g id="elem_Search Message"><ellipse cx="292.7678" cy="76.1484" fill="#F1F1F1" rx="96.7678" ry="22.2724" style="stroke:#181818;stroke-width:0.5;"/><text fill="#000000" font-family="sans-serif" font-size="14" lengthAdjust="spacing" textLength="104" x="237.7678" y="80.8814">Search Message</text></g><g id="elem_Create Group Chat"><ellipse cx="293.2483" cy="157.6256" fill="#F1F1F1" rx="104.2483" ry="23.2497" style="stroke:#181818;stroke-width:0.5;"/><text fill="#000000" font-family="sans-serif" font-size="14" lengthAdjust="spacing" textLength="123" x="228.7483" y="162.3586">Create Group Chat</text></g><g id="elem_Join Group Chat"><ellipse cx="292.9149" cy="238.1545" fill="#F1F1F1" rx="98.4149" ry="22.2786" style="stroke:#181818;stroke-width:0.5;"/><text fill="#000000" font-family="sans-serif" font-size="14" lengthAdjust="spacing" textLength="106" x="236.9149" y="242.8875">Join Group Chat</text></g><g id="elem_Leave Group Chat"><ellipse cx="292.9861" cy="319.3732" fill="#F1F1F1" rx="102.9861" ry="22.9972" style="stroke:#181818;stroke-width:0.5;"/><text fill="#000000" font-family="sans-serif" font-size="14" lengthAdjust="spacing" textLength="119" x="230.4861" y="324.1061">Leave Group Chat</text></g><g id="elem_Send Message in Group Chat"><ellipse cx="293.1097" cy="778.1979" fill="#F1F1F1" rx="127.1097" ry="27.8219" style="stroke:#181818;stroke-width:0.5;"/><text fill="#000000" font-family="sans-serif" font-size="14" lengthAdjust="spacing" textLength="187" x="196.6097" y="782.9309">Send Message in Group Chat</text></g><g id="elem_Read Message in Group Chat"><ellipse cx="293.1097" cy="869.1979" fill="#F1F1F1" rx="127.1097" ry="27.8219" style="stroke:#181818;stroke-width:0.5;"/><text fill="#000000" font-family="sans-serif" font-size="14" lengthAdjust="spacing" textLength="187" x="196.6097" y="873.9309">Read Message in Group Chat</text></g><g id="elem_Upload Attachment"><ellipse cx="293.1853" cy="401.513" fill="#F1F1F1" rx="106.1853" ry="23.6371" style="stroke:#181818;stroke-width:0.5;"/><text fill="#000000" font-family="sans-serif" font-size="14" lengthAdjust="spacing" textLength="129" x="225.6853" y="406.246">Upload Attachment</text></g><g id="elem_Download Attachment"><ellipse cx="292.9873" cy="587.3734" fill="#F1F1F1" rx="112.9873" ry="24.9975" style="stroke:#181818;stroke-width:0.5;"/><text fill="#000000" font-family="sans-serif" font-size="14" lengthAdjust="spacing" textLength="149" x="215.4873" y="592.1064">Download Attachment</text></g><g id="elem_Delete User"><ellipse cx="293.242" cy="1274.5174" fill="#F1F1F1" rx="71.242" ry="22.1414" style="stroke:#181818;stroke-width:0.5;"/><text fill="#000000" font-family="sans-serif" font-size="14" lengthAdjust="spacing" textLength="73" x="253.742" y="1279.2503">Delete User</text></g><g id="elem_Delete Group Chat"><ellipse cx="292.7994" cy="1194.4358" fill="#F1F1F1" rx="103.2994" ry="23.0599" style="stroke:#181818;stroke-width:0.5;"/><text fill="#000000" font-family="sans-serif" font-size="14" lengthAdjust="spacing" textLength="120" x="229.7994" y="1199.1688">Delete Group Chat</text></g><!--entity User--><g id="elem_User"><ellipse cx="28.5" cy="659.876" fill="#F1F1F1" rx="8" ry="8" style="stroke:#181818;stroke-width:0.5;"/><path d="M28.5,667.876 L28.5,694.876 M15.5,675.876 L41.5,675.876 M28.5,694.876 L15.5,709.876 M28.5,694.876 L41.5,709.876 " fill="none" style="stroke:#181818;stroke-width:0.5;"/><text fill="#000000" font-family="sans-serif" font-size="14" lengthAdjust="spacing" textLength="30" x="13.5" y="726.3419">User</text></g><!--entity Admin--><g id="elem_Admin"><ellipse cx="28.5" cy="1080.876" fill="#F1F1F1" rx="8" ry="8" style="stroke:#181818;stroke-width:0.5;"/><path d="M28.5,1088.876 L28.5,1115.876 M15.5,1096.876 L41.5,1096.876 M28.5,1115.876 L15.5,1130.876 M28.5,1115.876 L41.5,1130.876 " fill="none" style="stroke:#181818;stroke-width:0.5;"/><text fill="#000000" font-family="sans-serif" font-size="14" lengthAdjust="spacing" textLength="45" x="6" y="1147.3419">Admin</text></g><!--link User to Login--><g id="link_User_Login"><path d="M31.25,735.646 C36.59,803.346 57.86,934.616 142,995.376 C174.01,1018.496 212.5585,1027.4847 244.7685,1031.6047 " fill="none" id="User-to-Login" style="stroke:#181818;stroke-width:1.0;"/><polygon fill="#181818" points="250.72,1032.366,242.3002,1027.2564,245.7604,1031.7316,241.2852,1035.1917,250.72,1032.366" style="stroke:#181818;stroke-width:1.0;"/></g><!--link User to Logout--><g id="link_User_Logout"><path d="M30.52,735.406 C33.31,795.096 43.6,906.776 81,993.376 C98.87,1034.746 104.63,1049.196 142,1074.376 C172.4,1094.856 206.9019,1103.9396 238.1319,1108.8196 " fill="none" id="User-to-Logout" style="stroke:#181818;stroke-width:1.0;"/><polygon fill="#181818" points="244.06,1109.746,235.7855,1104.4044,239.1199,1108.974,234.5504,1112.3085,244.06,1109.746" style="stroke:#181818;stroke-width:1.0;"/></g><!--link User to Send Message--><g id="link_User_Send Message"><path d="M43.51,663.436 C61.31,628.906 95.42,573.206 142,544.376 C164.42,530.496 185.8138,522.8856 210.8938,517.0956 " fill="none" id="User-to-Send Message" style="stroke:#181818;stroke-width:1.0;"/><polygon fill="#181818" points="216.74,515.746,207.0709,513.873,211.8681,516.8707,208.8704,521.6679,216.74,515.746" style="stroke:#181818;stroke-width:1.0;"/></g><!--link User to Read Message--><g id="link_User_Read Message"><path d="M43.61,693.376 C73.96,693.376 141.49,693.376 200.72,693.376 " fill="none" id="User-to-Read Message" style="stroke:#181818;stroke-width:1.0;"/><polygon fill="#181818" points="206.72,693.376,197.72,689.376,201.72,693.376,197.72,697.376,206.72,693.376" style="stroke:#181818;stroke-width:1.0;"/></g><!--link User to Delete Message--><g id="link_User_Delete Message"><path d="M42.56,735.386 C51.67,762.216 65.03,797.286 81,826.376 C100.12,861.206 113.26,864.486 134,898.376 C138.15,905.156 135.85,909.336 142,914.376 C161.1,930.046 179.8935,938.2735 203.6335,944.2835 " fill="none" id="User-to-Delete Message" style="stroke:#181818;stroke-width:1.0;"/><polygon fill="#181818" points="209.45,945.756,201.7069,939.6695,204.6029,944.5289,199.7436,947.4249,209.45,945.756" style="stroke:#181818;stroke-width:1.0;"/></g><!--link User to Search Message--><g id="link_User_Search Message"><path d="M29.04,651.316 C29.24,568.986 35.23,381.546 81,232.376 C98.09,176.686 96.47,152.716 142,116.376 C160.33,101.746 177.7145,93.9614 200.3545,88.0514 " fill="none" id="User-to-Search Message" style="stroke:#181818;stroke-width:1.0;"/><polygon fill="#181818" points="206.16,86.536,196.4415,84.9389,201.3221,87.7989,198.4621,92.6795,206.16,86.536" style="stroke:#181818;stroke-width:1.0;"/></g><!--link User to Create Group Chat--><g id="link_User_Create Group Chat"><path d="M30.12,651.336 C32.28,579.486 41.58,429.176 81,309.376 C98.6,255.906 97.79,233.226 142,198.376 C159.7,184.416 176.0413,176.8206 197.8013,170.7406 " fill="none" id="User-to-Create Group Chat" style="stroke:#181818;stroke-width:1.0;"/><polygon fill="#181818" points="203.58,169.126,193.8356,167.6955,198.7644,170.4715,195.9884,175.4003,203.58,169.126" style="stroke:#181818;stroke-width:1.0;"/></g><!--link User to Join Group Chat--><g id="link_User_Join Group Chat"><path d="M31.68,651.306 C35.89,590.536 47.88,475.396 81,383.376 C99.28,332.596 99.12,311.146 142,278.376 C160.52,264.216 177.8473,256.592 200.3573,250.672 " fill="none" id="User-to-Join Group Chat" style="stroke:#181818;stroke-width:1.0;"/><polygon fill="#181818" points="206.16,249.146,196.4386,247.5666,201.3244,250.4177,198.4734,255.3035,206.16,249.146" style="stroke:#181818;stroke-width:1.0;"/></g><!--link User to Leave Group Chat--><g id="link_User_Leave Group Chat"><path d="M31.49,651.186 C37.15,580.636 58.86,438.756 142,360.376 C158.01,345.286 173.2657,337.3111 194.4857,331.1811 " fill="none" id="User-to-Leave Group Chat" style="stroke:#181818;stroke-width:1.0;"/><polygon fill="#181818" points="200.25,329.516,190.4934,328.1709,195.4464,330.9036,192.7137,335.8566,200.25,329.516" style="stroke:#181818;stroke-width:1.0;"/></g><!--link User to Send Message in Group Chat--><g id="link_User_Send Message in Group Chat"><path d="M43.51,716.456 C52.55,729.236 65.51,744.156 81,752.376 C106.76,766.046 130.7692,772.9151 159.8792,777.0351 " fill="none" id="User-to-Send Message in Group Chat" style="stroke:#181818;stroke-width:1.0;"/><polygon fill="#181818" points="165.82,777.876,157.4694,772.6542,160.8693,777.1753,156.3483,780.5753,165.82,777.876" style="stroke:#181818;stroke-width:1.0;"/></g><!--link User to Read Message in Group Chat--><g id="link_User_Read Message in Group Chat"><path d="M43.53,723.256 C52.66,740.796 65.7,762.706 81,779.376 C113.05,814.286 155.1855,834.3573 197.2155,847.8073 " fill="none" id="User-to-Read Message in Group Chat" style="stroke:#181818;stroke-width:1.0;"/><polygon fill="#181818" points="202.93,849.636,195.5773,843.0832,198.1679,848.112,193.1391,850.7026,202.93,849.636" style="stroke:#181818;stroke-width:1.0;"/></g><!--link Send Message to Upload Attachment--><g id="link_Send Message_Upload Attachment"><path d="M293,483.316 C293,466.266 293,448.696 293,431.216 " fill="none" id="Send Message-to-Upload Attachment" style="stroke:#181818;stroke-width:1.0;stroke-dasharray:7.0,7.0;"/><polygon fill="#181818" points="293,425.216,289,434.216,293,430.216,297,434.216,293,425.216" style="stroke:#181818;stroke-width:1.0;"/><text fill="#000000" font-family="sans-serif" font-size="13" lengthAdjust="spacing" textLength="51" x="252.5" y="457.023">includes</text></g><!--link Read Message to Download Attachment--><g id="link_Read Message_Download Attachment"><path d="M293,671.156 C293,654.036 293,636.356 293,618.546 " fill="none" id="Read Message-to-Download Attachment" style="stroke:#181818;stroke-width:1.0;stroke-dasharray:7.0,7.0;"/><polygon fill="#181818" points="293,612.546,289,621.546,293,617.546,297,621.546,293,612.546" style="stroke:#181818;stroke-width:1.0;"/><text fill="#000000" font-family="sans-serif" font-size="13" lengthAdjust="spacing" textLength="51" x="252.5" y="644.773">includes</text></g><!--link Send Message in Group Chat to Upload Attachment--><g id="link_Send Message in Group Chat_Upload Attachment"><path d="M190.93,761.456 C172.99,754.756 155.7,745.406 142,732.376 C112.56,704.376 117.99,686.396 111,646.376 C99.76,582.036 110.44,504.206 142,465.376 C160.77,442.286 183.7074,429.3696 210.9974,419.8096 " fill="none" id="Send Message in Group Chat-to-Upload Attachment" style="stroke:#181818;stroke-width:1.0;stroke-dasharray:7.0,7.0;"/><polygon fill="#181818" points="216.66,417.826,206.8437,417.0264,211.9412,419.479,209.4885,424.5765,216.66,417.826" style="stroke:#181818;stroke-width:1.0;"/><text fill="#000000" font-family="sans-serif" font-size="13" lengthAdjust="spacing" textLength="51" x="82" y="637.273">includes</text></g><!--link Read Message in Group Chat to Download Attachment--><g id="link_Read Message in Group Chat_Download Attachment"><path d="M191.61,852.296 C173.5,845.606 155.98,836.306 142,823.376 C114.31,797.766 118.01,781.436 111,744.376 C103.06,702.396 111.47,683.266 142,653.376 C163.77,632.066 187.9411,619.1602 215.3111,608.9102 " fill="none" id="Read Message in Group Chat-to-Download Attachment" style="stroke:#181818;stroke-width:1.0;stroke-dasharray:7.0,7.0;"/><polygon fill="#181818" points="220.93,606.806,211.0988,606.2164,216.2476,608.5595,213.9045,613.7083,220.93,606.806" style="stroke:#181818;stroke-width:1.0;"/><text fill="#000000" font-family="sans-serif" font-size="13" lengthAdjust="spacing" textLength="51" x="82" y="735.273">includes</text></g><!--link Admin to Login--><g id="link_Admin_Login"><path d="M51.19,1103.216 C60.25,1098.826 70.98,1093.996 81,1090.376 C139.75,1069.176 204.5541,1053.7176 247.3741,1044.5076 " fill="none" id="Admin-to-Login" style="stroke:#181818;stroke-width:1.0;"/><polygon fill="#181818" points="253.24,1043.246,243.6001,1041.2279,248.3518,1044.2973,245.2823,1049.049,253.24,1043.246" style="stroke:#181818;stroke-width:1.0;"/></g><!--link Admin to Logout--><g id="link_Admin_Logout"><path d="M51.43,1114.376 C93.32,1114.376 179.66,1114.376 236.98,1114.376 " fill="none" id="Admin-to-Logout" style="stroke:#181818;stroke-width:1.0;"/><polygon fill="#181818" points="242.98,1114.376,233.98,1110.376,237.98,1114.376,233.98,1118.376,242.98,1114.376" style="stroke:#181818;stroke-width:1.0;"/></g><!--link Admin to Delete User--><g id="link_Admin_Delete User"><path d="M51.18,1146.456 C71.49,1174.056 104.32,1212.886 142,1235.376 C167.76,1250.756 193.6631,1258.927 221.3231,1264.617 " fill="none" id="Admin-to-Delete User" style="stroke:#181818;stroke-width:1.0;"/><polygon fill="#181818" points="227.2,1265.826,219.1906,1260.0946,222.3026,1264.8185,217.5786,1267.9305,227.2,1265.826" style="stroke:#181818;stroke-width:1.0;"/></g><!--link Admin to Delete Message--><g id="link_Admin_Delete Message"><path d="M51.18,1082.636 C71.49,1055.366 104.32,1017.106 142,995.376 C164.3,982.516 185.0032,975.1171 209.5132,969.0971 " fill="none" id="Admin-to-Delete Message" style="stroke:#181818;stroke-width:1.0;"/><polygon fill="#181818" points="215.34,967.666,205.6457,965.9281,210.4843,968.8586,207.5539,973.6972,215.34,967.666" style="stroke:#181818;stroke-width:1.0;"/></g><!--link Admin to Delete Group Chat--><g id="link_Admin_Delete Group Chat"><path d="M51.34,1122.436 C73.91,1130.646 110.21,1143.536 142,1153.376 C168.82,1161.676 192.8149,1168.4515 218.7249,1175.4015 " fill="none" id="Admin-to-Delete Group Chat" style="stroke:#181818;stroke-width:1.0;"/><polygon fill="#181818" points="224.52,1176.956,216.8636,1170.7608,219.6907,1175.6606,214.791,1178.4877,224.52,1176.956" style="stroke:#181818;stroke-width:1.0;"/></g><!--SRC=[dP9DQy9048Rl-HM3ftgmFy13GHGAHI-Az3pTl4qMrXtPdRI7udzt4wNaeudGdC8y-ypE3g_3fv8A1LkKIhaDC6h5PsnK0XqZmlrtbP-ipxAQioySQBP3Z5nONz0xFg9LpEWde_JL5YqMB_IqbSJdmw9KsgyUu7EwjKIVxS6ZR0C7nHWzW8Cfn-WwW9Fx6gGwqxhamL1lOlq4teA_flJscsYoK_k5_PFDqUv-w3avnxEJPArKsPGdU9tJChd6LJdYJUeihf4sykqVQXDp_-VclreycgFfqcHkaAHkzJTAhV8z4_LwnrWd4KFStl_b2W00]--></g></svg>